<?xml version="1.0" encoding="UTF-8"?><svg id="Layer_2" xmlns="http://www.w3.org/2000/svg" viewBox="0 0 284.62 548.96"><defs><style>.cls-1{fill:#a38f7c;}.cls-2{fill:#310000;}.cls-3{fill:#edcfb4;}.cls-4{fill:#bca58e;}</style></defs><g id="Illustration"><path d="M117.02,517.02s-1.91,10.79-2.84,21.47c-.37,4.17,2.85,7.8,7.04,7.97,14.22.59,44.64,1.74,55.56,1.26,1.64-.07,2.71-1.75,2.11-3.28h0c-.51-1.28-1.49-2.31-2.74-2.89l-50.25-23.09-8.87-1.43Z"/><path class="cls-4" d="M115.46,510.68l1.53,12.9s8.8,4.1,14.81-.52l-3.65-14.38-12.7,1.99Z"/><path d="M116.61,268.09c-.66,3.37-3.55,168.16,14.06,242,.29,1.2-.32,2.45-1.47,2.92-2.7,1.1-8,2.7-14.35,2.92-1.97.07-3.73-1.21-4.28-3.1-5.04-17.13-29.16-102.98-32.31-184.98-3.52-91.63,0-3.12,0-3.12l2.06-56.64h36.28Z"/><path d="M59.22,522.65s-3.03,5.45-5.97,19.92c-.53,2.61,1.3,5.11,3.95,5.38,4.7.46,11.92,1.06,17.72,1.02,2.67-.02,4.75-2.34,4.43-4.99-.64-5.28-2.64-13.95-8.81-20.7l-11.31-.61Z"/><path class="cls-4" d="M56.55,506.05l3.58,19.51s3.54,2.63,10.53.72l-1.71-21-12.4.76Z"/><path d="M46.89,273.14c-14.41,86.94,3.13,214.89,9.04,239.93.36,1.53,1.6,2.71,3.15,2.97,2.64.44,6.98.79,11.27-.45,1.48-.43,2.51-1.76,2.57-3.3.79-20.25-.63-144.53,12.79-193.65.68-2.49,2.2-4.66,4.3-6.16l26.05-18.52,2-29.94-71.18,9.12Z"/><path class="cls-2" d="M138.69,108.4c-43.17-.71-90.81,11.34-90.81,11.34-12.87,75.09-2.25,161.7-2.25,161.7,33.42,8.77,71.13-5.36,71.13-5.36,5.56-31.39,31.47-119.72,31.47-119.72,21.09-2.62,38.47-8.7,52.78-16.75-10.92-12.65-16.06-28.75-18.3-38.27-15.26,4.74-30.71,7.28-44.03,7.06Z"/><path class="cls-2" d="M266.21,44.81c-4.24-5.12-9.61-2.7-9.61-2.7-6.35,26.84-39.67,48.6-73.89,59.23,2.23,9.52,7.38,25.62,18.3,38.27,56.8-31.94,65.2-94.8,65.2-94.8Z"/><path class="cls-4" d="M265.18,46.11c.44,1.41-4.7,3.56-7.72-2.21-.11-2.77-1.79-14.61-.14-16.87,8.8-12,25.86-27.04,25.86-27.04,2.88,2.85.51,5.64.51,5.64l-8.28,8.62c1.73,3.13,3.84,5.77,4.83,9.55.75,2.87.29,5.93-1.16,8.54-1.45,2.62-3.44,6.02-5.31,8.68-3.55,5.04-8.6,5.08-8.6,5.08Z"/><path class="cls-4" d="M271.8,19.86l-7.54,6.39-2.37,6.37,6.72,7.46s2.26-12.63,3.94-15.37c1.68-2.73.81-4.06-.76-4.86Z"/><path class="cls-2" d="M64.44,161.54l-16.56-41.8S7.55,147.14.92,181.88c7.62.56,21.48,2.54,35.06,9.4,2.98-16.4,28.46-29.73,28.46-29.73Z"/><path class="cls-4" d="M99.68,200.88s-45.28,25.59-60.55,3.74c-3.17-4.54-3.93-9.05-3.15-13.34-13.57-6.85-27.44-8.83-35.06-9.4-2,10.47-.94,21.61,5.21,32.87,26.76,48.95,99.54-2.71,99.54-2.71l-5.99-11.16Z"/><path class="cls-2" d="M94.24,233.25l24.71-86.29c.28-.98,1.12-1.69,2.13-1.81,4.48-.52,17.45-1.99,32.43-3.26,18.04-1.53,38.99-2.76,51.51-1.71,1.78.15,2.86,2.03,2.06,3.63-7.12,14.4-36.41,73-51.07,92.19-.49.64-1.24,1.01-2.04,1l-57.33-.53c-1.67-.02-2.86-1.62-2.4-3.22Z"/><path class="cls-3" d="M156.07,134.41l17.92-2.98c.95-.16,1.74.75,1.43,1.67l-1.77,5.37c-.15.47-.56.81-1.05.87l-17.24,2.3c-.89.12-1.63-.69-1.42-1.57l1.1-4.69c.12-.51.53-.89,1.04-.98Z"/><path class="cls-1" d="M142.65,149.58l1.48-7.69c.15-.77.78-1.35,1.57-1.43l36.18-3.67c1.22-.12,2.19.99,1.91,2.18l-2.3,9.58c-.18.77-.85,1.32-1.64,1.36l-35.36,1.78c-1.15.06-2.05-.98-1.83-2.11Z"/><path class="cls-4" d="M100.21,212.4s-3.44-14.15-2.05-19.18c1.39-5.02,4.08-11.48,13.05-10.04,8.97,1.43,19.54,5.21,19.54,5.21,0,0-.53,6.54-7.35,4.43l4.23,3.27s-.6,5.24-6.36,2.44l3.93,4.34s-2.47,4.3-6.71,1.54c-4.24-2.76-6.27,9.69-18.28,7.99Z"/><path class="cls-4" d="M94.96,73.35l-13.74,39.73c-.23.66.04,1.39.65,1.72,3.74,2.07,17.24,8.05,33.49-2.25,1.69-1.07,2.85-2.83,3.1-4.81l4.45-34.38h-27.96Z"/><path class="cls-4" d="M124.85,36.57s15.08,28.4,13.15,39.87c-1.93,11.47-20.63,10.65-36.95,1.33l-11.41-30.66,35.21-10.54Z"/><path d="M101.76,62.71c.66-.29.91-1.11.51-1.71-1.21-1.85-3.47-5.61-4.2-8.91,0,0-2.71-1.74,6.9-4.04,9.61-2.3,23.95-5.87,26.96-14.06,2.94-7.98-4.78-28.04-17.1-12.06-.47.61-1.39.62-1.85.01-2.02-2.63-7.33-8.08-14.7-4.78-6.9,3.09-7.67,8.15-7.58,10.69.03.75-.64,1.33-1.38,1.19-3.49-.66-11.85-1.24-15.76,7.35-3.22,7.07-1.13,11.07.78,13.03.62.63.35,1.68-.5,1.94-2.29.7-5.25,2.64-4.95,8.01.41,7.42,8.71,6.77,11.07,6.43.39-.06.78.08,1.04.37,2.03,2.24,11.15,11.76,21.03,12.91.86.1,1.52-.75,1.24-1.56l-4.28-12.43c-.2-.58.08-1.21.64-1.46l2.12-.94Z"/><path class="cls-4" d="M103.48,64.47s-10.74-7.37-11.52-1.16c-.78,6.21,9.67,8.99,14.85,6.68l-3.33-5.51Z"/></g></svg>