<?xml version="1.0" encoding="UTF-8"?><svg id="Layer_2" xmlns="http://www.w3.org/2000/svg" xmlns:xlink="http://www.w3.org/1999/xlink" viewBox="0 0 1252.51 657.23"><defs><style>.cls-1{fill:#91b3fa;}.cls-2{fill:url(#linear-gradient-3);}.cls-3{fill:url(#linear-gradient-2);}.cls-4{fill:url(#linear-gradient);}.cls-5{opacity:.6;}.cls-5,.cls-6{fill:#fff;}.cls-7{fill:#310000;}.cls-8{fill:#443b34;}.cls-9{fill:#fcd9c3;}</style><linearGradient id="linear-gradient" x1="1142.48" y1="67.36" x2="1170.98" y2="67.36" gradientUnits="userSpaceOnUse"><stop offset="0" stop-color="#dae3fe"/><stop offset="1" stop-color="#e9effd"/></linearGradient><linearGradient id="linear-gradient-2" x1="1091.63" y1="111.34" x2="1110.94" y2="111.34" xlink:href="#linear-gradient"/><linearGradient id="linear-gradient-3" x1="321.39" y1="539.25" x2="330.18" y2="539.25" gradientUnits="userSpaceOnUse"><stop offset="0" stop-color="#ff928e"/><stop offset="1" stop-color="#feb3b1"/></linearGradient></defs><g id="Illustration"><path class="cls-6" d="M960.43,257.58c-.78,0-1.41-.62-1.42-1.4,0-.78.62-1.43,1.4-1.44,2.37-.03,4.73-.12,7.04-.26.78-.06,1.46.55,1.51,1.33.05.78-.55,1.46-1.33,1.51-2.35.15-4.76.24-7.17.27h-.02ZM953.33,257.51s-.03,0-.05,0c-2.34-.08-4.75-.2-7.16-.38-.78-.06-1.37-.74-1.31-1.52.06-.78.71-1.38,1.52-1.31,2.37.17,4.74.3,7.04.38.79.03,1.4.68,1.38,1.47-.03.77-.66,1.38-1.42,1.38ZM974.61,256.69c-.71,0-1.33-.53-1.41-1.26-.09-.78.47-1.49,1.25-1.58,2.35-.28,4.69-.62,6.95-1.02.78-.14,1.51.38,1.65,1.15.14.77-.38,1.51-1.15,1.65-2.31.41-4.71.76-7.12,1.04-.06,0-.11,0-.17,0ZM939.14,256.47c-.05,0-.11,0-.16,0-2.34-.26-4.73-.58-7.1-.93-.78-.12-1.31-.84-1.2-1.62.12-.78.85-1.31,1.62-1.2,2.34.35,4.7.66,7,.92.78.09,1.34.79,1.25,1.57-.08.73-.7,1.26-1.41,1.26ZM925.07,254.38c-.08,0-.17,0-.26-.02-2.32-.42-4.68-.9-7.02-1.4-.77-.17-1.26-.92-1.09-1.69.17-.77.92-1.26,1.69-1.09,2.31.5,4.64.96,6.93,1.38.77.14,1.28.88,1.14,1.66-.13.69-.72,1.17-1.4,1.17ZM988.6,254.19c-.64,0-1.22-.43-1.38-1.08-.19-.76.28-1.53,1.04-1.72,2.29-.56,4.56-1.2,6.74-1.91.75-.25,1.55.17,1.79.92.24.75-.17,1.55-.92,1.79-2.25.72-4.58,1.38-6.94,1.96-.11.03-.23.04-.34.04ZM911.16,251.39c-.11,0-.23-.01-.34-.04-2.29-.57-4.62-1.18-6.92-1.82-.76-.21-1.2-.99-.99-1.75.21-.76,1-1.2,1.75-.99,2.27.63,4.58,1.24,6.84,1.8.76.19,1.23.96,1.04,1.72-.16.65-.74,1.08-1.38,1.08ZM1002.12,249.83c-.56,0-1.09-.33-1.32-.88-.3-.73.05-1.56.78-1.85,2.17-.89,4.31-1.86,6.36-2.9.7-.36,1.56-.08,1.91.62.36.7.08,1.56-.62,1.91-2.12,1.07-4.32,2.08-6.57,3-.18.07-.36.11-.54.11ZM897.45,247.57c-.14,0-.28-.02-.42-.06-2.32-.72-4.61-1.47-6.81-2.23-.74-.26-1.14-1.07-.88-1.81.26-.74,1.06-1.14,1.81-.88,2.17.75,4.43,1.49,6.72,2.2.75.23,1.17,1.03.94,1.78-.19.61-.75,1-1.36,1ZM1014.78,243.39c-.48,0-.94-.24-1.21-.67-.41-.67-.21-1.54.46-1.96,1.97-1.22,3.91-2.55,5.76-3.94.63-.47,1.52-.35,1.99.28.47.63.35,1.52-.28,1.99-1.92,1.44-3.93,2.82-5.97,4.08-.23.14-.49.21-.75.21ZM884,242.9c-.17,0-.35-.03-.52-.1-1.07-.42-1.64-.66-1.64-.66l-3.23-1.37,3.27-1.27c.09-.03.26-.1.51-.18.77-.27,2.38-.83,4.53-1.71.73-.3,1.56.05,1.85.78.3.73-.05,1.56-.78,1.85-.99.4-1.86.74-2.6,1.01.04.24.01.49-.08.73-.22.56-.76.9-1.32.9ZM893.96,237.43c-.52,0-1.03-.29-1.27-.79-.35-.7-.06-1.56.64-1.91,2.12-1.05,4.18-2.18,6.14-3.36.67-.41,1.55-.19,1.95.49.4.67.19,1.55-.49,1.95-2.03,1.22-4.16,2.39-6.34,3.47-.2.1-.42.15-.63.15ZM1026.11,234.86c-.39,0-.77-.16-1.06-.47-.53-.58-.48-1.48.1-2.01,1.72-1.55,3.38-3.2,4.96-4.9.53-.58,1.43-.61,2.01-.08.58.53.61,1.43.08,2.01-1.63,1.76-3.36,3.47-5.14,5.08-.27.25-.61.37-.95.37ZM906.13,230.08c-.44,0-.87-.2-1.15-.58-.46-.63-.33-1.52.31-1.99,1.92-1.4,3.73-2.88,5.39-4.4.58-.53,1.48-.49,2.01.09.53.58.49,1.48-.09,2.01-1.73,1.58-3.63,3.13-5.63,4.59-.25.19-.55.27-.84.27ZM1035.75,224.45c-.31,0-.61-.1-.87-.3-.62-.48-.73-1.38-.25-2,1.41-1.81,2.77-3.73,4.05-5.69.43-.66,1.31-.84,1.97-.41.66.43.84,1.31.41,1.97-1.32,2.03-2.73,4-4.19,5.88-.28.36-.7.55-1.12.55ZM916.59,220.48c-.32,0-.65-.11-.92-.34-.6-.51-.67-1.41-.17-2,1.52-1.8,2.89-3.67,4.05-5.57.41-.67,1.28-.88,1.96-.47.67.41.88,1.29.47,1.96-1.24,2.02-2.69,4.01-4.3,5.92-.28.33-.68.5-1.09.5ZM1043.53,212.58c-.23,0-.47-.06-.68-.18-.69-.38-.94-1.24-.56-1.93,1.1-2.01,2.16-4.11,3.15-6.25.33-.71,1.17-1.02,1.89-.7.71.33,1.02,1.17.7,1.89-1.02,2.2-2.11,4.37-3.24,6.43-.26.47-.75.74-1.25.74ZM923.95,208.4c-.17,0-.35-.03-.52-.1-.73-.29-1.09-1.12-.8-1.85.1-.25.19-.49.28-.74.78-2.1,1.63-4.09,2.51-5.91.34-.71,1.19-1,1.9-.65.71.34,1,1.2.65,1.9-.85,1.73-1.66,3.64-2.4,5.65-.1.27-.2.53-.31.8-.22.56-.76.9-1.32.9ZM1049.49,199.69c-.17,0-.34-.03-.51-.1-.73-.28-1.1-1.11-.82-1.84.83-2.14,1.61-4.37,2.33-6.62.24-.75,1.04-1.16,1.79-.92.75.24,1.16,1.04.92,1.79-.74,2.31-1.54,4.59-2.39,6.78-.22.56-.76.91-1.33.91ZM930.27,195.72c-.28,0-.57-.08-.81-.26-.64-.45-.8-1.34-.35-1.98,1.51-2.15,3.15-4.03,4.88-5.58.59-.52,1.49-.47,2.01.11.52.59.47,1.48-.11,2.01-1.57,1.41-3.07,3.12-4.45,5.09-.28.4-.72.61-1.17.61ZM940.87,186.54c-.55,0-1.07-.32-1.3-.85-.31-.72.02-1.56.74-1.87,1.53-.66,2.97-1.08,4.24-1.35-1.36-.29-2.96-.61-4.78-.95-.77-.14-1.28-.89-1.14-1.66.14-.77.89-1.28,1.66-1.14,2.92.54,5.29,1.03,7.05,1.46.76.18,1.23.95,1.05,1.71-.02.08-.05.16-.08.24.46.2.8.64.85,1.18.07.78-.51,1.47-1.29,1.54-1.66.15-3.89.46-6.43,1.57-.19.08-.38.12-.57.12ZM1053.83,186.17c-.12,0-.24-.01-.36-.05-.76-.2-1.21-.98-1.01-1.74.24-.93.48-1.87.71-2.82l-1.82-1.85c-.55-.56-.54-1.46.02-2.01.56-.55,1.46-.54,2.01.02l2.92,2.97-.18.76c-.29,1.24-.59,2.46-.91,3.65-.17.64-.74,1.06-1.37,1.06ZM933.01,180.3c-.08,0-.16,0-.24-.02-2.83-.48-5.37-.88-7.03-1.14-.78-.12-1.31-.85-1.18-1.63.12-.78.85-1.31,1.63-1.18.4.06.86.14,1.36.22-.41-.64-.25-1.49.38-1.93,1.47-1.03,2.91-2.58,4.75-4.75.51-.6,1.4-.67,2-.16.6.51.67,1.41.16,2-1.95,2.3-3.51,3.98-5.2,5.18,1.1.18,2.32.38,3.59.6.77.13,1.3.86,1.16,1.64-.12.69-.72,1.19-1.4,1.19ZM1047.37,175.08c-.37,0-.74-.14-1.01-.42l-4.99-5.07c-.55-.56-.54-1.46.02-2.01.56-.55,1.46-.54,2.01.02l4.99,5.07c.55.56.54,1.46-.02,2.01-.28.27-.64.41-1,.41ZM938.37,166.79c-.34,0-.67-.12-.94-.36-.59-.52-.64-1.42-.12-2.01,1.69-1.91,3.32-3.61,4.99-5.21.57-.54,1.47-.52,2.01.04.54.57.52,1.47-.04,2.01-1.62,1.55-3.2,3.2-4.83,5.05-.28.32-.67.48-1.07.48ZM1037.39,164.94c-.37,0-.74-.14-1.01-.42l-4.99-5.07c-.55-.56-.54-1.46.02-2.01.56-.55,1.46-.54,2.01.02l4.99,5.07c.55.56.54,1.46-.02,2.01-.28.27-.64.41-1,.41ZM948.63,156.98c-.42,0-.83-.18-1.11-.53-.49-.61-.39-1.51.22-2,1.84-1.47,3.8-2.9,5.83-4.26.65-.44,1.54-.26,1.97.39.44.65.26,1.54-.39,1.97-1.97,1.31-3.86,2.7-5.64,4.12-.26.21-.58.31-.89.31ZM1027.42,154.81c-.37,0-.74-.14-1.01-.42l-4.99-5.07c-.2-.2-.33-.45-.38-.71-.3-.07-.57-.23-.77-.46-.44-.34-2.45-1.56-5.74-2.95-.72-.3-1.06-1.14-.76-1.86.3-.72,1.14-1.06,1.86-.76.66.28,6.47,2.75,7.03,4.1.03.08.06.17.08.26.26.06.51.19.71.39l4.99,5.07c.55.56.54,1.46-.02,2.01-.28.27-.64.41-1,.41ZM960.42,149.08c-.5,0-.98-.26-1.24-.72-.39-.68-.15-1.55.54-1.94,1.39-.79,2.84-1.56,4.3-2.3.7-.36,1.41-.7,2.11-1.02.71-.33,1.56-.02,1.89.7.33.71.02,1.56-.7,1.89-.67.31-1.34.63-2.01.97-1.43.72-2.84,1.48-4.19,2.24-.22.12-.46.18-.7.18ZM973.35,143.22c-.6,0-1.16-.38-1.35-.99-.24-.75.17-1.55.92-1.79,2.3-.74,4.68-1.35,7.06-1.8.77-.15,1.51.36,1.66,1.13.15.77-.36,1.52-1.13,1.66-2.26.43-4.52,1.01-6.71,1.71-.15.05-.29.07-.44.07ZM1008.38,142.95c-.13,0-.26-.02-.4-.06-2.23-.64-4.5-1.17-6.77-1.56-.77-.13-1.29-.87-1.16-1.64.13-.77.86-1.3,1.64-1.16,2.37.41,4.75.96,7.08,1.63.75.22,1.19,1.01.97,1.76-.18.62-.75,1.03-1.37,1.03ZM987.28,140.57c-.74,0-1.37-.58-1.42-1.33-.05-.78.54-1.46,1.33-1.51,2.38-.15,4.84-.16,7.28-.03.78.04,1.38.72,1.34,1.5-.04.78-.72,1.38-1.5,1.34-2.25-.13-4.64-.12-6.93.03-.03,0-.06,0-.09,0Z"/><path class="cls-9" d="M1033.32,162.42s-34.67-17.08-49.95,7.02c-15.28,24.1-24.72,52.2-37.81,55.2,0,0,72.9,19.91,96.19-51.51l-8.44-10.71Z"/><path class="cls-7" d="M1065.27,87.57s-26.01-27.62-38.44-24.3c-11.82,3.16-76.22,60-82.48,65.54-.28.25-.31.66-.09.96h0c1.87,2.48,4.81,3.92,7.91,3.87,15.01-.23,59.83-1.3,73.28-5.97,16.24-5.64,39.82-40.1,39.82-40.1Z"/><path class="cls-5" d="M971.43,113.28c-.2,0-.4-.08-.54-.25-.25-.3-.22-.75.08-1,.36-.31,36.17-30.83,52.09-43.36,2.79-2.19,6.6-2.54,9.73-.88,5.01,2.66,14.65,8.17,22.95,15.2.3.25.34.7.08,1-.25.3-.7.34-1,.08-8.19-6.94-17.74-12.39-22.69-15.03-2.63-1.39-5.84-1.1-8.18.74-15.9,12.52-51.69,43.02-52.05,43.33-.13.11-.3.17-.46.17Z"/><path class="cls-7" d="M1118.36,157.94s19.42,32.6,12.82,43.63c-6.28,10.5-78.62,56.82-85.67,61.32-.32.2-.73.12-.95-.18h0c-1.87-2.48-2.45-5.7-1.55-8.67,4.34-14.37,17.68-57.17,25.86-68.82,9.88-14.07,49.49-27.27,49.49-27.27Z"/><path class="cls-5" d="M1068.56,242.02c-.23,0-.46-.11-.59-.32-.22-.33-.13-.77.2-.99.39-.26,39.55-26.3,55.95-38.15,2.42-1.75,3.58-4.76,2.96-7.66-1.17-5.49-3.79-16.17-8.22-25.95-.16-.36,0-.78.35-.94.36-.16.78,0,.94.35,4.26,9.41,6.87,19.46,8.31,26.24.74,3.46-.65,7.03-3.52,9.11-16.43,11.87-55.61,37.93-56,38.19-.12.08-.26.12-.39.12Z"/><path class="cls-8" d="M1167.3,11.21c-17.45,5.99-36,15.05-54.09,28.61-56.15,42.1-90.13,82.76-99.49,94.58-1.69,2.14-2.05,5.03-.98,7.54,8.39,19.78,20.83,36.53,37.31,50.26,3.1,2.58,7.4,3.19,11.12,1.62,16.13-6.81,62.78-28.26,116.27-68.86,17.87-13.56,31.6-28.79,42.12-43.81-13.19-33.62-37.64-57.31-52.26-69.93Z"/><path class="cls-7" d="M1219.56,81.14c23.25-33.18,30.85-65.32,32.89-76.18.4-2.12-1.11-4.12-3.26-4.32-10.96-1.03-43.77-2.53-81.88,10.57,14.62,12.62,39.07,36.31,52.26,69.93Z"/><path class="cls-1" d="M1170.24,107.76c-14.51,10.95-35.8,7.2-47.55-8.38-11.75-15.57-9.51-37.08,5-48.02,14.51-10.95,35.8-7.2,47.55,8.38,11.75,15.57,9.51,37.08-5,48.02Z"/><path class="cls-7" d="M1167.25,102.26c-11.56,8.72-28.53,5.73-37.89-6.68-9.36-12.41-7.58-29.54,3.98-38.27,11.56-8.72,28.53-5.73,37.89,6.68,9.36,12.41,7.58,29.54-3.98,38.27Z"/><path class="cls-4" d="M1170.27,75.46c-.3,0-.57-.19-.67-.48-.73-2.12-1.79-4.12-3.16-5.94-5.43-7.2-14.89-10.17-23-7.22-.37.14-.78-.06-.91-.42-.13-.37.06-.78.42-.91,8.69-3.17,18.81,0,24.62,7.7,1.46,1.94,2.6,4.07,3.37,6.34.13.37-.07.78-.44.9-.08.03-.15.04-.23.04Z"/><path class="cls-1" d="M1110.22,138.03c-9.59,7.23-23.65,4.75-31.41-5.53-7.76-10.29-6.28-24.49,3.3-31.73,9.59-7.23,23.65-4.75,31.41,5.53,7.76,10.29,6.28,24.49-3.3,31.73Z"/><path class="cls-7" d="M1108.24,134.39c-7.64,5.76-18.85,3.79-25.03-4.41-6.19-8.2-5.01-19.52,2.63-25.28,7.64-5.76,18.85-3.79,25.03,4.41,6.19,8.2,5.01,19.52-2.63,25.28Z"/><path class="cls-3" d="M1110.23,116.93c-.3,0-.57-.19-.67-.48-.47-1.38-1.16-2.68-2.05-3.86-3.53-4.67-9.66-6.6-14.92-4.69-.37.13-.78-.06-.91-.43-.13-.37.06-.78.42-.91,5.84-2.12,12.64,0,16.54,5.17.98,1.3,1.75,2.74,2.26,4.26.13.37-.07.78-.44.9-.08.03-.15.04-.23.04Z"/><path class="cls-6" d="M854.46,656.02l-.76-4.16v-.04c-.15-.78.37-1.52,1.14-1.66.78-.14,1.52.37,1.66,1.15h0s.75,4.25.75,4.25c.14.77-.38,1.51-1.15,1.65-.77.14-1.51-.38-1.65-1.15v-.03Z"/><path class="cls-6" d="M851.5,642.25l-1.13-4.07v-.04c-.22-.78.23-1.58,1.01-1.79.78-.21,1.58.24,1.79,1.02h0s1.13,4.16,1.13,4.16c.21.77-.25,1.57-1.02,1.78s-1.57-.24-1.78-1.02v-.03Z"/><path class="cls-6" d="M847.33,628.8l-1.48-3.96v-.04c-.3-.77.09-1.62.86-1.91.77-.29,1.62.1,1.91.87h0s1.49,4.04,1.49,4.04c.28.76-.11,1.61-.87,1.9-.76.28-1.61-.11-1.9-.87v-.03Z"/><path class="cls-6" d="M842.01,615.76l-1.81-3.82-.02-.03c-.36-.76-.04-1.66.72-2.02.76-.36,1.66-.04,2.02.72h0s1.83,3.9,1.83,3.9c.35.75.03,1.65-.72,2-.75.35-1.65.03-2-.72v-.03Z"/><path class="cls-6" d="M835.61,603.21l-2.12-3.66-.02-.03c-.43-.74-.17-1.68.56-2.11.74-.43,1.68-.17,2.11.56h0s2.14,3.74,2.14,3.74c.42.73.17,1.67-.57,2.09-.73.42-1.67.17-2.09-.57l-.02-.03Z"/><path class="cls-6" d="M828.22,591.21l-2.39-3.49-.02-.03c-.49-.71-.31-1.69.41-2.18.71-.49,1.69-.31,2.18.41h0s2.42,3.56,2.42,3.56c.49.71.3,1.68-.41,2.17-.71.49-1.68.3-2.17-.41l-.02-.02Z"/><path class="cls-6" d="M819.94,579.8l-2.64-3.3-.02-.03c-.55-.69-.44-1.69.25-2.25.69-.55,1.69-.44,2.25.25h0s2.67,3.37,2.67,3.37c.55.69.43,1.69-.26,2.23-.69.55-1.69.43-2.23-.26l-.02-.02Z"/><path class="cls-6" d="M810.86,569.01l-2.87-3.11-.02-.02c-.61-.66-.57-1.69.09-2.3.66-.61,1.69-.57,2.3.09h0s2.9,3.18,2.9,3.18c.6.66.56,1.68-.1,2.28-.66.6-1.68.56-2.28-.1l-.02-.02Z"/><path class="cls-6" d="M801.05,558.87l-3.07-2.91-.02-.02c-.66-.63-.69-1.68-.06-2.34s1.68-.69,2.34-.06h0s3.11,2.98,3.11,2.98c.66.63.68,1.67.05,2.33-.63.66-1.67.68-2.33.05l-.02-.02Z"/><path class="cls-6" d="M790.6,549.39l-3.25-2.71-.02-.02c-.71-.6-.81-1.66-.21-2.37.6-.71,1.66-.81,2.37-.21h0s3.29,2.77,3.29,2.77c.71.6.8,1.65.2,2.36-.6.71-1.65.8-2.36.2l-.02-.02Z"/><path class="cls-6" d="M779.57,540.58l-3.41-2.51-.02-.02c-.76-.56-.92-1.63-.36-2.39.56-.76,1.63-.92,2.39-.36h0s3.45,2.57,3.45,2.57c.75.56.91,1.63.35,2.38-.56.75-1.63.91-2.38.35h-.02Z"/><path class="cls-6" d="M768.04,532.45l-3.56-2.31-.03-.02c-.81-.52-1.03-1.6-.51-2.4.52-.81,1.6-1.03,2.4-.51h0s3.6,2.36,3.6,2.36c.8.52,1.02,1.6.5,2.39-.52.8-1.6,1.02-2.39.5h-.02Z"/><path class="cls-6" d="M756.04,525l-3.68-2.1h-.03c-.85-.5-1.14-1.58-.66-2.42.48-.85,1.56-1.14,2.41-.66h0s3.72,2.15,3.72,2.15c.84.48,1.13,1.56.65,2.4-.48.84-1.56,1.13-2.4.65h-.02Z"/><path class="cls-6" d="M743.64,518.25l-3.79-1.89h-.03c-.89-.45-1.25-1.53-.81-2.42.44-.89,1.52-1.25,2.41-.81h0s3.84,1.93,3.84,1.93c.88.44,1.24,1.52.79,2.4-.44.88-1.52,1.24-2.4.79h-.02Z"/><path class="cls-6" d="M730.88,512.21l-3.89-1.67h-.03c-.92-.41-1.35-1.48-.96-2.41.4-.92,1.47-1.35,2.39-.96h0s3.94,1.71,3.94,1.71c.92.4,1.34,1.47.94,2.39-.4.92-1.47,1.34-2.39.94h-.02Z"/><path class="cls-6" d="M717.8,506.9l-3.98-1.45h-.03c-.96-.36-1.46-1.42-1.11-2.38.35-.96,1.41-1.45,2.37-1.11h0s4.03,1.49,4.03,1.49c.95.35,1.44,1.41,1.09,2.37-.35.95-1.41,1.44-2.37,1.09h-.02Z"/><path class="cls-6" d="M704.44,502.33l-4.05-1.22h-.03c-.99-.31-1.56-1.36-1.26-2.35.3-.99,1.35-1.56,2.34-1.26h0s4.11,1.26,4.11,1.26c.99.3,1.54,1.35,1.24,2.33s-1.35,1.54-2.33,1.24h-.02Z"/><path class="cls-6" d="M690.85,498.54l-4.11-1h-.03c-1.02-.25-1.65-1.28-1.4-2.31.25-1.02,1.28-1.65,2.3-1.4h0s4.16,1.03,4.16,1.03c1.02.25,1.64,1.28,1.39,2.3-.25,1.02-1.28,1.64-2.3,1.39h-.02Z"/><path class="cls-6" d="M677.07,495.44l-4.16-.8h-.03c-1.05-.21-1.74-1.22-1.53-2.27.2-1.05,1.22-1.74,2.27-1.53h0s4.21.83,4.21.83c1.04.21,1.72,1.22,1.52,2.26-.21,1.04-1.22,1.72-2.26,1.52h-.02Z"/><path class="cls-6" d="M663.16,492.98l-4.19-.62h-.03c-1.07-.16-1.81-1.16-1.66-2.23.16-1.07,1.16-1.81,2.23-1.66h0s4.24.64,4.24.64c1.07.16,1.8,1.16,1.64,2.22-.16,1.07-1.16,1.8-2.22,1.64h-.02Z"/><path class="cls-6" d="M649.14,491.13l-4.22-.44h-.02c-1.09-.12-1.89-1.1-1.77-2.19.11-1.09,1.09-1.89,2.19-1.77h0s4.27.46,4.27.46c1.09.12,1.88,1.1,1.76,2.18-.12,1.09-1.1,1.88-2.18,1.76h-.02Z"/><path class="cls-6" d="M635.06,489.86l-4.23-.27h-.02c-1.11-.07-1.96-1.03-1.89-2.15.07-1.11,1.03-1.96,2.14-1.89h0s4.28.29,4.28.29c1.11.08,1.94,1.03,1.87,2.14-.08,1.11-1.03,1.94-2.14,1.87h-.02Z"/><path class="cls-6" d="M620.94,489.15l-4.24-.11h-.02c-1.13-.03-2.02-.97-1.99-2.1.03-1.13.97-2.02,2.1-1.99h0s4.29.13,4.29.13c1.13.03,2.01.97,1.98,2.1-.03,1.13-.97,2.01-2.1,1.98h-.01Z"/><path class="cls-6" d="M606.8,488.95l-4.24.04h-.02c-1.15,0-2.08-.91-2.09-2.06,0-1.15.91-2.08,2.06-2.09h0l4.29-.02c1.14,0,2.07.92,2.08,2.06,0,1.14-.92,2.07-2.06,2.08h-.01Z"/><path class="cls-6" d="M592.65,489.23l-4.24.17h-.02c-1.16.05-2.14-.85-2.19-2.02-.05-1.16.86-2.14,2.02-2.19h0s4.28-.16,4.28-.16c1.16-.04,2.13.86,2.17,2.02.04,1.16-.86,2.13-2.02,2.17h-.01Z"/><path class="cls-6" d="M578.51,489.95l-4.24.3h-.02c-1.17.08-2.19-.8-2.28-1.98-.08-1.17.8-2.19,1.98-2.28h0s4.27-.28,4.27-.28c1.17-.08,2.18.81,2.26,1.98.08,1.17-.81,2.18-1.98,2.26h-.01Z"/><path class="cls-6" d="M564.39,491.07l-4.23.41h-.02c-1.18.12-2.22-.75-2.34-1.92-.11-1.18.75-2.22,1.93-2.34h0s4.26-.41,4.26-.41c1.18-.11,2.22.75,2.33,1.93s-.75,2.22-1.93,2.33h-.01Z"/><path class="cls-6" d="M550.31,492.56l-4.22.51h-.02c-1.18.15-2.25-.69-2.4-1.87-.14-1.18.7-2.25,1.88-2.4h0s4.25-.51,4.25-.51c1.18-.14,2.25.7,2.39,1.88.14,1.18-.7,2.25-1.88,2.39h-.01Z"/><path class="cls-6" d="M536.26,494.39l-4.21.61h-.01c-1.18.17-2.28-.65-2.45-1.83s.65-2.28,1.83-2.45h0s4.24-.61,4.24-.61c1.18-.17,2.27.65,2.44,1.83.17,1.18-.65,2.27-1.83,2.44h-.01Z"/><path class="cls-6" d="M522.24,496.52l-4.2.7h-.01c-1.18.2-2.3-.6-2.5-1.78-.2-1.18.6-2.3,1.79-2.5h0s4.22-.69,4.22-.69c1.18-.19,2.3.61,2.49,1.79s-.61,2.3-1.79,2.49h0Z"/><path class="cls-6" d="M508.27,498.94l-4.18.77h-.01c-1.18.22-2.32-.56-2.54-1.75-.22-1.18.56-2.32,1.75-2.54h0s4.21-.77,4.21-.77c1.18-.22,2.32.57,2.53,1.75.22,1.18-.57,2.32-1.75,2.53h0Z"/><path class="cls-6" d="M494.34,501.59l-4.17.84h0c-1.19.24-2.34-.53-2.58-1.71-.24-1.19.53-2.34,1.71-2.58h0s4.19-.84,4.19-.84c1.18-.24,2.34.53,2.57,1.72.24,1.18-.53,2.34-1.72,2.57h0Z"/><path class="cls-6" d="M480.44,504.46l-4.16.9h0c-1.19.26-2.36-.5-2.61-1.68s.5-2.36,1.69-2.61h0s4.18-.9,4.18-.9c1.19-.25,2.35.5,2.61,1.69.25,1.19-.5,2.35-1.69,2.61h0Z"/><path class="cls-6" d="M466.58,507.52l-4.15.95h0c-1.19.27-2.37-.47-2.65-1.66-.27-1.19.47-2.37,1.66-2.65h0s4.17-.95,4.17-.95c1.19-.27,2.37.47,2.64,1.66.27,1.19-.47,2.37-1.66,2.64h0Z"/><path class="cls-6" d="M452.75,510.74l-4.15.99c-1.19.29-2.39-.44-2.68-1.64s.44-2.39,1.64-2.68h0s4.16-.99,4.16-.99c1.19-.28,2.39.45,2.67,1.64.28,1.19-.46,2.39-1.65,2.67Z"/><path class="cls-6" d="M438.94,514.08l-4.15,1.02c-1.19.3-2.4-.43-2.7-1.63-.3-1.19.43-2.4,1.63-2.7h0s4.15-1.02,4.15-1.02c1.19-.29,2.4.44,2.69,1.63.29,1.19-.44,2.4-1.63,2.69Z"/><path class="cls-6" d="M425.14,517.5l-4.14,1.04c-1.2.3-2.42-.43-2.72-1.62-.3-1.2.43-2.42,1.62-2.72h0s4.14-1.03,4.14-1.03c1.2-.3,2.41.43,2.71,1.63.3,1.2-.43,2.41-1.63,2.71Z"/><path class="cls-6" d="M411.36,520.97l-4.14,1.05c-1.2.3-2.43-.42-2.73-1.63-.3-1.2.42-2.43,1.63-2.73h0s4.14-1.04,4.14-1.04c1.2-.3,2.42.43,2.73,1.63.3,1.2-.43,2.42-1.63,2.72Z"/><path class="cls-6" d="M397.57,524.46l-4.14,1.05c-1.21.31-2.44-.43-2.74-1.64-.31-1.21.43-2.44,1.64-2.74h0s4.14-1.04,4.14-1.04c1.21-.3,2.43.43,2.74,1.64.3,1.21-.43,2.43-1.63,2.74Z"/><path class="cls-6" d="M383.78,527.93l-4.14,1.04c-1.21.3-2.45-.44-2.75-1.65-.3-1.21.44-2.45,1.65-2.75h0s4.14-1.03,4.14-1.03c1.21-.3,2.44.44,2.75,1.65.3,1.21-.43,2.44-1.65,2.75Z"/><path class="cls-6" d="M369.97,531.36l-4.15,1.02c-1.22.3-2.45-.45-2.75-1.67-.3-1.22.45-2.45,1.67-2.75h0s4.14-1.01,4.14-1.01c1.22-.3,2.45.45,2.75,1.67.3,1.22-.45,2.45-1.67,2.75Z"/><path class="cls-6" d="M356.13,534.71l-4.16.99c-1.23.29-2.46-.47-2.75-1.7-.29-1.23.47-2.46,1.7-2.75h0s4.15-.98,4.15-.98c1.23-.29,2.46.47,2.75,1.69.29,1.23-.47,2.46-1.69,2.75Z"/><path class="cls-6" d="M342.27,537.95l-4.17.95c-1.24.28-2.47-.49-2.75-1.73-.28-1.24.49-2.47,1.73-2.75h0s0,0,0,0l4.15-.94h0c1.24-.28,2.46.49,2.74,1.73.28,1.24-.49,2.46-1.73,2.74Z"/><path class="cls-2" d="M328.36,541.05l-4.18.9c-1.25.27-2.47-.53-2.74-1.77-.27-1.25.53-2.47,1.77-2.74h0s0,0,0,0l4.16-.89h0c1.24-.27,2.47.53,2.73,1.77.27,1.24-.52,2.47-1.77,2.73Z"/><path class="cls-6" d="M314.41,543.98l-4.2.84c-1.25.25-2.47-.56-2.73-1.82-.25-1.25.56-2.47,1.82-2.72h0s.01,0,.01,0l4.18-.83h.01c1.25-.25,2.47.56,2.72,1.82.25,1.25-.56,2.47-1.82,2.72Z"/><path class="cls-6" d="M300.41,546.7l-4.21.77c-1.26.23-2.47-.61-2.71-1.87-.23-1.26.61-2.47,1.87-2.71h0s.01,0,.01,0l4.19-.76h.01c1.26-.23,2.47.61,2.7,1.87.23,1.26-.61,2.47-1.87,2.7Z"/><path class="cls-6" d="M286.36,549.17l-4.22.69c-1.27.21-2.47-.66-2.68-1.93-.21-1.27.66-2.47,1.93-2.68h0s.01,0,.01,0l4.2-.68h.01c1.27-.21,2.47.66,2.67,1.93.21,1.27-.66,2.47-1.93,2.67Z"/><path class="cls-6" d="M272.27,551.36l-4.24.6c-1.28.18-2.47-.71-2.65-1.99s.71-2.47,1.99-2.65h0s.02,0,.02,0l4.21-.59h.02c1.28-.18,2.46.71,2.64,1.99.18,1.28-.71,2.46-1.99,2.64Z"/><path class="cls-6" d="M258.12,553.24l-4.25.5c-1.29.15-2.46-.77-2.61-2.07-.15-1.29.77-2.46,2.07-2.61h0s.02,0,.02,0l4.22-.49h.02c1.29-.15,2.46.77,2.61,2.06s-.77,2.46-2.06,2.61Z"/><path class="cls-6" d="M243.93,554.77l-4.26.39c-1.3.12-2.45-.84-2.57-2.14-.12-1.3.84-2.45,2.14-2.57h0s.02,0,.02,0l4.23-.38h.02c1.3-.12,2.45.84,2.56,2.14.12,1.3-.84,2.45-2.14,2.56Z"/><path class="cls-6" d="M229.7,555.92l-4.28.27c-1.31.08-2.44-.91-2.52-2.22-.08-1.31.91-2.44,2.22-2.52h0s.02,0,.02,0l4.24-.26h.02c1.31-.08,2.43.91,2.51,2.22.08,1.31-.91,2.43-2.22,2.51Z"/><path class="cls-6" d="M215.42,556.65l-4.29.12c-1.32.04-2.41-1-2.45-2.32-.04-1.32,1-2.41,2.32-2.45h0s.03,0,.03,0l4.24-.11h.03c1.31-.04,2.41,1,2.44,2.32.04,1.31-1,2.41-2.31,2.44Z"/><path class="cls-6" d="M201.11,556.86l-4.29-.05c-1.32-.01-2.38-1.1-2.37-2.42.01-1.32,1.1-2.38,2.42-2.37h.03s4.24.05,4.24.05h.03c1.32.02,2.38,1.1,2.36,2.42-.02,1.32-1.1,2.38-2.42,2.36Z"/><path class="cls-6" d="M186.8,556.51l-4.29-.22c-1.33-.07-2.34-1.2-2.27-2.52.07-1.33,1.2-2.34,2.52-2.27h0s.03,0,.03,0l4.23.23h.03c1.32.07,2.34,1.2,2.27,2.53-.07,1.32-1.2,2.34-2.52,2.27Z"/><path class="cls-6" d="M172.51,555.54l-4.28-.42c-1.33-.13-2.3-1.31-2.17-2.63.13-1.33,1.31-2.3,2.63-2.17h0s.03,0,.03,0l4.21.41h.03c1.32.13,2.29,1.31,2.16,2.64s-1.31,2.29-2.63,2.16Z"/><path class="cls-6" d="M158.26,553.92l-4.26-.62c-1.32-.19-2.24-1.42-2.05-2.75.19-1.32,1.42-2.24,2.75-2.05h0s.04,0,.04,0l4.18.62h.04c1.32.2,2.23,1.43,2.04,2.75s-1.42,2.24-2.74,2.04Z"/><path class="cls-6" d="M144.11,551.58l-4.22-.85c-1.32-.27-2.17-1.55-1.9-2.86.27-1.32,1.55-2.17,2.86-1.9h0s.04,0,.04,0l4.14.84h.04c1.31.27,2.16,1.56,1.9,2.87-.27,1.32-1.55,2.17-2.86,1.9Z"/><path class="cls-6" d="M130.09,548.47l-4.17-1.1c-1.3-.34-2.08-1.68-1.74-2.98.34-1.3,1.68-2.08,2.98-1.74h0s.04.01.04.01l4.08,1.08h.04c1.3.36,2.08,1.69,1.74,2.99s-1.68,2.08-2.98,1.74Z"/><path class="cls-6" d="M116.27,544.51l-4.1-1.36c-1.28-.43-1.98-1.81-1.55-3.1.43-1.28,1.81-1.98,3.1-1.55h0s.05.02.05.02l4,1.34.05.02c1.28.43,1.98,1.82,1.55,3.1-.43,1.28-1.81,1.98-3.09,1.55Z"/><path class="cls-6" d="M102.73,539.65l-4-1.65c-1.26-.52-1.86-1.96-1.34-3.21.52-1.26,1.96-1.86,3.21-1.34h0s.05.02.05.02l3.9,1.61.05.02c1.25.52,1.85,1.96,1.33,3.21-.52,1.25-1.95,1.85-3.21,1.33Z"/><path class="cls-6" d="M89.56,533.81l-3.86-1.95c-1.22-.61-1.71-2.1-1.09-3.32.61-1.22,2.1-1.71,3.32-1.09h0s.05.03.05.03l3.75,1.9.05.03c1.22.62,1.7,2.1,1.09,3.32-.62,1.22-2.1,1.7-3.31,1.09Z"/><path class="cls-6" d="M76.87,526.95l-3.69-2.26c-1.17-.72-1.53-2.24-.82-3.41.72-1.17,2.24-1.53,3.41-.82h0s.05.04.05.04l3.58,2.2.05.03c1.17.72,1.53,2.24.81,3.41-.72,1.17-2.24,1.53-3.4.81Z"/><path class="cls-6" d="M64.8,519.04l-3.48-2.58c-1.1-.82-1.34-2.38-.52-3.48.82-1.1,2.38-1.34,3.48-.52h0s.05.04.05.04l3.37,2.5.05.04c1.1.82,1.33,2.38.51,3.48-.82,1.1-2.37,1.33-3.48.51Z"/><path class="cls-6" d="M53.48,510.07l-3.23-2.89c-1.03-.92-1.12-2.5-.2-3.53.92-1.03,2.5-1.12,3.53-.19h0s.05.05.05.05l3.12,2.8.05.05c1.03.92,1.11,2.5.19,3.53-.92,1.03-2.5,1.11-3.52.19Z"/><path class="cls-6" d="M43.04,500.06l-2.93-3.2c-.94-1.02-.87-2.61.16-3.55,1.02-.94,2.61-.87,3.55.16h0s.05.06.05.06l2.83,3.09.05.06c.93,1.02.86,2.61-.16,3.54-1.02.93-2.61.86-3.54-.16Z"/><path class="cls-6" d="M33.65,489.06l-2.6-3.48c-.83-1.11-.61-2.69.51-3.53,1.11-.83,2.69-.61,3.53.51h0s.04.06.04.06l2.51,3.36.04.06c.83,1.11.6,2.69-.51,3.52-1.11.83-2.69.6-3.52-.51Z"/><path class="cls-6" d="M25.39,477.19l-2.25-3.71c-.72-1.19-.35-2.75.85-3.47,1.19-.73,2.75-.35,3.47.85h0s.04.06.04.06l2.17,3.59.04.06c.72,1.19.34,2.75-.85,3.47-1.19.72-2.74.34-3.47-.85Z"/><path class="cls-6" d="M18.3,464.61l-1.9-3.9c-.61-1.26-.09-2.78,1.17-3.39,1.26-.61,2.78-.09,3.39,1.17h0s.03.06.03.06l1.83,3.77.03.06c.61,1.26.09,2.78-1.17,3.39-1.26.61-2.78.09-3.39-1.17Z"/><path class="cls-6" d="M12.38,451.43l-1.55-4.05c-.5-1.31.16-2.79,1.47-3.29,1.31-.5,2.79.16,3.29,1.47h0s.02.06.02.06l1.49,3.92.02.06c.5,1.31-.16,2.78-1.47,3.28-1.31.5-2.78-.16-3.28-1.47Z"/><path class="cls-6" d="M7.64,437.8l-1.2-4.16c-.39-1.36.39-2.77,1.75-3.17,1.36-.39,2.77.39,3.17,1.75h0s.02.06.02.06l1.16,4.04.02.06c.39,1.36-.4,2.77-1.75,3.16-1.36.39-2.77-.39-3.16-1.75Z"/><path class="cls-6" d="M4.05,423.83l-.85-4.24c-.28-1.39.62-2.74,2.01-3.02,1.39-.28,2.74.62,3.02,2.01h0s.01.06.01.06l.82,4.12v.06c.29,1.39-.61,2.74-2,3.02-1.39.28-2.74-.62-3.02-2.01Z"/><path class="cls-6" d="M1.59,409.62l-.52-4.29c-.17-1.41.84-2.7,2.25-2.87,1.41-.17,2.7.84,2.87,2.25h0s0,.06,0,.06l.5,4.18v.06c.18,1.41-.83,2.69-2.24,2.86-1.41.17-2.69-.84-2.86-2.25Z"/><path class="cls-6" d="M.25,395.27l-.19-4.32c-.06-1.43,1.04-2.64,2.47-2.7,1.43-.06,2.63,1.04,2.7,2.47h0s0,.06,0,.06l.18,4.2v.06c.06,1.43-1.04,2.63-2.47,2.69-1.43.06-2.63-1.04-2.69-2.47Z"/><path class="cls-6" d="M0,380.86l.14-4.32c.05-1.43,1.24-2.56,2.68-2.51s2.56,1.24,2.51,2.68h0s0,.06,0,.06l-.14,4.21v.06c-.05,1.43-1.25,2.55-2.68,2.51-1.43-.05-2.55-1.24-2.51-2.67Z"/><path class="cls-6" d="M.83,366.47l.46-4.31c.15-1.43,1.44-2.47,2.87-2.32,1.43.15,2.47,1.44,2.32,2.87h0s0,.06,0,.06l-.45,4.19v.06c-.16,1.43-1.44,2.46-2.87,2.31s-2.46-1.43-2.31-2.86Z"/><path class="cls-6" d="M2.72,352.18l.78-4.25c.26-1.42,1.62-2.36,3.04-2.1,1.42.26,2.36,1.62,2.1,3.04h0s-.01.06-.01.06l-.76,4.14v.06c-.27,1.42-1.63,2.36-3.05,2.1-1.42-.26-2.36-1.62-2.1-3.04Z"/><path class="cls-6" d="M5.68,338.07l1.09-4.19c.37-1.4,1.8-2.24,3.2-1.88,1.4.37,2.24,1.8,1.88,3.2h0s-.02.06-.02.06l-1.07,4.07-.02.06c-.37,1.4-1.8,2.24-3.2,1.87-1.4-.37-2.24-1.8-1.87-3.2Z"/><path class="cls-6" d="M9.7,324.22l1.41-4.09c.47-1.38,1.98-2.11,3.35-1.63,1.38.48,2.11,1.98,1.63,3.35h0s-.02.06-.02.06l-1.38,3.97-.02.06c-.48,1.37-1.98,2.1-3.35,1.62-1.37-.48-2.1-1.97-1.63-3.35Z"/><path class="cls-6" d="M14.78,310.72l1.73-3.97c.58-1.34,2.14-1.95,3.48-1.37,1.34.58,1.95,2.14,1.37,3.48h0s-.03.06-.03.06l-1.69,3.85-.03.06c-.59,1.34-2.14,1.95-3.48,1.36-1.34-.59-1.95-2.14-1.36-3.48Z"/><path class="cls-6" d="M20.92,297.65l2.05-3.82c.69-1.29,2.3-1.78,3.59-1.08,1.29.69,1.78,2.3,1.08,3.59h0s-.03.06-.03.06l-1.99,3.7-.03.06c-.69,1.29-2.3,1.77-3.59,1.08-1.29-.69-1.77-2.3-1.08-3.59Z"/><path class="cls-6" d="M28.07,285.13l2.32-3.65c.79-1.24,2.43-1.61,3.68-.82,1.24.79,1.61,2.43.82,3.68h0s-.03.05-.03.05l-2.26,3.55-.03.05c-.79,1.24-2.43,1.61-3.67.82-1.24-.79-1.61-2.43-.82-3.67Z"/><path class="cls-6" d="M36.09,273.16l2.57-3.48c.88-1.19,2.55-1.44,3.74-.56,1.19.88,1.44,2.55.56,3.74h0s-.03.05-.03.05l-2.5,3.38-.03.04c-.88,1.19-2.55,1.44-3.74.56-1.19-.88-1.44-2.55-.56-3.73Z"/><path class="cls-6" d="M44.91,261.79l2.8-3.29c.96-1.13,2.65-1.27,3.78-.31,1.13.96,1.27,2.65.31,3.78h0s-.03.04-.03.04l-2.73,3.21-.03.04c-.96,1.13-2.65,1.26-3.78.3-1.13-.96-1.27-2.65-.31-3.78Z"/><path class="cls-6" d="M54.48,251.03l3.01-3.1c1.04-1.07,2.74-1.09,3.81-.06,1.07,1.04,1.09,2.74.06,3.81h0s-.04.04-.04.04l-2.94,3.02-.04.04c-1.04,1.07-2.74,1.09-3.8.05-1.07-1.04-1.09-2.74-.06-3.8Z"/><path class="cls-6" d="M64.72,240.93l3.19-2.9c1.11-1,2.81-.92,3.82.18,1,1.11.92,2.81-.18,3.82h0s-.04.04-.04.04l-3.12,2.83-.04.03c-1.11,1-2.81.92-3.81-.19-1-1.1-.92-2.81.19-3.81Z"/><path class="cls-6" d="M75.58,231.49l3.36-2.7c1.17-.94,2.88-.75,3.81.42.94,1.17.75,2.88-.42,3.81h0s-.04.03-.04.03l-3.29,2.64-.04.03c-1.17.94-2.87.75-3.81-.42s-.75-2.87.42-3.81Z"/><path class="cls-6" d="M86.97,222.72l3.52-2.5c1.23-.87,2.93-.58,3.8.64s.58,2.93-.64,3.8h0s-.04.03-.04.03l-3.44,2.44-.04.03c-1.23.87-2.92.58-3.79-.65-.87-1.23-.58-2.92.65-3.79Z"/><path class="cls-6" d="M98.86,214.64l3.65-2.29c1.28-.8,2.96-.42,3.77.86.8,1.28.42,2.96-.86,3.77h0s-.04.03-.04.03l-3.58,2.24-.04.02c-1.28.8-2.96.41-3.76-.87-.8-1.28-.41-2.96.86-3.76Z"/><path class="cls-6" d="M111.18,207.24l3.77-2.09c1.32-.73,2.99-.25,3.73,1.07.73,1.33.25,2.99-1.07,3.73h0s-.04.02-.04.02l-3.7,2.04-.04.02c-1.32.73-2.99.25-3.72-1.08-.73-1.32-.25-2.99,1.07-3.72Z"/><path class="cls-6" d="M123.88,200.52l3.88-1.88c1.37-.66,3.01-.09,3.68,1.27.66,1.37.09,3.01-1.27,3.68h0s-.04.02-.04.02l-3.8,1.84-.04.02c-1.37.66-3.01.09-3.67-1.28-.66-1.37-.09-3.01,1.27-3.67Z"/><path class="cls-6" d="M136.92,194.49l3.97-1.68c1.41-.59,3.02.07,3.62,1.47.59,1.41-.07,3.02-1.47,3.62h0s-.04.02-.04.02l-3.9,1.64-.04.02c-1.4.59-3.02-.07-3.61-1.47-.59-1.4.07-3.02,1.47-3.61Z"/><path class="cls-6" d="M150.25,189.15l4.05-1.47c1.44-.52,3.03.22,3.55,1.66.52,1.44-.22,3.03-1.66,3.55h0s-.04.02-.04.02l-3.97,1.43h-.04c-1.44.53-3.02-.21-3.54-1.65-.52-1.44.22-3.02,1.66-3.54Z"/><path class="cls-6" d="M163.84,184.49l4.12-1.26c1.47-.45,3.02.38,3.47,1.85.45,1.47-.38,3.02-1.85,3.47h0s-.04.01-.04.01l-4.04,1.23h-.04c-1.47.46-3.02-.37-3.47-1.84-.45-1.47.38-3.02,1.84-3.47Z"/><path class="cls-6" d="M177.64,180.54l4.18-1.05c1.49-.38,3.01.53,3.39,2.03.38,1.49-.53,3.01-2.03,3.39h0s-.04.01-.04.01l-4.1,1.02h-.04c-1.49.38-3.01-.52-3.38-2.02s.53-3.01,2.02-3.38Z"/><path class="cls-6" d="M191.63,177.28l4.23-.84c1.52-.3,2.99.68,3.29,2.2.3,1.52-.68,2.99-2.2,3.29h0s-.04,0-.04,0l-4.15.82h-.04c-1.52.31-2.99-.68-3.28-2.2-.3-1.52.68-2.99,2.2-3.28Z"/><path class="cls-6" d="M205.77,174.74l4.26-.62c1.54-.23,2.96.84,3.19,2.37.23,1.54-.84,2.96-2.37,3.19h0s-.04,0-.04,0l-4.18.61h-.04c-1.53.23-2.96-.83-3.18-2.37-.22-1.53.84-2.96,2.37-3.18Z"/><path class="cls-6" d="M219.99,172.88l4.28-.43c1.55-.16,2.93.97,3.09,2.52.16,1.55-.97,2.93-2.52,3.09h0s-.04,0-.04,0l-4.21.42h-.04c-1.55.16-2.93-.97-3.08-2.52s.97-2.93,2.52-3.08Z"/><path class="cls-6" d="M234.28,171.66l4.3-.24c1.56-.09,2.9,1.1,2.98,2.66.09,1.56-1.1,2.9-2.66,2.98h0s-.04,0-.04,0l-4.22.23h-.04c-1.56.09-2.89-1.11-2.98-2.66-.09-1.56,1.1-2.89,2.66-2.98Z"/><path class="cls-6" d="M248.61,171.06l4.3-.06c1.57-.02,2.86,1.23,2.88,2.8.02,1.57-1.23,2.86-2.8,2.88h0s-.04,0-.04,0l-4.23.06h-.04c-1.57.02-2.85-1.23-2.87-2.8-.02-1.57,1.23-2.85,2.79-2.87Z"/><path class="cls-6" d="M262.94,171.07l4.3.12c1.57.04,2.8,1.35,2.76,2.92-.04,1.57-1.35,2.8-2.92,2.76h-.03s-4.23-.11-4.23-.11h-.03c-1.57-.04-2.81-1.35-2.77-2.92.04-1.57,1.35-2.81,2.91-2.77h0Z"/><path class="cls-6" d="M277.26,171.66l4.29.28c1.56.1,2.74,1.45,2.63,3.01-.1,1.56-1.45,2.74-3.01,2.63h-.03s-4.22-.28-4.22-.28h-.03c-1.56-.1-2.74-1.45-2.64-3.01.1-1.56,1.45-2.74,3.01-2.64h0Z"/><path class="cls-6" d="M291.54,172.79l4.27.44c1.55.16,2.67,1.54,2.51,3.09-.16,1.55-1.54,2.67-3.09,2.51h-.03s-4.21-.43-4.21-.43h-.03c-1.55-.16-2.68-1.55-2.52-3.09.16-1.55,1.54-2.68,3.09-2.52h0Z"/><path class="cls-6" d="M305.76,174.44l4.25.59c1.53.21,2.6,1.63,2.39,3.17-.21,1.53-1.63,2.6-3.17,2.39h-.02s-4.2-.58-4.2-.58h-.03c-1.54-.22-2.61-1.63-2.4-3.17.21-1.54,1.63-2.61,3.17-2.4h0Z"/><path class="cls-6" d="M319.92,176.59l4.23.74c1.52.26,2.54,1.71,2.27,3.23-.26,1.52-1.71,2.54-3.23,2.27h-.02s-4.18-.72-4.18-.72h-.03c-1.52-.27-2.54-1.71-2.28-3.24.26-1.52,1.71-2.54,3.23-2.28h0Z"/><path class="cls-6" d="M333.98,179.2l4.2.87c1.5.31,2.47,1.78,2.16,3.29-.31,1.5-1.78,2.47-3.29,2.16h-.02s-4.15-.86-4.15-.86h-.03c-1.51-.31-2.48-1.79-2.17-3.29.31-1.51,1.78-2.48,3.29-2.17h0Z"/><path class="cls-6" d="M347.95,182.25l4.17,1c1.49.36,2.41,1.85,2.05,3.34-.36,1.49-1.85,2.41-3.34,2.05h-.02s-4.13-.98-4.13-.98h-.02c-1.49-.36-2.41-1.86-2.06-3.35.35-1.49,1.85-2.41,3.34-2.06h0Z"/><path class="cls-6" d="M361.83,185.71l4.14,1.12c1.47.4,2.34,1.91,1.95,3.38-.4,1.47-1.91,2.34-3.38,1.95h-.02s-4.1-1.1-4.1-1.1h-.02c-1.47-.4-2.35-1.92-1.95-3.39.4-1.47,1.91-2.35,3.38-1.95h0Z"/><path class="cls-6" d="M375.6,189.57l4.11,1.23c1.45.44,2.28,1.97,1.84,3.42-.44,1.45-1.97,2.28-3.42,1.84h-.02s-4.07-1.22-4.07-1.22h-.02c-1.46-.44-2.29-1.97-1.85-3.43.43-1.46,1.97-2.29,3.42-1.85h0Z"/><path class="cls-6" d="M389.26,193.8l4.08,1.34c1.44.47,2.22,2.02,1.75,3.46-.47,1.44-2.02,2.22-3.45,1.75h-.02s-4.04-1.33-4.04-1.33h-.02c-1.44-.48-2.22-2.02-1.75-3.46.47-1.44,2.02-2.22,3.46-1.75h0Z"/><path class="cls-6" d="M402.8,198.38l4.04,1.44c1.42.51,2.16,2.06,1.65,3.48-.51,1.42-2.06,2.16-3.48,1.65h-.01s-4.01-1.43-4.01-1.43h-.02c-1.42-.51-2.16-2.07-1.66-3.49.5-1.42,2.06-2.16,3.49-1.66h0Z"/><path class="cls-6" d="M416.22,203.29l4,1.53c1.4.54,2.1,2.11,1.56,3.51-.54,1.4-2.11,2.1-3.51,1.56h-.01s-3.97-1.52-3.97-1.52h-.02c-1.4-.54-2.11-2.11-1.57-3.52.54-1.4,2.11-2.11,3.51-1.57h0Z"/><path class="cls-6" d="M429.51,208.51l3.96,1.62c1.38.57,2.04,2.14,1.48,3.53-.57,1.38-2.14,2.04-3.53,1.48h-.01s-3.94-1.61-3.94-1.61h-.02c-1.38-.57-2.05-2.15-1.49-3.53.56-1.38,2.14-2.05,3.53-1.49h0Z"/><path class="cls-6" d="M442.68,214l3.93,1.69c1.37.59,2,2.17,1.41,3.54-.59,1.37-2.17,2-3.54,1.41h0s-3.91-1.68-3.91-1.68h-.01c-1.37-.59-2-2.18-1.42-3.55.59-1.37,2.17-2,3.54-1.42h0Z"/><path class="cls-6" d="M455.74,219.71l3.9,1.75c1.35.61,1.96,2.19,1.35,3.54-.61,1.35-2.19,1.96-3.54,1.35h0s-3.88-1.74-3.88-1.74h0c-1.35-.61-1.96-2.2-1.36-3.55.6-1.35,2.19-1.96,3.55-1.36h0Z"/><path class="cls-6" d="M468.72,225.6l3.88,1.79c1.34.62,1.92,2.21,1.3,3.54-.62,1.34-2.21,1.92-3.54,1.3h0s-3.87-1.78-3.87-1.78h0c-1.34-.62-1.93-2.21-1.31-3.55.62-1.34,2.21-1.93,3.55-1.31h0Z"/><path class="cls-6" d="M481.63,231.61l3.86,1.82c1.33.63,1.9,2.21,1.27,3.54-.63,1.33-2.21,1.9-3.54,1.27l-3.86-1.81c-1.33-.62-1.91-2.21-1.28-3.54.62-1.33,2.21-1.91,3.54-1.28h0Z"/><path class="cls-6" d="M494.49,237.71l3.85,1.84c1.32.63,1.88,2.21,1.25,3.53-.63,1.32-2.21,1.88-3.53,1.25l-3.85-1.83c-1.32-.63-1.89-2.21-1.26-3.53.63-1.32,2.21-1.89,3.53-1.26h0Z"/><path class="cls-6" d="M507.32,243.85l3.85,1.84c1.31.63,1.87,2.2,1.24,3.52-.63,1.31-2.2,1.87-3.51,1.24l-3.85-1.84c-1.32-.63-1.87-2.2-1.25-3.52s2.2-1.87,3.52-1.25h0Z"/><path class="cls-6" d="M520.15,249.98l3.85,1.83c1.31.62,1.87,2.19,1.25,3.5-.62,1.31-2.19,1.87-3.5,1.25l-3.86-1.83c-1.31-.62-1.87-2.19-1.25-3.5.62-1.31,2.19-1.87,3.5-1.25h0Z"/><path class="cls-6" d="M532.99,256.06l3.86,1.81c1.3.61,1.86,2.15,1.25,3.45-.61,1.3-2.15,1.86-3.45,1.26l-3.88-1.8c-1.31-.61-1.87-2.16-1.27-3.46.61-1.31,2.16-1.87,3.46-1.27h.02Z"/><path class="cls-6" d="M545.86,262.06l3.87,1.77h0c1.29.59,1.85,2.12,1.26,3.4-.59,1.29-2.1,1.86-3.39,1.27l-3.89-1.76c-1.3-.59-1.87-2.11-1.28-3.41.59-1.3,2.11-1.87,3.41-1.28h.01s0,0,0,0Z"/><path class="cls-6" d="M558.78,267.92l3.89,1.72h.01c1.28.57,1.86,2.07,1.29,3.34s-2.05,1.86-3.33,1.29l-3.92-1.71c-1.29-.56-1.87-2.06-1.31-3.35.56-1.29,2.06-1.87,3.35-1.31h.01s.01,0,.01,0Z"/><path class="cls-6" d="M571.78,273.59l3.92,1.66h.01c1.27.54,1.86,2.01,1.33,3.28-.54,1.27-1.99,1.87-3.26,1.33l-3.95-1.65c-1.28-.53-1.88-2-1.35-3.28.53-1.28,2-1.88,3.28-1.35h.01s.01,0,.01,0Z"/><path class="cls-6" d="M584.87,279.02l3.95,1.57h.02c1.26.51,1.88,1.94,1.37,3.21-.5,1.26-1.93,1.88-3.19,1.38l-3.99-1.57c-1.27-.5-1.9-1.94-1.4-3.21.5-1.27,1.94-1.9,3.21-1.4h.01s.02.01.02.01Z"/><path class="cls-6" d="M598.06,284.16l3.98,1.48h.02c1.26.47,1.9,1.87,1.43,3.13-.47,1.26-1.85,1.9-3.11,1.43l-4.02-1.47c-1.26-.46-1.91-1.86-1.45-3.13.46-1.27,1.86-1.91,3.13-1.45h.01s.02.01.02.01Z"/><path class="cls-6" d="M611.38,288.97l4.02,1.37h.02c1.25.43,1.92,1.8,1.49,3.05s-1.78,1.92-3.03,1.5l-4.06-1.37c-1.26-.42-1.94-1.79-1.51-3.05.42-1.26,1.79-1.94,3.05-1.51h.01s.02.01.02.01Z"/><path class="cls-6" d="M624.81,293.41l4.05,1.25h.02c1.25.39,1.94,1.71,1.56,2.96-.38,1.25-1.69,1.95-2.94,1.56l-4.1-1.24c-1.25-.38-1.96-1.7-1.58-2.96.38-1.25,1.7-1.96,2.96-1.58h.01s.02,0,.02,0Z"/><path class="cls-6" d="M638.37,297.42l4.09,1.11h.02c1.24.34,1.97,1.62,1.63,2.86-.34,1.24-1.61,1.97-2.85,1.64l-4.15-1.11c-1.25-.33-1.99-1.61-1.66-2.86s1.61-1.99,2.86-1.66h.01s.02,0,.02,0Z"/><path class="cls-6" d="M652.06,300.96l4.13.96h.03c1.23.29,2,1.53,1.71,2.76-.29,1.23-1.51,2-2.74,1.72l-4.19-.95c-1.24-.28-2.02-1.52-1.73-2.76.28-1.24,1.52-2.02,2.76-1.73h.01s.03,0,.03,0Z"/><path class="cls-6" d="M665.86,303.97l4.17.79h.03c1.23.24,2.03,1.42,1.8,2.65-.23,1.23-1.4,2.03-2.63,1.8l-4.23-.78c-1.23-.23-2.05-1.41-1.82-2.64.23-1.23,1.41-2.05,2.64-1.82h.01s.03,0,.03,0Z"/><path class="cls-6" d="M679.78,306.39l4.19.61h.03c1.22.18,2.06,1.31,1.88,2.52-.18,1.22-1.29,2.06-2.51,1.89l-4.25-.59c-1.22-.17-2.08-1.3-1.9-2.52.17-1.22,1.3-2.08,2.52-1.9h.01s.03,0,.03,0Z"/><path class="cls-6" d="M693.78,308.18l4.21.4h.03c1.2.12,2.09,1.19,1.97,2.39-.12,1.2-1.17,2.09-2.38,1.97l-4.28-.39c-1.21-.11-2.1-1.18-1.99-2.39.11-1.21,1.18-2.1,2.39-1.99h.01s.03,0,.03,0Z"/><path class="cls-6" d="M707.84,309.27l4.22.18h.03c1.19.05,2.11,1.06,2.06,2.25-.05,1.19-1.05,2.11-2.24,2.06l-4.29-.17c-1.2-.05-2.13-1.05-2.08-2.25.05-1.2,1.05-2.13,2.25-2.08h.01s.03,0,.03,0Z"/><path class="cls-6" d="M721.93,309.62l4.23-.04h.04c1.17-.01,2.12.93,2.14,2.09.01,1.16-.92,2.11-2.08,2.14l-4.3.08c-1.18.02-2.15-.92-2.17-2.09-.02-1.18.92-2.15,2.09-2.17h.02s.04,0,.04,0Z"/><path class="cls-6" d="M736.02,309.18l4.22-.3h.04c1.13-.08,2.12.77,2.2,1.9.08,1.13-.76,2.11-1.89,2.2l-4.29.35c-1.14.09-2.14-.76-2.23-1.9-.09-1.14.76-2.14,1.9-2.23h.02s.04,0,.04,0Z"/><path class="cls-6" d="M750.04,307.86l4.19-.57h.04c1.09-.15,2.1.61,2.25,1.7.15,1.09-.61,2.09-1.69,2.24l-4.26.62c-1.1.16-2.12-.6-2.28-1.7-.16-1.1.6-2.12,1.7-2.28h.02s.04,0,.04,0Z"/><path class="cls-6" d="M763.95,305.63l4.14-.85h.04c1.05-.22,2.07.45,2.28,1.5.21,1.04-.45,2.06-1.49,2.28l-4.21.9c-1.05.22-2.09-.45-2.32-1.5-.22-1.05.45-2.09,1.5-2.32h.02s.04-.01.04-.01Z"/><path class="cls-6" d="M777.69,302.48l4.08-1.12h.04c1-.28,2.03.3,2.3,1.3.27.99-.31,2.02-1.29,2.3l-4.14,1.18c-1.01.29-2.05-.3-2.34-1.3-.29-1.01.3-2.05,1.3-2.34h.02s.04-.01.04-.01Z"/><path class="cls-6" d="M791.18,298.42l3.99-1.4h.04c.94-.35,1.98.15,2.31,1.1.33.94-.16,1.97-1.09,2.31l-4.05,1.46c-.95.34-2-.15-2.35-1.1-.34-.95.15-2,1.1-2.35h.01s.04-.02.04-.02Z"/><path class="cls-6" d="M804.34,293.4l3.87-1.69.04-.02c.89-.39,1.92.02,2.31.91.38.88-.01,1.91-.89,2.3l-3.93,1.76c-.89.4-1.94,0-2.34-.9s0-1.94.9-2.34h.01s.04-.02.04-.02Z"/><path class="cls-6" d="M817.1,287.43l3.73-1.98.04-.02c.83-.44,1.85-.13,2.29.7.44.82.13,1.84-.69,2.28l-3.79,2.05c-.83.45-1.87.14-2.32-.69-.45-.83-.14-1.87.69-2.32h.01s.04-.03.04-.03Z"/><path class="cls-6" d="M829.34,280.47l3.56-2.28.03-.02c.76-.49,1.77-.27,2.25.49.48.75.27,1.76-.48,2.25l-3.61,2.36c-.76.5-1.79.28-2.28-.48-.5-.76-.28-1.79.48-2.28h.01s.03-.03.03-.03Z"/><path class="cls-6" d="M840.96,272.53l3.35-2.58.03-.03c.69-.53,1.67-.4,2.2.29.53.68.4,1.66-.28,2.2l-3.39,2.66c-.69.54-1.69.42-2.23-.27-.54-.69-.42-1.69.27-2.23h.01s.03-.03.03-.03Z"/><path class="cls-6" d="M851.84,263.59l3.1-2.87.03-.03c.61-.57,1.57-.53,2.14.08.56.61.53,1.56-.07,2.13l-3.13,2.96c-.61.58-1.58.55-2.16-.06-.58-.61-.55-1.58.06-2.16h0s.03-.04.03-.04Z"/><path class="cls-6" d="M861.83,253.68l2.81-3.15.03-.03c.53-.6,1.45-.65,2.05-.12.6.53.65,1.44.13,2.04l-2.84,3.24c-.53.61-1.46.67-2.07.14-.61-.53-.67-1.46-.14-2.07h0s.03-.04.03-.04Z"/></g></svg>