<?xml version="1.0" encoding="UTF-8"?><svg id="Layer_2" xmlns="http://www.w3.org/2000/svg" viewBox="0 0 677.39 1047.49"><defs><style>.cls-1{fill:#f4f4f4;}.cls-2{fill:#310000;}.cls-3{fill:#fff;}.cls-4{opacity:.72;}.cls-5{fill:#bca58e;}</style></defs><g id="Illustration"><path d="M465.27,862.41c-.45-5.6-6.17-10.44-15.84-14.32,10.52-5.8,16.34-12.02,15.84-18.11-1.49-18.45-59.91-28.79-130.49-23.1-70.58,5.69-126.59,25.26-125.1,43.71.45,5.6,6.17,10.44,15.84,14.32-10.52,5.8-16.34,12.02-15.84,18.11.45,5.6,6.17,10.44,15.84,14.32-10.52,5.8-16.34,12.02-15.84,18.11.45,5.6,6.17,10.44,15.84,14.32-10.52,5.8-16.34,12.02-15.84,18.11.66,8.16,12.47,14.73,31.52,19.03-.25,6.03-.11,12.64.48,19.93,2.76,33.99,41,60.65,91.57,60.65s94.34-36.34,94.84-70.44c.12-8.36-.23-15.71-.99-22.25,24.2-8.08,38.94-17.95,38.16-27.52-.45-5.6-6.17-10.44-15.84-14.32,10.52-5.8,16.34-12.02,15.84-18.11-.45-5.6-6.17-10.44-15.84-14.32,10.52-5.8,16.34-12.02,15.84-18.11Z"/><path class="cls-5" d="M302.12,974.25c-20.96,0-40.14-1.54-55.99-4.58-.92-.18-1.52-1.06-1.35-1.98.18-.92,1.06-1.52,1.98-1.35,24.8,4.75,57.92,5.79,93.26,2.94,28.92-2.33,55.97-7,78.21-13.49.9-.26,1.84.25,2.1,1.15s-.25,1.84-1.15,2.1c-22.47,6.56-49.74,11.26-78.89,13.61-13.13,1.06-25.96,1.58-38.18,1.58Z"/><path class="cls-5" d="M302.47,941.79c-27.23,0-51.57-2.56-68.74-7.45-.9-.26-1.42-1.19-1.17-2.1.26-.9,1.19-1.42,2.09-1.17,24.46,6.97,63.85,9.12,105.37,5.78,41.07-3.31,79.37-11.64,102.45-22.29.85-.39,1.86-.02,2.25.83.39.85.02,1.86-.83,2.25-23.43,10.8-62.16,19.25-103.6,22.59-12.93,1.04-25.67,1.55-37.83,1.55Z"/><path class="cls-5" d="M302.13,909.38c-29.41,0-55.14-3.01-72.46-8.72-.89-.29-1.37-1.25-1.08-2.14.29-.89,1.25-1.37,2.14-1.08,24.1,7.95,64.96,10.56,109.3,6.98,41.06-3.31,79.36-11.64,102.45-22.29.85-.39,1.86-.02,2.25.83.39.85.02,1.86-.83,2.25-23.43,10.81-62.16,19.25-103.6,22.59-13.13,1.06-25.97,1.58-38.18,1.58Z"/><path class="cls-5" d="M302.35,876.93c-23.33,0-44.54-1.89-61.03-5.55-.91-.2-1.49-1.11-1.29-2.02.2-.91,1.11-1.49,2.02-1.29,24.8,5.51,60.51,6.94,97.98,3.92,40.7-3.28,78.8-11.52,101.93-22.05.85-.39,1.86-.01,2.25.84.39.85.01,1.86-.84,2.24-23.46,10.68-61.99,19.03-103.06,22.35-12.98,1.05-25.75,1.56-37.95,1.56Z"/><path class="cls-1" d="M162.31,698.69c-8.57-30.36-23.13-58.74-42.74-83.45C77.55,562.28,9,454.59.57,307.6-11.71,93.81,177.9-13.22,350.93,1.31c173.02,14.53,343.75,143.36,325.06,342.25-11.5,122.38-80,215.21-131,268.51-32.39,33.85-55.49,75.31-67.99,120.46-15.31,55.26-51.73,124.12-138.3,128.32-112.02,5.43-158.55-98.99-176.39-162.17Z"/><path class="cls-2" d="M367.31,818.22l60.54-393.76c1.25-8.13,5.25-13.6,8.94-12.2,3.69,1.4,5.66,9.12,4.41,17.26-.03.22-.08.48-.11.7l-68.96,390.1c-.52,2.93-2.01,4.79-3.33,4.14-1.28-.63-1.93-3.39-1.49-6.23Z"/><path class="cls-2" d="M304.47,821.35l-60.54-393.76c-1.25-8.13-5.25-13.6-8.94-12.2-3.69,1.4-5.66,9.12-4.41,17.26.03.22.08.48.11.7l68.96,390.1c.52,2.93,2.01,4.79,3.33,4.14,1.28-.63,1.93-3.39,1.49-6.23Z"/><path class="cls-2" d="M427.42,390.65c-1.54-2.47-5.09-3.4-7.95-2.06l-33.71,15.75-11.7-33.34c-.62-1.74-2.05-3.28-4.1-4.12-3.88-1.6-8.52-.17-10.36,3.19l-.06.11-27.72,50.55-25.73-71.96-.04-.12c-.63-1.76-1.96-3.33-3.89-4.39-4.31-2.35-10.01-1.23-12.73,2.51l-38.76,53.35c-1.58,2.19-1.03,5.12,1.37,6.73,2.56,1.73,6.25,1.32,8.24-.9l34.12-38.07,30.72,68.45.02.05c.49,1.1,1.42,2.05,2.71,2.65,2.88,1.35,6.48.42,8.04-2.08l29.65-47.58,11.16,24.06.1.21c.08.17.17.34.28.51,1.54,2.47,5.09,3.39,7.94,2.06l40.01-18.7c2.85-1.33,3.92-4.42,2.38-6.89Z"/><g class="cls-4"><path class="cls-3" d="M546.31,560.7c-1.47,0-2.95-.45-4.21-1.4-3.14-2.33-3.79-6.76-1.46-9.9,10.31-13.89,19.78-28.26,28.12-42.71,1.96-3.38,6.29-4.55,9.67-2.59,3.38,1.95,4.55,6.28,2.59,9.67-8.61,14.92-18.38,29.75-29.02,44.08-1.39,1.87-3.52,2.86-5.69,2.86Z"/></g></g></svg>