<?xml version="1.0" encoding="UTF-8"?><svg id="Layer_2" xmlns="http://www.w3.org/2000/svg" viewBox="0 0 1691.7 345.2"><defs><style>.cls-1{fill:#310000;}</style></defs><g id="Illustration"><path class="cls-1" d="M1566.67,1.49L1298.77,0c-10.97-.06-17.78,11.9-12.13,21.3l1.35,2.24c2.54,4.23,7.12,6.82,12.06,6.82h266.55c7.77,0,14.06-6.3,14.06-14.06v-.75c0-7.74-6.25-14.02-13.98-14.06Z"/><path class="cls-1" d="M1604.09,15.87v.44c0,7.77,6.3,14.06,14.06,14.06h59.47c6.37,0,11.94-4.28,13.59-10.43h0c2.37-8.89-4.28-17.62-13.48-17.69l-59.47-.44c-7.81-.06-14.17,6.26-14.17,14.06Z"/><path class="cls-1" d="M1502.23,51.97l-203.46-1.49c-10.97-.06-17.78,11.9-12.13,21.3l1.35,2.24c2.54,4.23,7.12,6.82,12.06,6.82h202.11c7.77,0,14.06-6.3,14.06-14.06v-.75c0-7.74-6.25-14.02-13.98-14.06Z"/><path class="cls-1" d="M1539.65,66.35v.44c0,7.77,6.3,14.06,14.06,14.06h59.47c6.37,0,11.94-4.28,13.59-10.43h0c2.37-8.89-4.28-17.62-13.48-17.69l-59.47-.44c-7.81-.06-14.17,6.26-14.17,14.06Z"/><path class="cls-1" d="M282.06,265.85l-267.9-1.49c-10.97-.06-17.78,11.9-12.13,21.3l1.35,2.24c2.54,4.23,7.12,6.82,12.06,6.82h266.56c7.77,0,14.06-6.3,14.06-14.06v-.75c0-7.74-6.25-14.02-13.98-14.06Z"/><path class="cls-1" d="M319.49,280.22v.44c0,7.77,6.3,14.06,14.06,14.06h59.47c6.37,0,11.94-4.28,13.59-10.43h0c2.37-8.89-4.28-17.62-13.48-17.69l-59.47-.44c-7.81-.06-14.17,6.26-14.17,14.06Z"/><path class="cls-1" d="M217.62,316.32l-203.46-1.49c-10.97-.06-17.78,11.9-12.13,21.3l1.35,2.24c2.54,4.23,7.12,6.82,12.06,6.82h202.11c7.77,0,14.06-6.3,14.06-14.06v-.75c0-7.74-6.25-14.02-13.98-14.06Z"/><path class="cls-1" d="M255.04,330.7v.44c0,7.77,6.3,14.06,14.06,14.06h59.47c6.37,0,11.94-4.28,13.59-10.43h0c2.37-8.89-4.28-17.62-13.48-17.69l-59.47-.44c-7.81-.06-14.17,6.26-14.17,14.06Z"/></g></svg>