<?xml version="1.0" encoding="UTF-8"?><svg id="Layer_2" xmlns="http://www.w3.org/2000/svg" viewBox="0 0 106.5 98.62"><defs><style>.cls-1{fill:#fff;}</style></defs><g id="Layer_1-2"><path class="cls-1" d="M99.36,18.25c-.08-.18-.19-.35-.32-.5l-.11-.11c-.7-.75-1.75-1.06-2.74-.81-1.01.26-1.8,1.05-2.06,2.06-.23.88-.7,1.68-1.37,2.3-1.32,1.23-3.2,1.62-4.9,1.03-1.84-.64-3.09-2.31-3.43-4.56-.02-.12-.01-.24.01-.35.54-2.42,2.04-4.03,4.13-4.41,1.03-.19,1.87-.92,2.2-1.91.32-.96.08-2.03-.61-2.77l-6.87-7.36c-.39-.41-.88-.7-1.42-.82-.14-.03-.29-.05-.44-.05-.69.02-1.34.28-1.84.73l-6.54,5.96c-.38-.89-.9-1.7-1.57-2.41-3.06-3.28-8.28-3.52-11.68-.5-3.3,3.15-3.47,8.27-.4,11.64.66.72,1.42,1.31,2.28,1.76l-6.46,6.03c-.16.14-.26.29-.32.38-.32.43-.52.92-.57,1.42-.01.15-.01.29.01.44.08.56.33,1.07.71,1.48l6.78,7.44c.69.75,1.73,1.08,2.71.84,1.01-.25,1.81-1.03,2.08-2.04.55-2.05,2.27-3.42,4.72-3.76.12-.02.24,0,.35.02,2.23.52,3.79,1.9,4.28,3.79.46,1.75-.09,3.59-1.42,4.8-.67.62-1.51,1.02-2.4,1.18-1.04.18-1.89.9-2.22,1.89-.33.97-.11,2.04.58,2.8l.1.11c.13.15.29.27.47.37l6.49,6.96c.45.48,1.06.8,1.73.88.07,0,.14.01.21.01.08,0,.16,0,.24-.02.31-.04.61-.14.92-.31.14-.08.36-.2.58-.4l7.09-6.46c.09-.08.17-.17.24-.26.52-.71.68-1.64.42-2.49-.25-.83-.86-1.49-1.67-1.8-.71-.27-1.33-.69-1.85-1.26-.9-.98-1.34-2.26-1.25-3.59.09-1.33.71-2.54,1.74-3.39.05-.04.09-.08.13-.12.94-.96,2.19-1.44,3.52-1.46,1.33.02,2.57.56,3.48,1.54.52.56.89,1.21,1.1,1.94.24.83.84,1.49,1.66,1.81.82.32,1.76.24,2.51-.23.1-.06.19-.13.28-.21l7.02-6.55c.41-.38.69-.87.82-1.42.04-.15.05-.31.05-.47-.03-.67-.29-1.31-.73-1.8l-6.41-7.04ZM97.14,32.11c-.37-.84-.88-1.61-1.52-2.29-1.57-1.68-3.69-2.62-5.99-2.65-2.28-.02-4.4.84-6,2.44-1.73,1.47-2.77,3.52-2.92,5.79-.16,2.29.61,4.49,2.15,6.18.62.68,1.36,1.26,2.17,1.7l-5.52,5.04-5.58-5.97c1.09-.37,2.09-.95,2.94-1.73,2.3-2.09,3.24-5.26,2.45-8.27-.82-3.14-3.38-5.5-6.87-6.32-.52-.12-1.08-.15-1.62-.08-3.42.47-6.05,2.39-7.24,5.2l-5.41-5.93,6.42-5.99c.27-.25.49-.55.65-.9.39-.7.47-1.52.22-2.28-.26-.8-.87-1.43-1.65-1.72-.71-.27-1.34-.69-1.85-1.26-1.78-1.96-1.68-4.92.19-6.71,1.95-1.73,4.97-1.59,6.75.32.52.56.89,1.21,1.1,1.94.23.8.81,1.45,1.58,1.78.74.31,1.56.3,2.29-.03.36-.13.67-.32.94-.56l6.5-5.92,5.48,5.87c-2.9.96-5.02,3.43-5.77,6.8-.12.52-.13,1.08-.06,1.62.53,3.54,2.68,6.29,5.74,7.36,2.94,1.02,6.17.34,8.44-1.78.84-.79,1.51-1.74,1.96-2.79l5.5,6.04-5.46,5.1Z"/><path class="cls-1" d="M11.25,95.81c.01,1.55,1.28,2.81,2.83,2.81h.02l32.55-.19c.09,0,.17-.02.25-.03.34.14.72.22,1.11.22l10.1-.06c.12,0,.23-.01.35-.04.86-.18,1.6-.76,1.97-1.55.38-.79.37-1.7-.04-2.48-.51-1-1.11-3.06.63-5.61.06-.09.15-.18.25-.25,1.12-.78,2.28-1.17,3.44-1.17,2.65,0,4.82,2.16,4.84,4.81,0,.77-.17,1.5-.51,2.18-.39.78-.39,1.67,0,2.46.39.79,1.13,1.37,2,1.54.11.02.22.04.35.03l9.59-.06c.76,0,1.47-.3,2-.84.53-.54.82-1.25.81-2l-.06-10.02c0-1.57-1.25-2.8-2.83-2.8-.55,0-1.09.16-1.56.46-.77.49-1.66.75-2.6.76-1.8,0-3.43-.99-4.28-2.58-.91-1.72-.7-3.79.58-5.67.06-.09.15-.18.25-.25,1.13-.79,2.29-1.18,3.46-1.18.91,0,1.8.26,2.57.74,1.1.7,2.63.52,3.54-.38.52-.53.81-1.23.8-1.98l-.06-10.07c-.01-1.55-1.28-2.81-2.84-2.81l-8.61.05c.3-.88.45-1.8.45-2.75-.03-4.57-3.77-8.29-8.34-8.29-1.84,0-3.7.61-5.38,1.76.26-.35.5-.72.71-1.11,1.49-2.88,1.17-6.34-.86-9.27-.3-.44-.7-.84-1.15-1.14-2.57-1.75-5.58-2.21-8.18-1.28l-.05-8.61c0-1.55-1.28-2.81-2.84-2.81l-8.63.05c.95-2.66.48-5.61-1.35-8.23-.3-.43-.7-.82-1.15-1.13-1.68-1.14-3.53-1.74-5.36-1.74h0c-2.24,0-4.34.87-5.91,2.46s-2.44,3.69-2.43,5.93c0,.96.18,1.91.51,2.81l-8.64.05c-.75,0-1.46.3-1.99.84-.53.54-.82,1.25-.82,2l.06,10.1c0,.12.01.23.04.35.27,1.3,1.43,2.25,2.76,2.25.44,0,.87-.1,1.27-.31,1.71-.87,3.73-.65,5.61.62.09.06.18.15.25.25,1.3,1.87,1.53,3.94.63,5.67-.83,1.6-2.47,2.6-4.3,2.61-.75,0-1.47-.17-2.15-.51-.39-.19-.8-.29-1.23-.29-1.34,0-2.5.96-2.76,2.29-.02.12-.03.23-.03.35l.05,9.59c0,.27.07.52.18.74,0,.04-.02.08-.02.13l.05,8.25c-2.66-.95-5.61-.48-8.23,1.35-.44.31-.83.7-1.13,1.15-2,2.96-2.29,6.43-.76,9.29,1.46,2.74,4.31,4.43,7.41,4.42.96,0,1.91-.18,2.81-.51l.05,8.64ZM59.82,62.08c.51-.84.55-1.86.1-2.73-.51-1-1.11-3.06.63-5.6.07-.1.16-.19.25-.25,1.12-.78,2.28-1.17,3.44-1.17,2.65,0,4.82,2.16,4.84,4.81,0,.77-.17,1.5-.5,2.18-.43.86-.39,1.87.12,2.7.52.84,1.43,1.35,2.44,1.35l8.96-.05.05,8.22c-2.75-1.23-6.08-.85-8.85,1.08-.44.31-.84.71-1.15,1.16-2,2.95-2.29,6.42-.78,9.28,1.45,2.74,4.27,4.44,7.42,4.44,1.2,0,2.37-.27,3.44-.77l.05,8.22-7.68.04c.29-.87.45-1.79.44-2.72-.03-4.57-3.77-8.29-8.34-8.29-1.86,0-3.74.62-5.44,1.8-.44.31-.84.7-1.14,1.15-1.78,2.61-2.23,5.52-1.29,8.15l-8.18.05-.05-8.99c0-1.56-1.27-2.82-2.82-2.82-.45,0-.89.11-1.29.32-.69.36-1.44.55-2.25.56-1.8,0-3.44-.99-4.28-2.58-.91-1.72-.7-3.78.57-5.66.07-.1.15-.18.24-.25,1.88-1.31,3.94-1.54,5.64-.67,1.06.55,2.43.32,3.28-.53.53-.54.82-1.25.82-2.01l-.05-8.99,8.96-.05c.99,0,1.89-.51,2.4-1.36ZM56.38,59.94l-6.88.04-.04-6.47c.87.3,1.78.45,2.75.45,1.98-.01,3.84-.72,5.3-1.95-1.65,2.55-2.05,5.38-1.13,7.93ZM17.06,54.43c3.11-.02,5.92-1.74,7.35-4.5,1.49-2.88,1.17-6.34-.87-9.28-.31-.44-.7-.84-1.15-1.14-2.57-1.75-5.57-2.21-8.15-1.29l-.05-8.18,8.99-.05c1,0,1.9-.53,2.42-1.39.5-.84.53-1.86.08-2.72-.36-.69-.55-1.44-.56-2.22,0-1.3.49-2.52,1.41-3.44.92-.92,2.13-1.43,3.44-1.43h0c1.14,0,2.28.38,3.39,1.13.1.07.18.15.25.24,1.3,1.87,1.55,3.92.67,5.65-.44.88-.4,1.9.11,2.74.52.85,1.42,1.35,2.43,1.35l8.99-.05.05,8.96c0,1.55,1.27,2.81,2.82,2.81.43,0,.87-.1,1.28-.31,1.69-.87,3.73-.65,5.6.62.1.07.18.15.25.25,1.3,1.87,1.53,3.94.63,5.67-.83,1.6-2.47,2.6-4.3,2.61-.75,0-1.48-.17-2.13-.5-1.04-.54-2.41-.31-3.24.54-.54.54-.83,1.26-.83,2.02l.05,8.17c-.17.15-.33.32-.47.51h0s0,0,0,0c-.07.09-.12.18-.17.28l-8.6.05c-.4,0-.74-.2-.93-.53-.19-.35-.18-.78.04-1.12,1.5-2.38,1.32-5.35-.49-7.97-.18-.26-.42-.49-.69-.68-1.41-.96-2.89-1.45-4.39-1.45-1.77,0-3.43.69-4.67,1.94-1.25,1.25-1.93,2.92-1.92,4.69,0,1.25.37,2.46,1.04,3.5.22.35.24.78.05,1.14-.18.34-.54.55-.93.55l-9.49.06-.04-7.68c.86.29,1.76.44,2.72.44ZM8.36,84.18c-1.8-.02-3.45-.97-4.3-2.56-.92-1.72-.71-3.79.57-5.68.06-.09.14-.17.24-.24,1.87-1.3,3.92-1.55,5.65-.67.88.45,1.91.4,2.75-.12.85-.52,1.35-1.43,1.34-2.43l-.04-7.32,9.33-.05c1.66-.01,3.19-.92,3.98-2.38.8-1.48.73-3.28-.18-4.7-.31-.49-.48-1.05-.48-1.64,0-.83.31-1.61.9-2.2,1.11-1.12,2.87-1.21,4.5-.15.57.87,1.28,2.44.32,3.97-.9,1.42-.96,3.21-.15,4.68.8,1.45,2.33,2.34,4,2.34l8.21-.05.04,6.49c-2.64-.93-5.67-.44-8.24,1.35-.43.3-.82.7-1.13,1.15-2,2.95-2.29,6.42-.77,9.27,1.45,2.73,4.28,4.44,7.42,4.44.96,0,1.91-.18,2.81-.51l.04,7.51c-.07.08-.14.16-.2.25l-30.21.18-.05-8.99c0-1-.52-1.91-1.39-2.42-.84-.5-1.86-.53-2.72-.08-.69.37-1.44.55-2.22.56Z"/></g></svg>