<?xml version="1.0" encoding="UTF-8"?><svg id="Layer_2" xmlns="http://www.w3.org/2000/svg" viewBox="0 0 62.97 117.54"><defs><style>.cls-1{fill:#fff;}</style></defs><g id="Layer_1-2"><path class="cls-1" d="M.96,109.01h.43c2.81,5.86,17.39,8.53,29.85,8.53s27.04-2.67,29.85-8.53h.47v-39.56c.94-1.05,1.41-2.17,1.41-3.34,0-2.63-2.39-4.79-6.2-6.46V4.24c0-2.34-1.9-4.24-4.25-4.24h-16.67c-2.34,0-4.24,1.9-4.24,4.24v51.31h-.13c-1.37,0-2.74.03-4.11.09l-2.96-26.4c-.07-.62-.43-1.18-.94-1.44l-6.62-14.58c-.33-.73-.93-1.14-1.55-1.07-.62.07-1.11.6-1.28,1.39l-3.21,15.66c-.11.09-.21.2-.31.35l-.04.06c-.22.33-.31.76-.26,1.22l2.99,26.6c-7.65,1.74-13.19,4.67-13.19,8.68,0,.93.31,1.84.91,2.71v38.61l.04,1.58ZM56.77,63.09c2.16,1.13,3.02,2.23,3.02,3.02s-.86,1.89-3.02,3.02v-6.04ZM34.05,4.24c0-1,.81-1.81,1.81-1.81h16.67c1,0,1.81.81,1.81,1.81v12.48h-6.72c-.31,0-.58.12-.77.34-.16.19-.25.45-.25.72,0,.52.35,1.05,1.03,1.05h6.72v4.29h-6.72c-.31,0-.58.12-.77.34-.16.19-.25.45-.25.72,0,.52.35,1.05,1.03,1.05h6.72v4.29h-6.72c-.31,0-.58.12-.77.34-.16.19-.25.45-.25.72,0,.52.35,1.05,1.03,1.05h6.72v4.29h-11.57c-.32,0-.58.12-.77.34-.16.19-.25.45-.25.72,0,.52.35,1.05,1.03,1.05h11.57v4.29h-6.72c-.31,0-.58.12-.77.34-.16.19-.25.45-.25.72,0,.52.35,1.05,1.03,1.05h6.72v4.29h-6.72c-.31,0-.58.12-.77.34-.16.19-.25.45-.25.72,0,.52.35,1.05,1.03,1.05h6.72v4.29h-6.72c-.31,0-.58.12-.77.34-.16.19-.25.45-.25.72,0,.52.35,1.05,1.03,1.05h6.72v4.29h-11.57c-.32,0-.58.12-.77.34-.16.19-.25.45-.25.72,0,.52.35,1.05,1.03,1.05h11.57v4.29h-6.72c-.31,0-.58.12-.77.34-.16.19-.25.45-.25.72,0,.52.35,1.05,1.03,1.05h6.72v.25c-.58.16-1.16.34-1.73.52-1.54.47-3.13.96-4.79,1.19h0c-.46.06-.9.18-1.29.35-4.02.63-8.09.97-12.46,1.05V4.24ZM31.48,58.73s.09,0,.13,0v14.76s-.09,0-.13,0c-.71,0-1.41-.02-2.11-.03l-1.64-14.65c1.24-.05,2.49-.08,3.76-.08ZM31.48,76.67c11.12,0,21.36-1.85,26.9-4.84l-.02,35.35c-.25,1.64-3.22,3.44-7.93,4.81-5.26,1.53-12.08,2.37-19.21,2.37s-13.95-.84-19.2-2.37c-4.71-1.37-7.67-3.17-7.93-4.82l-.02-35.63c5.36,3.12,16.03,5.12,27.4,5.12ZM15.21,22.69l2.52-.28,2.25,4.96-5.86.66,1.09-5.33ZM21.66,31.31l4.71,41.93c-1.7-.08-3.56-.22-5.8-.42-.32-.08-.65-.12-.96-.12-.07,0-.14,0-.21,0l-.67-.06c-.29-.03-.59-.05-.85-.08l-4.53-40.33,8.32-.93ZM10.65,61.33c.91-.28,1.89-.53,2.89-.76l1.28,11.37c-1.48-.31-2.88-.66-4.17-1.05-5.51-1.68-7.48-3.57-7.48-4.78s1.96-3.09,7.48-4.78Z"/><path class="cls-1" d="M44.19,12.2c1.93,0,3.5-1.57,3.5-3.5s-1.57-3.5-3.5-3.5-3.5,1.57-3.5,3.5c0,1.45.88,2.69,2.14,3.22.42.18.88.28,1.36.28ZM44.19,7.64c.58,0,1.06.48,1.06,1.06s-.48,1.06-1.06,1.06-1.06-.48-1.06-1.06.48-1.06,1.06-1.06Z"/></g></svg>