<?xml version="1.0" encoding="UTF-8"?><svg id="Layer_2" xmlns="http://www.w3.org/2000/svg" viewBox="0 0 938.83 923.22"><defs><style>.cls-1{fill:#310000;}.cls-2{fill:#7d97f4;}.cls-3{fill:#443b34;}.cls-4{fill:#bca58e;}.cls-5{fill:#031000;}</style></defs><g id="Illustration"><rect class="cls-2" x="365.45" y="596.88" width="24.67" height="266.79" transform="translate(755.57 1460.54) rotate(180)"/><path class="cls-2" d="M269.75,852.75h216.07v11.39c0,2.58-2.09,4.67-4.67,4.67h-207.07c-2.39,0-4.33-1.94-4.33-4.33v-11.73h0Z" transform="translate(755.57 1721.55) rotate(180)"/><rect class="cls-2" x="228.89" y="533.35" width="288.72" height="81.88" rx="28.19" ry="28.19"/><path d="M515.19,816.4s70.44,50.78,58.21,84.89c0,0-77.08-33.26-86.39-59.45-9.31-26.2,1.58-37.77,1.58-37.77l26.6,12.33Z"/><path class="cls-3" d="M504.6,773.84l-11.52,33.3c-1.74,5.03,0,10.75,4.5,13.59,2.25,1.42,5.33,2.74,9.53,3.69,5.93,1.35,12.06-1.4,14.91-6.77l13.78-25.95-31.2-17.86Z"/><path d="M392.51,474.12s144.69,25.08,206.76,82.41c62.07,57.34-56.97,240.23-56.97,240.23,0,0-19.5-.12-43.14-20.38,0,0,70.58-137.55,9.75-177.67-68.38-45.1-147.19-55.25-147.19-55.25l29.39-64.92,1.4-4.42Z"/><path d="M561.16,882.42c-15.49-7.17-59.36-37.87-66.75-39.23-7.39-1.35-20.22,7.33-20.22,7.33,0,0-3.12,5.61.22,15.4,10.3,12.46,33.16,36.21,63.89,45.06,22.61,6.51,38.42.44,48.27-6.66-5.42-8.25-15.08-17.12-25.4-21.9Z"/><path d="M538.29,910.98c-30.73-8.85-53.59-32.6-63.89-45.06,2.26,6.61,7.45,15.13,18.56,25.12,27.55,24.76,80.18,33.69,91.38,31.97,8.98-1.38,8.13-9.67,2.21-18.69-9.85,7.1-25.66,13.17-48.27,6.66Z"/><path class="cls-3" d="M461.05,828.85c.17,4.27,8.9,18.91,14,27.12,2.42,3.9,6.67,6.29,11.26,6.3,2.91,0,6.26-.25,9.31-1.12,4.57-1.31,7.13-6.18,5.8-10.74l-9.96-34.02-30.4,12.46Z"/><path d="M253.23,430.68s-32.13,85.92,0,112.05c32.13,26.13,108.79,55.55,125.92,107.59,17.12,52.04,46.18,153.19,85.07,189.01,0,0,27.32-2.65,37.55-13.53,0,0-22.15-150.99-36.76-189.74-12.65-33.55-31.29-81.98-67.01-109.05-10.22-7.75-8.44-20.02-3.7-31.94l8.63-21.71-149.7-42.68Z"/><path class="cls-1" d="M588.36,363.34c-53.88,3.25-37.09-82.83-36.12-86.25l-81.77,57.76s4.33,46.03,72.32,70.18c17.2,6.11,32.92,6.38,46.82,3.39-5.93-17.28-4.72-32.79-1.25-45.08Z"/><path class="cls-3" d="M692.54,337.43c-20.08-13.97-42.82,0-42.82,0-26.85,17.56-46.71,25.02-61.36,25.91-3.48,12.28-4.68,27.79,1.25,45.08,30.07-6.46,51.59-28.23,60.94-39.4,3.37-4.02,9.33-4.72,13.44-1.47,4.18,3.3,8.24,7.82,7.5,12.58-1.45,9.38,9.44,12.37,10.26,8.96.82-3.4-3.72-23.57-3.72-23.57,0,0,21.77,21.9,30.27,30.31,8.5,8.41,19.19,0,19.19,0,0,0-14.87-44.43-34.95-58.39Z"/><path class="cls-1" d="M337.13,144.16s78.38-31.38,224.26,89.05c0,0,12.18,25.22-1.11,47.67-13.29,22.45-139.95,131.83-157.35,192.49,0,0-75.46,24.52-153.49-33.62,0,0,6.89-168.82,87.69-295.59Z"/><path class="cls-3" d="M492.09,116.15l-38.59,46.78c-3.83,4.64-4.68,11.11-2.03,16.51,5.36,10.93,18.06,26.83,46.25,24.63,8.38-.65,15.81-5.71,19.47-13.28l26.98-55.78-52.09-18.86Z"/><path class="cls-1" d="M276.45,344.5c-9.1-37.06,83.07-119.68,83.07-119.68l-22.38-80.66s-199.03,132.49-148.31,239.04c7.27,15.27,16.93,25.97,28.12,33.13,16.03-43.14,41.57-62.92,59.5-71.82Z"/><path class="cls-5" d="M276.38,339.1c-.98,0-1.87-.66-2.11-1.66-9.31-37.89,79.93-118.41,83.73-121.82.89-.8,2.27-.73,3.08.17.8.9.73,2.27-.17,3.08-.91.82-91.1,82.16-82.41,117.54.29,1.17-.43,2.35-1.6,2.63-.17.04-.35.06-.52.06Z"/><path class="cls-3" d="M416.05,341.31s-109.28,42.43-135.95,10.51c-1.81-2.16-2.99-4.63-3.65-7.32-17.93,8.9-43.47,28.69-59.5,71.82,57.47,36.73,155.71-20.43,182.28-37.28,4.37-2.77,9.61-3.74,14.68-2.69,10.25,2.12,27.94,5.25,37.49,3.78,13.96-2.15,34.02,47.11,56.66,31.91,0,0-19.38-85.62-92-70.73Z"/><path class="cls-3" d="M576.05,47.44c.39,1.5-9.05,103.76-9.05,103.76l-58.27-6.63-5.46-98.25s66.28-24.06,72.78,1.11Z"/><path d="M518.45,66.69l-1.18,51.94c-.02.67.06,1.31.22,1.96,1.01,3.95,5.5,17.28,18.86,11.86,12.13-4.92,23.26-9.23,31.46-7.67,3.68.7,6.22,4.07,5.88,7.79-.86,9.29-3.18,30.19-7.97,48.04-.97,3.62-4.58,5.86-8.27,5.21-11.13-1.96-34.48-6.75-52.37-15.01-2.42-1.12-4.05-3.44-4.23-6.11-.87-12.98-3.67-52.44-6.15-63.31-2.33-10.21-15.69-15.01-21.45-16.62-1.89-.53-3.46-1.8-4.38-3.53-3.25-6.12-8.4-20.53,9.59-28.64,3.76-1.7,5.36-6.13,3.55-9.84-3.61-7.39-6.06-19,7.66-27.05,13.95-8.18,25.76-1.57,32.37,4.14,2.67,2.31,6.55,2.28,9.32.08,1.57-1.25,3.71-1.84,6.52-.49,3.79,1.82,8.31-.2,9.73-4.15,2.72-7.59,9.03-16.1,23.66-15.22,25.96,1.57,31.94,29.49,27.04,46.77-4.91,17.28-32.95,13.98-47.59,7.15-11.13-5.2-23.94,2.94-29.43,7.13-1.74,1.33-2.77,3.38-2.82,5.57Z"/><path class="cls-3" d="M494.46,120.32s7.26-30.48-4.29-36.48c-11.55-6-27.08-.52-21.24,20.34,7.27,25.95,25.53,16.14,25.53,16.14Z"/><path class="cls-4" d="M472.03,424.98c.18,0,.35.01.53.01l229.28-.25c5.67,0,10.26-4.6,10.25-10.27,0-5.67-4.62-10.35-10.27-10.25l-229.28.25c-5.67,0-10.26,4.6-10.25,10.27,0,5.49,4.32,9.97,9.75,10.24Z"/><path class="cls-4" d="M907.96,216.8h-190.95c-14.09,0-26.91,8.13-32.92,20.87l-88.27,187.18h237.3c9.08,0,17.23-5.55,20.57-13.99l68.45-173.21c3.96-10.01-3.42-20.85-14.18-20.85Z"/><ellipse class="cls-1" cx="787.75" cy="317.38" rx="24.45" ry="15.04" transform="translate(244.27 970.01) rotate(-72.16)"/><path class="cls-1" d="M877,916.74c1.27,0,2.56-.25,3.8-.76,4.89-2.04,7.15-7.52,5.04-12.25l-202.07-454.78c-2.1-4.73-7.77-6.92-12.66-4.88-4.89,2.04-7.15,7.52-5.04,12.25l202.07,454.78c1.57,3.53,5.12,5.64,8.86,5.64Z"/><path class="cls-1" d="M649.36,916.74c3.73,0,7.29-2.11,8.86-5.64l202.07-454.78c2.1-4.73-.16-10.22-5.04-12.25-4.88-2.04-10.55.15-12.66,4.88l-202.07,454.78c-2.1,4.73.16,10.22,5.04,12.25,1.24.52,2.53.76,3.8.76Z"/><path class="cls-1" d="M251.51,916.74c1.27,0,2.56-.25,3.8-.76,4.89-2.04,7.15-7.52,5.04-12.25L58.28,448.95c-2.1-4.73-7.76-6.92-12.66-4.88-4.89,2.04-7.15,7.52-5.04,12.25l202.07,454.78c1.57,3.53,5.12,5.64,8.86,5.64Z"/><path class="cls-1" d="M23.87,916.74c3.73,0,7.29-2.11,8.86-5.64l202.07-454.78c2.1-4.73-.16-10.22-5.04-12.25-4.88-2.04-10.55.15-12.66,4.88L15.02,903.73c-2.1,4.73.16,10.22,5.04,12.25,1.24.52,2.53.76,3.8.76Z"/><path class="cls-1" d="M.17,434.91c-.52-2.98.19-6.07,1.91-8.41,1.73-2.34,4.3-3.7,7.01-3.7h919.27c3.57,0,6.89,2.04,8.81,5.4s2.18,7.6.68,11.22l-9.96,24.14c-2.28,5.53-7.22,9.07-12.66,9.07H15.4c-5.06,0-9.41-4.02-10.37-9.58L.17,434.91Z"/></g></svg>