<?xml version="1.0" encoding="UTF-8"?><svg id="Illustration" xmlns="http://www.w3.org/2000/svg" xmlns:xlink="http://www.w3.org/1999/xlink" viewBox="0 0 2475 1650"><defs><style>.cls-1{opacity:.2;}.cls-1,.cls-2{fill:#bca58e;}.cls-3{fill:#91b3fa;}.cls-4{fill:url(#linear-gradient-3);}.cls-5{fill:url(#linear-gradient-2);}.cls-6{fill:#f4f4f4;}.cls-7{fill:url(#linear-gradient);}.cls-8{opacity:.6;}.cls-8,.cls-9{fill:#fff;}.cls-10{fill:#a38f7c;}.cls-11{fill:#310000;}.cls-12{fill:#443b34;}.cls-13{fill:#edcfb4;}.cls-14{fill:#fcd9c3;}.cls-15{opacity:.72;}</style><linearGradient id="linear-gradient" x1="1814.81" y1="289.14" x2="1843.3" y2="289.14" gradientUnits="userSpaceOnUse"><stop offset="0" stop-color="#dae3fe"/><stop offset="1" stop-color="#e9effd"/></linearGradient><linearGradient id="linear-gradient-2" x1="1763.96" y1="333.11" x2="1783.27" y2="333.11" xlink:href="#linear-gradient"/><linearGradient id="linear-gradient-3" x1="993.72" y1="761.02" x2="1002.51" y2="761.02" gradientUnits="userSpaceOnUse"><stop offset="0" stop-color="#ff928e"/><stop offset="1" stop-color="#feb3b1"/></linearGradient></defs><path class="cls-1" d="M544.13,326.67c-168.96,137.58,11.59,219.41-105.42,296.51-117.01,77.09-601.61,227.45-113.6,525.74,488.01,298.29,512.7,443.14,861.07,254.27,348.37-188.87,312.07-170.01,598.75-42.33,286.69,127.68,586.33-70.97,484.45-306.73-101.88-235.76-166.74-232.82-50.41-383.38,116.33-150.56-67.28-622.02-486.67-325.13-151.64,107.34-387.59,157.13-556.93-10.29-91.68-90.65-364.22-226.07-631.24-8.65Z"/><path d="M1364.07,1321.98c-.45-5.6-6.17-10.44-15.84-14.32,10.52-5.8,16.34-12.02,15.84-18.11-1.49-18.45-59.91-28.79-130.49-23.1-70.58,5.69-126.59,25.26-125.1,43.71.45,5.6,6.17,10.44,15.84,14.32-10.52,5.8-16.34,12.02-15.84,18.11.45,5.6,6.17,10.44,15.84,14.32-10.52,5.8-16.34,12.02-15.84,18.11.45,5.6,6.17,10.44,15.84,14.32-10.52,5.8-16.34,12.02-15.84,18.11.66,8.16,12.47,14.73,31.52,19.03-.25,6.03-.11,12.64.48,19.93,2.76,33.99,41,60.65,91.57,60.65s94.34-36.34,94.84-70.44c.12-8.36-.23-15.71-.99-22.25,24.2-8.08,38.94-17.95,38.16-27.52-.45-5.6-6.17-10.44-15.84-14.32,10.52-5.8,16.34-12.02,15.84-18.11-.45-5.6-6.17-10.44-15.84-14.32,10.52-5.8,16.34-12.02,15.84-18.11Z"/><path class="cls-2" d="M1200.93,1433.83c-20.96,0-40.14-1.54-55.99-4.58-.92-.18-1.52-1.06-1.35-1.98.18-.92,1.06-1.52,1.98-1.35,24.8,4.75,57.92,5.79,93.26,2.94,28.92-2.33,55.97-7,78.21-13.49.9-.26,1.84.25,2.1,1.15s-.25,1.84-1.15,2.1c-22.47,6.56-49.74,11.26-78.89,13.61-13.13,1.06-25.96,1.58-38.18,1.58Z"/><path class="cls-2" d="M1201.28,1401.36c-27.23,0-51.57-2.56-68.74-7.45-.9-.26-1.42-1.19-1.17-2.1.26-.9,1.19-1.42,2.09-1.17,24.46,6.97,63.85,9.12,105.37,5.78,41.07-3.31,79.37-11.64,102.45-22.29.85-.39,1.86-.02,2.25.83.39.85.02,1.86-.83,2.25-23.43,10.8-62.16,19.25-103.6,22.59-12.93,1.04-25.67,1.55-37.83,1.55Z"/><path class="cls-2" d="M1200.93,1368.95c-29.41,0-55.14-3.01-72.46-8.72-.89-.29-1.37-1.25-1.08-2.14.29-.89,1.25-1.37,2.14-1.08,24.1,7.95,64.96,10.56,109.3,6.98,41.06-3.31,79.36-11.64,102.45-22.29.85-.39,1.86-.02,2.25.83.39.85.02,1.86-.83,2.25-23.43,10.81-62.16,19.25-103.6,22.59-13.13,1.06-25.97,1.58-38.18,1.58Z"/><path class="cls-2" d="M1201.16,1336.5c-23.33,0-44.54-1.89-61.03-5.55-.91-.2-1.49-1.11-1.29-2.02.2-.91,1.11-1.49,2.02-1.29,24.8,5.51,60.51,6.94,97.98,3.92,40.7-3.28,78.8-11.52,101.93-22.05.85-.39,1.86-.01,2.25.84.39.85.01,1.86-.84,2.24-23.46,10.68-61.99,19.03-103.06,22.35-12.98,1.05-25.75,1.56-37.95,1.56Z"/><path class="cls-6" d="M1061.11,1158.26c-8.57-30.36-23.13-58.74-42.74-83.45-42.02-52.96-110.56-160.65-119-307.63-12.27-213.79,177.34-320.83,350.36-306.3,173.02,14.53,343.75,143.36,325.06,342.25-11.5,122.38-80,215.21-131,268.51-32.39,33.85-55.49,75.31-67.99,120.46-15.31,55.26-51.73,124.12-138.3,128.32-112.02,5.43-158.55-98.99-176.39-162.17Z"/><path class="cls-11" d="M1266.12,1277.79l60.54-393.76c1.25-8.13,5.25-13.6,8.94-12.2,3.69,1.4,5.66,9.12,4.41,17.26-.03.22-.08.48-.11.7l-68.96,390.1c-.52,2.93-2.01,4.79-3.33,4.14-1.28-.63-1.93-3.39-1.49-6.23Z"/><path class="cls-11" d="M1203.27,1280.92l-60.54-393.76c-1.25-8.13-5.25-13.6-8.94-12.2-3.69,1.4-5.66,9.12-4.41,17.26.03.22.08.48.11.7l68.96,390.1c.52,2.93,2.01,4.79,3.33,4.14,1.28-.63,1.93-3.39,1.49-6.23Z"/><path class="cls-11" d="M1326.22,850.22c-1.54-2.47-5.09-3.4-7.95-2.06l-33.71,15.75-11.7-33.34c-.62-1.74-2.05-3.28-4.1-4.12-3.88-1.6-8.52-.17-10.36,3.19l-.06.11-27.72,50.55-25.73-71.96-.04-.12c-.63-1.76-1.96-3.33-3.89-4.39-4.31-2.35-10.01-1.23-12.73,2.51l-38.76,53.35c-1.58,2.19-1.03,5.12,1.37,6.73,2.56,1.73,6.25,1.32,8.24-.9l34.12-38.07,30.72,68.45.02.05c.49,1.1,1.42,2.05,2.71,2.65,2.88,1.35,6.48.42,8.04-2.08l29.65-47.58,11.16,24.06.1.21c.08.17.17.34.28.51,1.54,2.47,5.09,3.39,7.94,2.06l40.01-18.7c2.85-1.33,3.92-4.42,2.38-6.89Z"/><g class="cls-15"><path class="cls-9" d="M1445.11,1020.27c-1.47,0-2.95-.45-4.21-1.4-3.14-2.33-3.79-6.76-1.46-9.9,10.31-13.89,19.78-28.26,28.12-42.71,1.96-3.38,6.29-4.55,9.67-2.59,3.38,1.95,4.55,6.28,2.59,9.67-8.61,14.92-18.38,29.75-29.02,44.08-1.39,1.87-3.52,2.86-5.69,2.86Z"/></g><path class="cls-11" d="M995.59,845.03c.91.6,2.1.56,2.96-.1l24.67-18.86c13.59,5.05,28.08,7.97,43,8.43l15.72,26.75c.55.94,1.64,1.42,2.7,1.21l36.5-7.38c1.07-.22,1.88-1.08,2.02-2.16l4.11-30.75c13.57-6.21,25.79-14.53,36.35-24.46l30.05,7.8c1.05.27,2.16-.15,2.77-1.06l20.6-31.03c.6-.91.56-2.1-.1-2.96l-18.86-24.66c5.05-13.59,7.98-28.08,8.43-43l26.75-15.72c.94-.55,1.42-1.64,1.21-2.7l-7.38-36.5c-.22-1.07-1.08-1.88-2.16-2.02l-30.75-4.11c-6.21-13.57-14.53-25.79-24.47-36.35l7.8-30.05c.27-1.05-.15-2.16-1.06-2.77l-31.03-20.6c-.91-.6-2.1-.56-2.96.1l-24.66,18.86c-13.59-5.05-28.08-7.97-43-8.43l-15.72-26.75c-.55-.94-1.64-1.42-2.7-1.21l-36.5,7.38c-1.07.22-1.88,1.08-2.02,2.16l-4.11,30.75c-13.57,6.21-25.79,14.53-36.35,24.46l-30.05-7.8c-1.05-.27-2.16.15-2.77,1.06l-20.6,31.03c-.6.91-.56,2.1.1,2.96l18.86,24.66c-5.05,13.59-7.97,28.08-8.43,43l-26.75,15.72c-.94.55-1.42,1.64-1.21,2.7l7.38,36.5c.22,1.07,1.08,1.88,2.16,2.02l30.75,4.11c6.21,13.57,14.53,25.79,24.46,36.35l-7.8,30.05c-.27,1.05.15,2.16,1.06,2.77l31.03,20.6Z"/><path class="cls-11" d="M1053.12,666.85c5.65-3.12,12.2-4.76,19.11-4.43,9.64.46,18.52,4.65,25,11.79,6.49,7.14,9.81,16.38,9.34,26.02-.95,19.89-17.91,35.3-37.81,34.35-9.64-.46-18.52-4.65-25-11.79-6.49-7.14-9.81-16.38-9.34-26.02.62-12.99,8.07-24.06,18.7-29.92ZM1084.95,724.8c8.83-4.87,15.02-14.07,15.54-24.86.38-8.01-2.37-15.69-7.76-21.62-5.39-5.93-12.77-9.41-20.78-9.8-16.53-.79-30.62,12.01-31.42,28.54h0c-.38,8.01,2.37,15.69,7.76,21.62,5.39,5.93,12.77,9.41,20.78,9.8,5.74.27,11.19-1.09,15.88-3.68Z"/><path class="cls-11" d="M1026.19,616.48c2.72-1.5,5.53-2.87,8.43-4.1,5.68-2.42,11.69-4.3,17.98-5.57,40.73-8.23,80.73,11.66,99.8,46.26,4.44,8.06,7.75,16.92,9.67,26.41,4.91,24.33.06,49.11-13.66,69.79-13.72,20.67-34.68,34.77-59.01,39.69-16.51,3.34-33.58,2.14-49.37-3.46l2.04-5.75c14.75,5.23,30.7,6.35,46.13,3.23,22.73-4.59,42.31-17.76,55.13-37.08,12.82-19.32,17.36-42.47,12.76-65.2-1.79-8.87-4.88-17.14-9.03-24.68-17.82-32.33-55.19-50.91-93.24-43.22-46.92,9.48-77.37,55.36-67.89,102.28.35,1.73.75,3.46,1.21,5.16.81,3.04,1.78,6.04,2.91,8.96.02.06.05.13.07.19.15.39.31.79.47,1.18.29.72.59,1.43.9,2.13l-5.59,2.44c-2.63-6.02-4.63-12.37-5.94-18.86h0c-8.23-40.73,11.66-80.73,46.26-99.8Z"/><path class="cls-11" d="M696.43,812.58c.44.58,1.21.82,1.9.59l19.79-6.57c7.52,6.18,16.09,11.22,25.45,14.77l4.13,20.43c.15.72.73,1.26,1.45,1.36l24.79,3.31c.72.1,1.43-.28,1.76-.93l9.34-18.63c9.97-.97,19.56-3.58,28.44-7.57l17.37,11.54c.61.4,1.41.38,1.99-.07l19.87-15.19c.58-.44.82-1.21.59-1.9l-6.57-19.79c6.19-7.52,11.22-16.09,14.77-25.46l20.43-4.13c.72-.14,1.26-.73,1.36-1.45l3.31-24.79c.1-.72-.28-1.43-.93-1.76l-18.63-9.34c-.97-9.97-3.58-19.56-7.57-28.44l11.53-17.37c.4-.61.38-1.41-.07-1.99l-15.19-19.87c-.44-.58-1.21-.82-1.9-.59l-19.79,6.57c-7.52-6.19-16.09-11.21-25.46-14.77l-4.12-20.43c-.14-.72-.73-1.26-1.45-1.36l-24.79-3.31c-.72-.1-1.43.28-1.76.93l-9.34,18.63c-9.97.97-19.56,3.58-28.44,7.57l-17.37-11.54c-.61-.4-1.41-.38-1.99.07l-19.87,15.19c-.58.44-.82,1.21-.59,1.9l6.57,19.79c-6.19,7.52-11.21,16.09-14.77,25.46l-20.43,4.13c-.72.14-1.26.73-1.36,1.45l-3.31,24.79c-.1.72.28,1.43.93,1.76l18.63,9.34c.97,9.97,3.58,19.56,7.57,28.44l-11.54,17.37c-.4.61-.38,1.41.07,1.99l15.19,19.87Z"/><path class="cls-11" d="M771.67,710.16c4.71-.82,9.57-.32,14.13,1.5,6.49,2.59,11.58,7.55,14.34,13.98,2.76,6.42,2.85,13.53.25,20.02-5.35,13.39-20.6,19.94-34,14.59-6.49-2.59-11.58-7.55-14.34-13.98-2.75-6.42-2.84-13.53-.25-20.02h0c2.59-6.49,7.56-11.58,13.98-14.33,1.91-.82,3.89-1.41,5.89-1.75ZM779.18,753.94c6.05-1.05,11.43-5.11,13.87-11.22,1.81-4.53,1.75-9.49-.18-13.98-1.92-4.48-5.48-7.95-10.01-9.76-4.53-1.81-9.49-1.75-13.98.18-4.48,1.92-7.95,5.48-9.76,10.01-1.81,4.53-1.75,9.49.18,13.98,1.92,4.48,5.48,7.95,10.01,9.76,3.25,1.3,6.65,1.59,9.86,1.04Z"/><path class="cls-11" d="M765.59,672.29c2.13-.37,4.3-.63,6.48-.78.02,0,.03,0,.04,0,4.24-.29,8.57-.16,12.94.42,28.5,3.81,50.19,25.85,54.86,52.79,1.09,6.28,1.25,12.82.37,19.46-2.27,17.03-11.04,32.15-24.69,42.58-13.65,10.43-30.54,14.92-47.57,12.65-11.56-1.54-22.46-6.18-31.53-13.41l4.92-6.18c7.95,6.34,17.51,10.4,27.65,11.76,14.93,1.99,29.75-1.95,41.72-11.1,11.97-9.15,19.66-22.41,21.66-37.34.78-5.83.63-11.57-.32-17.07-4.1-23.63-23.12-42.97-48.12-46.31-30.83-4.12-59.26,17.62-63.38,48.44h0c-.5,3.78-.63,7.61-.37,11.38.01.21.03.42.05.63l-7.87.62c-.36-4.53-.24-9.14.37-13.68.05-.36.1-.72.15-1.08,4.22-27.97,26.04-49.17,52.64-53.78Z"/><path class="cls-11" d="M1611.46,927.04c.64.42,1.47.39,2.07-.07l17.28-13.21c9.52,3.54,19.68,5.59,30.12,5.91l11.02,18.74c.39.66,1.15,1,1.89.85l25.57-5.17c.75-.15,1.32-.76,1.42-1.51l2.88-21.55c9.5-4.35,18.07-10.18,25.47-17.14l21.05,5.47c.74.19,1.52-.11,1.94-.74l14.43-21.74c.42-.64.39-1.47-.07-2.07l-13.21-17.28c3.54-9.52,5.59-19.68,5.91-30.12l18.74-11.02c.66-.39,1-1.15.85-1.89l-5.17-25.57c-.15-.75-.76-1.32-1.52-1.42l-21.55-2.88c-4.35-9.5-10.18-18.07-17.14-25.47l5.47-21.05c.19-.74-.11-1.52-.74-1.94l-21.74-14.43c-.64-.42-1.47-.39-2.07.07l-17.28,13.21c-9.52-3.54-19.68-5.59-30.12-5.91l-11.02-18.74c-.39-.66-1.15-1-1.89-.85l-25.57,5.17c-.75.15-1.32.76-1.42,1.52l-2.88,21.55c-9.5,4.35-18.07,10.18-25.47,17.14l-21.05-5.47c-.74-.19-1.52.11-1.94.74l-14.43,21.74c-.42.64-.39,1.47.07,2.07l13.21,17.28c-3.54,9.52-5.59,19.68-5.91,30.12l-18.74,11.02c-.66.39-1,1.15-.85,1.89l5.17,25.57c.15.75.76,1.32,1.52,1.42l21.55,2.88c4.35,9.5,10.18,18.07,17.14,25.47l-5.47,21.05c-.19.74.11,1.52.74,1.94l21.74,14.43Z"/><path class="cls-11" d="M1650.81,800.45c4.37-2.41,9.33-3.57,14.44-3.32,7.28.35,13.99,3.51,18.89,8.91,4.9,5.39,7.41,12.38,7.06,19.66-.72,15.02-13.54,26.67-28.56,25.95-7.28-.35-13.99-3.51-18.89-8.91-4.9-5.4-7.41-12.38-7.06-19.66h0c.35-7.28,3.51-13.99,8.91-18.89,1.61-1.46,3.36-2.71,5.21-3.73ZM1673.11,841.07c5.61-3.09,9.53-8.93,9.86-15.78.24-5.08-1.51-9.96-4.93-13.72-3.42-3.77-8.1-5.98-13.19-6.22-5.08-.24-9.95,1.51-13.72,4.93-3.76,3.42-5.97,8.1-6.22,13.19-.24,5.08,1.51,9.96,4.93,13.72,3.42,3.76,8.1,5.97,13.18,6.22,3.64.17,7.1-.69,10.08-2.33Z"/><path class="cls-11" d="M1631.94,765.18c1.98-1.09,4.02-2.09,6.13-2.98.02,0,.03,0,.04-.01,4.08-1.73,8.39-3.08,12.9-3.98,29.4-5.94,58.28,8.42,72.05,33.4,3.21,5.82,5.6,12.22,6.98,19.07,3.55,17.56.05,35.46-9.86,50.38-9.91,14.93-25.04,25.1-42.6,28.65-11.92,2.41-24.25,1.55-35.65-2.5l2.75-7.77c9.99,3.54,20.8,4.3,31.26,2.19,15.4-3.11,28.68-12.04,37.37-25.13,8.69-13.09,11.76-28.79,8.65-44.19-1.21-6.01-3.31-11.62-6.12-16.73-12.08-21.91-37.41-34.5-63.2-29.3-31.8,6.43-52.44,37.53-46.02,69.32h0c.79,3.9,1.97,7.71,3.5,11.35.09.2.17.41.26.61l-7.55,3.29c-1.9-4.35-3.34-8.93-4.29-13.61-.08-.37-.15-.75-.22-1.12-5.36-29.01,8.95-57.34,33.62-70.93Z"/><path class="cls-11" d="M1225.82,853.63c-1.2.71-1.82,2.1-1.54,3.46l7.95,38.89c-13.39,12.82-24.83,27.86-33.67,44.77l-39.54,3.18c-1.39.11-2.55,1.09-2.9,2.44l-11.86,46.11c-.35,1.35.2,2.77,1.36,3.53l33.1,21.86c-.41,19.07,2.35,37.77,7.89,55.46l-25.72,30.23c-.9,1.06-1.03,2.57-.32,3.77l24.22,40.99c.71,1.2,2.1,1.82,3.46,1.54l38.89-7.95c12.82,13.39,27.87,24.83,44.77,33.67l3.18,39.54c.11,1.39,1.09,2.55,2.44,2.9l46.11,11.86c1.35.35,2.77-.2,3.53-1.36l21.86-33.09c19.07.41,37.77-2.35,55.46-7.89l30.23,25.72c1.06.9,2.57,1.03,3.77.32l40.99-24.22c1.2-.71,1.81-2.1,1.54-3.46l-7.95-38.89c13.39-12.82,24.83-27.86,33.67-44.77l39.54-3.18c1.39-.11,2.55-1.09,2.9-2.44l11.86-46.11c.35-1.35-.2-2.77-1.36-3.53l-33.1-21.86c.41-19.07-2.35-37.77-7.89-55.46l25.72-30.23c.9-1.06,1.03-2.57.32-3.77l-24.22-40.99c-.71-1.2-2.1-1.81-3.46-1.54l-38.89,7.95c-12.82-13.39-27.87-24.83-44.77-33.67l-3.18-39.54c-.11-1.39-1.09-2.55-2.44-2.9l-46.11-11.86c-1.35-.35-2.77.2-3.53,1.36l-21.86,33.09c-19.07-.41-37.77,2.35-55.46,7.89l-30.23-25.72c-1.06-.9-2.57-1.03-3.77-.32l-40.99,24.22Z"/><path class="cls-11" d="M1352.57,1066.81c-7.32,0-14.74-1.77-21.61-5.52-21.95-11.96-30.07-39.55-18.11-61.49,5.79-10.63,15.38-18.37,26.99-21.79,11.61-3.42,23.86-2.11,34.49,3.68,10.63,5.79,18.37,15.38,21.79,26.99,3.42,11.62,2.11,23.87-3.68,34.5-8.22,15.07-23.8,23.63-39.87,23.63ZM1352.69,982.26c-3.72,0-7.46.53-11.13,1.62-10.05,2.96-18.35,9.65-23.36,18.85-10.35,18.99-3.32,42.86,15.67,53.21,18.99,10.35,42.86,3.32,53.21-15.67,5.01-9.2,6.15-19.8,3.19-29.85-2.96-10.05-9.65-18.35-18.85-23.36h0c-5.84-3.18-12.25-4.8-18.72-4.8Z"/><path class="cls-11" d="M1353.07,1140.35c-9.7,0-19.54-1.21-29.36-3.73-30.51-7.85-56.13-27.11-72.16-54.23-10.87-18.41-16.44-38.94-16.45-59.77,0-9.86,1.24-19.79,3.77-29.59,5.32-20.7,16.14-39.54,31.27-54.48l4.29,4.34c-14.35,14.16-24.6,32.03-29.65,51.66-2.39,9.29-3.57,18.71-3.57,28.06,0,19.75,5.28,39.22,15.59,56.68,15.19,25.72,39.49,43.98,68.42,51.42,59.71,15.36,120.79-20.73,136.16-80.44,2.39-9.3,3.54-18.64,3.54-27.82,0-49.81-33.57-95.36-83.98-108.33h0c-7.19-1.85-14.54-2.99-21.89-3.39-.02,0-.03,0-.05,0-.54-.03-1.08-.05-1.62-.08l.24-6.1c8.33.33,16.69,1.56,24.84,3.65,2.75.71,5.46,1.51,8.11,2.4,53.04,17.75,86.11,70.6,79.65,125.51-.61,5.22-1.58,10.46-2.93,15.68-13.67,53.16-61.71,88.56-114.23,88.56Z"/><path class="cls-11" d="M1955.39,615.22l-267.9-1.49c-10.97-.06-17.78,11.9-12.13,21.3l1.35,2.24c2.54,4.23,7.12,6.82,12.06,6.82h266.55c7.77,0,14.06-6.3,14.06-14.06v-.75c0-7.74-6.25-14.02-13.98-14.06Z"/><path class="cls-11" d="M1992.81,629.6v.44c0,7.77,6.3,14.06,14.06,14.06h59.47c6.37,0,11.94-4.28,13.59-10.43h0c2.37-8.89-4.28-17.62-13.48-17.69l-59.47-.44c-7.81-.06-14.17,6.26-14.17,14.06Z"/><path class="cls-11" d="M1890.94,665.7l-203.46-1.49c-10.97-.06-17.78,11.9-12.13,21.3l1.35,2.24c2.54,4.23,7.12,6.82,12.06,6.82h202.11c7.77,0,14.06-6.3,14.06-14.06v-.75c0-7.74-6.25-14.02-13.98-14.06Z"/><path class="cls-11" d="M1928.37,680.08v.44c0,7.77,6.3,14.06,14.06,14.06h59.47c6.37,0,11.94-4.28,13.59-10.43h0c2.37-8.89-4.28-17.62-13.48-17.69l-59.47-.44c-7.81-.06-14.17,6.26-14.17,14.06Z"/><path class="cls-11" d="M670.78,879.58l-267.9-1.49c-10.97-.06-17.78,11.9-12.13,21.3l1.35,2.24c2.54,4.23,7.12,6.82,12.06,6.82h266.56c7.77,0,14.06-6.3,14.06-14.06v-.75c0-7.74-6.25-14.02-13.98-14.06Z"/><path class="cls-11" d="M708.2,893.95v.44c0,7.77,6.3,14.06,14.06,14.06h59.47c6.37,0,11.94-4.28,13.59-10.43h0c2.37-8.89-4.28-17.62-13.48-17.69l-59.47-.44c-7.81-.06-14.17,6.26-14.17,14.06Z"/><path class="cls-11" d="M606.33,930.06l-203.46-1.49c-10.97-.06-17.78,11.9-12.13,21.3l1.35,2.24c2.54,4.23,7.12,6.82,12.06,6.82h202.11c7.77,0,14.06-6.3,14.06-14.06v-.75c0-7.74-6.25-14.02-13.98-14.06Z"/><path class="cls-11" d="M643.76,944.43v.44c0,7.77,6.3,14.06,14.06,14.06h59.47c6.37,0,11.94-4.28,13.59-10.43h0c2.37-8.89-4.28-17.62-13.48-17.69l-59.47-.44c-7.81-.06-14.17,6.26-14.17,14.06Z"/><path d="M619.64,1468.13s-1.91,10.79-2.84,21.47c-.37,4.17,2.85,7.8,7.04,7.97,14.22.59,44.64,1.74,55.56,1.26,1.64-.07,2.71-1.75,2.11-3.28h0c-.51-1.28-1.49-2.31-2.74-2.89l-50.25-23.09-8.87-1.43Z"/><path class="cls-2" d="M618.08,1461.8l1.53,12.9s8.8,4.1,14.81-.52l-3.65-14.38-12.7,1.99Z"/><path d="M619.23,1219.2c-.66,3.37-3.55,168.16,14.06,242,.29,1.2-.32,2.45-1.47,2.92-2.7,1.1-8,2.7-14.35,2.92-1.97.07-3.73-1.21-4.28-3.1-5.04-17.13-29.16-102.98-32.31-184.98-3.52-91.63,0-3.12,0-3.12l2.06-56.64h36.28Z"/><path d="M561.84,1473.76s-3.03,5.45-5.97,19.92c-.53,2.61,1.3,5.11,3.95,5.38,4.7.46,11.92,1.06,17.72,1.02,2.67-.02,4.75-2.34,4.43-4.99-.64-5.28-2.64-13.95-8.81-20.7l-11.31-.61Z"/><path class="cls-2" d="M559.18,1457.16l3.58,19.51s3.54,2.63,10.53.72l-1.71-21-12.4.76Z"/><path d="M549.51,1224.26c-14.41,86.94,3.13,214.89,9.04,239.93.36,1.53,1.6,2.71,3.15,2.97,2.64.44,6.98.79,11.27-.45,1.48-.43,2.51-1.76,2.57-3.3.79-20.25-.63-144.53,12.79-193.65.68-2.49,2.2-4.66,4.3-6.16l26.05-18.52,2-29.94-71.18,9.12Z"/><path class="cls-11" d="M641.31,1059.52c-43.17-.71-90.81,11.34-90.81,11.34-12.87,75.09-2.25,161.7-2.25,161.7,33.42,8.77,71.13-5.36,71.13-5.36,5.56-31.39,31.47-119.72,31.47-119.72,21.09-2.62,38.47-8.7,52.78-16.75-10.92-12.65-16.06-28.75-18.3-38.27-15.26,4.74-30.71,7.28-44.03,7.06Z"/><path class="cls-11" d="M768.84,995.93c-4.24-5.12-9.61-2.7-9.61-2.7-6.35,26.84-39.67,48.6-73.89,59.23,2.23,9.52,7.38,25.62,18.3,38.27,56.8-31.94,65.2-94.8,65.2-94.8Z"/><path class="cls-2" d="M767.81,997.23c.44,1.41-4.7,3.56-7.72-2.21-.11-2.77-1.79-14.61-.14-16.87,8.8-12,25.86-27.04,25.86-27.04,2.88,2.85.51,5.64.51,5.64l-8.28,8.62c1.73,3.13,3.84,5.77,4.83,9.55.75,2.87.29,5.93-1.16,8.54-1.45,2.62-3.44,6.02-5.31,8.68-3.55,5.04-8.6,5.08-8.6,5.08Z"/><path class="cls-2" d="M774.42,970.97l-7.54,6.39-2.37,6.37,6.72,7.46s2.26-12.63,3.94-15.37c1.68-2.73.81-4.06-.76-4.86Z"/><path class="cls-11" d="M567.06,1112.66l-16.56-41.8s-40.33,27.4-46.96,62.14c7.62.56,21.48,2.54,35.06,9.4,2.98-16.4,28.46-29.73,28.46-29.73Z"/><path class="cls-2" d="M602.3,1151.99s-45.28,25.59-60.55,3.74c-3.17-4.54-3.93-9.05-3.15-13.34-13.57-6.85-27.44-8.83-35.06-9.4-2,10.47-.94,21.61,5.21,32.87,26.76,48.95,99.54-2.71,99.54-2.71l-5.99-11.16Z"/><path class="cls-11" d="M596.86,1184.37l24.71-86.29c.28-.98,1.12-1.69,2.13-1.81,4.48-.52,17.45-1.99,32.43-3.26,18.04-1.53,38.99-2.76,51.51-1.71,1.78.15,2.86,2.03,2.06,3.63-7.12,14.4-36.41,73-51.07,92.19-.49.64-1.24,1.01-2.04,1l-57.33-.53c-1.67-.02-2.86-1.62-2.4-3.22Z"/><path class="cls-13" d="M658.69,1085.52l17.92-2.98c.95-.16,1.74.75,1.43,1.67l-1.77,5.37c-.15.47-.56.81-1.05.87l-17.24,2.3c-.89.12-1.63-.69-1.42-1.57l1.1-4.69c.12-.51.53-.89,1.04-.98Z"/><path class="cls-10" d="M645.27,1100.69l1.48-7.69c.15-.77.78-1.35,1.57-1.43l36.18-3.67c1.22-.12,2.19.99,1.91,2.18l-2.3,9.58c-.18.77-.85,1.32-1.64,1.36l-35.36,1.78c-1.15.06-2.05-.98-1.83-2.11Z"/><path class="cls-2" d="M602.83,1163.52s-3.44-14.15-2.05-19.18c1.39-5.02,4.08-11.48,13.05-10.04,8.97,1.43,19.54,5.21,19.54,5.21,0,0-.53,6.54-7.35,4.43l4.23,3.27s-.6,5.24-6.36,2.44l3.93,4.34s-2.47,4.3-6.71,1.54c-4.24-2.76-6.27,9.69-18.28,7.99Z"/><path class="cls-2" d="M597.58,1024.47l-13.74,39.73c-.23.66.04,1.39.65,1.72,3.74,2.07,17.24,8.05,33.49-2.25,1.69-1.07,2.85-2.83,3.1-4.81l4.45-34.38h-27.96Z"/><path class="cls-2" d="M627.47,987.68s15.08,28.4,13.15,39.87c-1.93,11.47-20.63,10.65-36.95,1.33l-11.41-30.66,35.21-10.54Z"/><path d="M604.39,1013.82c.66-.29.91-1.11.51-1.71-1.21-1.85-3.47-5.61-4.2-8.91,0,0-2.71-1.74,6.9-4.04,9.61-2.3,23.95-5.87,26.96-14.06,2.94-7.98-4.78-28.04-17.1-12.06-.47.61-1.39.62-1.85.01-2.02-2.63-7.33-8.08-14.7-4.78-6.9,3.09-7.67,8.15-7.58,10.69.03.75-.64,1.33-1.38,1.19-3.49-.66-11.85-1.24-15.76,7.35-3.22,7.07-1.13,11.07.78,13.03.62.63.35,1.68-.5,1.94-2.29.7-5.25,2.64-4.95,8.01.41,7.42,8.71,6.77,11.07,6.43.39-.06.78.08,1.04.37,2.03,2.24,11.15,11.76,21.03,12.91.86.1,1.52-.75,1.24-1.56l-4.28-12.43c-.2-.58.08-1.21.64-1.46l2.12-.94Z"/><path class="cls-2" d="M606.11,1015.58s-10.74-7.37-11.52-1.16c-.78,6.21,9.67,8.99,14.85,6.68l-3.33-5.51Z"/><path class="cls-9" d="M1632.76,479.35c-.78,0-1.41-.62-1.42-1.4,0-.78.62-1.43,1.4-1.44,2.37-.03,4.73-.12,7.04-.26.78-.06,1.46.55,1.51,1.33.05.78-.55,1.46-1.33,1.51-2.35.15-4.76.24-7.17.27h-.02ZM1625.65,479.28s-.03,0-.05,0c-2.34-.08-4.75-.2-7.16-.38-.78-.06-1.37-.74-1.31-1.52.06-.78.71-1.38,1.52-1.31,2.37.17,4.74.3,7.04.38.79.03,1.4.68,1.38,1.47-.03.77-.66,1.38-1.42,1.38ZM1646.94,478.46c-.71,0-1.33-.53-1.41-1.26-.09-.78.47-1.49,1.25-1.58,2.35-.28,4.69-.62,6.95-1.02.78-.14,1.51.38,1.65,1.15.14.77-.38,1.51-1.15,1.65-2.31.41-4.71.76-7.12,1.04-.06,0-.11,0-.17,0ZM1611.47,478.24c-.05,0-.11,0-.16,0-2.34-.26-4.73-.58-7.1-.93-.78-.12-1.31-.84-1.2-1.62.12-.78.85-1.31,1.62-1.2,2.34.35,4.7.66,7,.92.78.09,1.34.79,1.25,1.57-.08.73-.7,1.26-1.41,1.26ZM1597.4,476.16c-.08,0-.17,0-.26-.02-2.32-.42-4.68-.9-7.02-1.4-.77-.17-1.26-.92-1.09-1.69.17-.77.92-1.26,1.69-1.09,2.31.5,4.64.96,6.93,1.38.77.14,1.28.88,1.14,1.66-.13.69-.72,1.17-1.4,1.17ZM1660.93,475.96c-.64,0-1.22-.43-1.38-1.08-.19-.76.28-1.53,1.04-1.72,2.29-.56,4.56-1.2,6.74-1.91.75-.25,1.55.17,1.79.92.24.75-.17,1.55-.92,1.79-2.25.72-4.58,1.38-6.94,1.96-.11.03-.23.04-.34.04ZM1583.49,473.16c-.11,0-.23-.01-.34-.04-2.29-.57-4.62-1.18-6.92-1.82-.76-.21-1.2-.99-.99-1.75.21-.76,1-1.2,1.75-.99,2.27.63,4.58,1.24,6.84,1.8.76.19,1.23.96,1.04,1.72-.16.65-.74,1.08-1.38,1.08ZM1674.45,471.6c-.56,0-1.09-.33-1.32-.88-.3-.73.05-1.56.78-1.85,2.17-.89,4.31-1.86,6.36-2.9.7-.36,1.56-.08,1.91.62.36.7.08,1.56-.62,1.91-2.12,1.07-4.32,2.08-6.57,3-.18.07-.36.11-.54.11ZM1569.78,469.34c-.14,0-.28-.02-.42-.06-2.32-.72-4.61-1.47-6.81-2.23-.74-.26-1.14-1.07-.88-1.81.26-.74,1.06-1.14,1.81-.88,2.17.75,4.43,1.49,6.72,2.2.75.23,1.17,1.03.94,1.78-.19.61-.75,1-1.36,1ZM1687.1,465.16c-.48,0-.94-.24-1.21-.67-.41-.67-.21-1.54.46-1.96,1.97-1.22,3.91-2.55,5.76-3.94.63-.47,1.52-.35,1.99.28.47.63.35,1.52-.28,1.99-1.92,1.44-3.93,2.82-5.97,4.08-.23.14-.49.21-.75.21ZM1556.33,464.67c-.17,0-.35-.03-.52-.1-1.07-.42-1.64-.66-1.64-.66l-3.23-1.37,3.27-1.27c.09-.03.26-.1.51-.18.77-.27,2.38-.83,4.53-1.71.73-.3,1.56.05,1.85.78.3.73-.05,1.56-.78,1.85-.99.4-1.86.74-2.6,1.01.04.24.01.49-.08.73-.22.56-.76.9-1.32.9ZM1566.29,459.2c-.52,0-1.03-.29-1.27-.79-.35-.7-.06-1.56.64-1.91,2.12-1.05,4.18-2.18,6.14-3.36.67-.41,1.55-.19,1.95.49.4.67.19,1.55-.49,1.95-2.03,1.22-4.16,2.39-6.34,3.47-.2.1-.42.15-.63.15ZM1698.44,456.63c-.39,0-.77-.16-1.06-.47-.53-.58-.48-1.48.1-2.01,1.72-1.55,3.38-3.2,4.96-4.9.53-.58,1.43-.61,2.01-.08.58.53.61,1.43.08,2.01-1.63,1.76-3.36,3.47-5.14,5.08-.27.25-.61.37-.95.37ZM1578.46,451.85c-.44,0-.87-.2-1.15-.58-.46-.63-.33-1.52.31-1.99,1.92-1.4,3.73-2.88,5.39-4.4.58-.53,1.48-.49,2.01.09.53.58.49,1.48-.09,2.01-1.73,1.58-3.63,3.13-5.63,4.59-.25.19-.55.27-.84.27ZM1708.08,446.22c-.31,0-.61-.1-.87-.3-.62-.48-.73-1.38-.25-2,1.41-1.81,2.77-3.73,4.05-5.69.43-.66,1.31-.84,1.97-.41.66.43.84,1.31.41,1.97-1.32,2.03-2.73,4-4.19,5.88-.28.36-.7.55-1.12.55ZM1588.91,442.26c-.32,0-.65-.11-.92-.34-.6-.51-.67-1.41-.17-2,1.52-1.8,2.89-3.67,4.05-5.57.41-.67,1.28-.88,1.96-.47.67.41.88,1.29.47,1.96-1.24,2.02-2.69,4.01-4.3,5.92-.28.33-.68.5-1.09.5ZM1715.85,434.35c-.23,0-.47-.06-.68-.18-.69-.38-.94-1.24-.56-1.93,1.1-2.01,2.16-4.11,3.15-6.25.33-.71,1.17-1.02,1.89-.7.71.33,1.02,1.17.7,1.89-1.02,2.2-2.11,4.37-3.24,6.43-.26.47-.75.74-1.25.74ZM1596.27,430.17c-.17,0-.35-.03-.52-.1-.73-.29-1.09-1.12-.8-1.85.1-.25.19-.49.28-.74.78-2.1,1.63-4.09,2.51-5.91.34-.71,1.19-1,1.9-.65.71.34,1,1.2.65,1.9-.85,1.73-1.66,3.64-2.4,5.65-.1.27-.2.53-.31.8-.22.56-.76.9-1.32.9ZM1721.81,421.47c-.17,0-.34-.03-.51-.1-.73-.28-1.1-1.11-.82-1.84.83-2.14,1.61-4.37,2.33-6.62.24-.75,1.04-1.16,1.79-.92.75.24,1.16,1.04.92,1.79-.74,2.31-1.54,4.59-2.39,6.78-.22.56-.76.91-1.33.91ZM1602.6,417.49c-.28,0-.57-.08-.81-.26-.64-.45-.8-1.34-.35-1.98,1.51-2.15,3.15-4.03,4.88-5.58.59-.52,1.49-.47,2.01.11.52.59.47,1.48-.11,2.01-1.57,1.41-3.07,3.12-4.45,5.09-.28.4-.72.61-1.17.61ZM1613.2,408.31c-.55,0-1.07-.32-1.3-.85-.31-.72.02-1.56.74-1.87,1.53-.66,2.97-1.08,4.24-1.35-1.36-.29-2.96-.61-4.78-.95-.77-.14-1.28-.89-1.14-1.66.14-.77.89-1.28,1.66-1.14,2.92.54,5.29,1.03,7.05,1.46.76.18,1.23.95,1.05,1.71-.02.08-.05.16-.08.24.46.2.8.64.85,1.18.07.78-.51,1.47-1.29,1.54-1.66.15-3.89.46-6.43,1.57-.19.08-.38.12-.57.12ZM1726.15,407.94c-.12,0-.24-.01-.36-.05-.76-.2-1.21-.98-1.01-1.74.24-.93.48-1.87.71-2.82l-1.82-1.85c-.55-.56-.54-1.46.02-2.01.56-.55,1.46-.54,2.01.02l2.92,2.97-.18.76c-.29,1.24-.59,2.46-.91,3.65-.17.64-.74,1.06-1.37,1.06ZM1605.34,402.07c-.08,0-.16,0-.24-.02-2.83-.48-5.37-.88-7.03-1.14-.78-.12-1.31-.85-1.18-1.63.12-.78.85-1.31,1.63-1.18.4.06.86.14,1.36.22-.41-.64-.25-1.49.38-1.93,1.47-1.03,2.91-2.58,4.75-4.75.51-.6,1.4-.67,2-.16.6.51.67,1.41.16,2-1.95,2.3-3.51,3.98-5.2,5.18,1.1.18,2.32.38,3.59.6.77.13,1.3.86,1.16,1.64-.12.69-.72,1.19-1.4,1.19ZM1719.69,396.85c-.37,0-.74-.14-1.01-.42l-4.99-5.07c-.55-.56-.54-1.46.02-2.01.56-.55,1.46-.54,2.01.02l4.99,5.07c.55.56.54,1.46-.02,2.01-.28.27-.64.41-1,.41ZM1610.7,388.56c-.34,0-.67-.12-.94-.36-.59-.52-.64-1.42-.12-2.01,1.69-1.91,3.32-3.61,4.99-5.21.57-.54,1.47-.52,2.01.04.54.57.52,1.47-.04,2.01-1.62,1.55-3.2,3.2-4.83,5.05-.28.32-.67.48-1.07.48ZM1709.72,386.71c-.37,0-.74-.14-1.01-.42l-4.99-5.07c-.55-.56-.54-1.46.02-2.01.56-.55,1.46-.54,2.01.02l4.99,5.07c.55.56.54,1.46-.02,2.01-.28.27-.64.41-1,.41ZM1620.96,378.75c-.42,0-.83-.18-1.11-.53-.49-.61-.39-1.51.22-2,1.84-1.47,3.8-2.9,5.83-4.26.65-.44,1.54-.26,1.97.39.44.65.26,1.54-.39,1.97-1.97,1.31-3.86,2.7-5.64,4.12-.26.21-.58.31-.89.31ZM1699.74,376.58c-.37,0-.74-.14-1.01-.42l-4.99-5.07c-.2-.2-.33-.45-.38-.71-.3-.07-.57-.23-.77-.46-.44-.34-2.45-1.56-5.74-2.95-.72-.3-1.06-1.14-.76-1.86.3-.72,1.14-1.06,1.86-.76.66.28,6.47,2.75,7.03,4.1.03.08.06.17.08.26.26.06.51.19.71.39l4.99,5.07c.55.56.54,1.46-.02,2.01-.28.27-.64.41-1,.41ZM1632.75,370.85c-.5,0-.98-.26-1.24-.72-.39-.68-.15-1.55.54-1.94,1.39-.79,2.84-1.56,4.3-2.3.7-.36,1.41-.7,2.11-1.02.71-.33,1.56-.02,1.89.7.33.71.02,1.56-.7,1.89-.67.31-1.34.63-2.01.97-1.43.72-2.84,1.48-4.19,2.24-.22.12-.46.18-.7.18ZM1645.67,364.99c-.6,0-1.16-.38-1.35-.99-.24-.75.17-1.55.92-1.79,2.3-.74,4.68-1.35,7.06-1.8.77-.15,1.51.36,1.66,1.13.15.77-.36,1.52-1.13,1.66-2.26.43-4.52,1.01-6.71,1.71-.15.05-.29.07-.44.07ZM1680.7,364.72c-.13,0-.26-.02-.4-.06-2.23-.64-4.5-1.17-6.77-1.56-.77-.13-1.29-.87-1.16-1.64.13-.77.86-1.3,1.64-1.16,2.37.41,4.75.96,7.08,1.63.75.22,1.19,1.01.97,1.76-.18.62-.75,1.03-1.37,1.03ZM1659.6,362.34c-.74,0-1.37-.58-1.42-1.33-.05-.78.54-1.46,1.33-1.51,2.38-.15,4.84-.16,7.28-.03.78.04,1.38.72,1.34,1.5-.04.78-.72,1.38-1.5,1.34-2.25-.13-4.64-.12-6.93.03-.03,0-.06,0-.09,0Z"/><path class="cls-14" d="M1705.65,384.19s-34.67-17.08-49.95,7.02c-15.28,24.1-24.72,52.2-37.81,55.2,0,0,72.9,19.91,96.19-51.51l-8.44-10.71Z"/><path class="cls-11" d="M1737.6,309.34s-26.01-27.62-38.44-24.3c-11.82,3.16-76.22,60-82.48,65.54-.28.25-.31.66-.09.96h0c1.87,2.48,4.81,3.92,7.91,3.87,15.01-.23,59.83-1.3,73.28-5.97,16.24-5.64,39.82-40.1,39.82-40.1Z"/><path class="cls-8" d="M1643.76,335.05c-.2,0-.4-.08-.54-.25-.25-.3-.22-.75.08-1,.36-.31,36.17-30.83,52.09-43.36,2.79-2.19,6.6-2.54,9.73-.88,5.01,2.66,14.65,8.17,22.95,15.2.3.25.34.7.08,1-.25.3-.7.34-1,.08-8.19-6.94-17.74-12.39-22.69-15.03-2.63-1.39-5.84-1.1-8.18.74-15.9,12.52-51.69,43.02-52.05,43.33-.13.11-.3.17-.46.17Z"/><path class="cls-11" d="M1790.68,379.71s19.42,32.6,12.82,43.63c-6.28,10.5-78.62,56.82-85.67,61.32-.32.2-.73.12-.95-.18h0c-1.87-2.48-2.45-5.7-1.55-8.67,4.34-14.37,17.68-57.17,25.86-68.82,9.88-14.07,49.49-27.27,49.49-27.27Z"/><path class="cls-8" d="M1740.89,463.79c-.23,0-.46-.11-.59-.32-.22-.33-.13-.77.2-.99.39-.26,39.55-26.3,55.95-38.15,2.42-1.75,3.58-4.76,2.96-7.66-1.17-5.49-3.79-16.17-8.22-25.95-.16-.36,0-.78.35-.94.36-.16.78,0,.94.35,4.26,9.41,6.87,19.46,8.31,26.24.74,3.46-.65,7.03-3.52,9.11-16.43,11.87-55.61,37.93-56,38.19-.12.08-.26.12-.39.12Z"/><path class="cls-12" d="M1839.62,232.98c-17.45,5.99-36,15.05-54.09,28.61-56.15,42.1-90.13,82.76-99.49,94.58-1.69,2.14-2.05,5.03-.98,7.54,8.39,19.78,20.83,36.53,37.31,50.26,3.1,2.58,7.4,3.19,11.12,1.62,16.13-6.81,62.78-28.26,116.27-68.86,17.87-13.56,31.6-28.79,42.12-43.81-13.19-33.62-37.64-57.31-52.26-69.93Z"/><path class="cls-11" d="M1891.88,302.92c23.25-33.18,30.85-65.32,32.89-76.18.4-2.12-1.11-4.12-3.26-4.32-10.96-1.03-43.77-2.53-81.88,10.57,14.62,12.62,39.07,36.31,52.26,69.93Z"/><path class="cls-3" d="M1842.57,329.53c-14.51,10.95-35.8,7.2-47.55-8.38-11.75-15.57-9.51-37.08,5-48.02,14.51-10.95,35.8-7.2,47.55,8.38,11.75,15.57,9.51,37.08-5,48.02Z"/><path class="cls-11" d="M1839.58,324.03c-11.56,8.72-28.53,5.73-37.89-6.68-9.36-12.41-7.58-29.54,3.98-38.27,11.56-8.72,28.53-5.73,37.89,6.68,9.36,12.41,7.58,29.54-3.98,38.27Z"/><path class="cls-7" d="M1842.59,297.23c-.3,0-.57-.19-.67-.48-.73-2.12-1.79-4.12-3.16-5.94-5.43-7.2-14.89-10.17-23-7.22-.37.14-.78-.06-.91-.42-.13-.37.06-.78.42-.91,8.69-3.17,18.81,0,24.62,7.7,1.46,1.94,2.6,4.07,3.37,6.34.13.37-.07.78-.44.9-.08.03-.15.04-.23.04Z"/><path class="cls-3" d="M1782.54,359.8c-9.59,7.23-23.65,4.75-31.41-5.53-7.76-10.29-6.28-24.49,3.3-31.73,9.59-7.23,23.65-4.75,31.41,5.53,7.76,10.29,6.28,24.49-3.3,31.73Z"/><path class="cls-11" d="M1780.57,356.17c-7.64,5.76-18.85,3.79-25.03-4.41-6.19-8.2-5.01-19.52,2.63-25.28,7.64-5.76,18.85-3.79,25.03,4.41,6.19,8.2,5.01,19.52-2.63,25.28Z"/><path class="cls-5" d="M1782.56,338.7c-.3,0-.57-.19-.67-.48-.47-1.38-1.16-2.68-2.05-3.86-3.53-4.67-9.66-6.6-14.92-4.69-.37.13-.78-.06-.91-.43-.13-.37.06-.78.42-.91,5.84-2.12,12.64,0,16.54,5.17.98,1.3,1.75,2.74,2.26,4.26.13.37-.07.78-.44.9-.08.03-.15.04-.23.04Z"/><path class="cls-9" d="M1526.79,877.8l-.76-4.16v-.04c-.15-.78.37-1.52,1.14-1.66.78-.14,1.52.37,1.66,1.15h0s.75,4.25.75,4.25c.14.77-.38,1.51-1.15,1.65-.77.14-1.51-.38-1.65-1.15v-.03Z"/><path class="cls-9" d="M1523.83,864.02l-1.13-4.07v-.04c-.22-.78.23-1.58,1.01-1.79.78-.21,1.58.24,1.79,1.02h0s1.13,4.16,1.13,4.16c.21.77-.25,1.57-1.02,1.78s-1.57-.24-1.78-1.02v-.03Z"/><path class="cls-9" d="M1519.66,850.57l-1.48-3.96v-.04c-.3-.77.09-1.62.86-1.91.77-.29,1.62.1,1.91.87h0s1.49,4.04,1.49,4.04c.28.76-.11,1.61-.87,1.9-.76.28-1.61-.11-1.9-.87v-.03Z"/><path class="cls-9" d="M1514.33,837.53l-1.81-3.82-.02-.03c-.36-.76-.04-1.66.72-2.02.76-.36,1.66-.04,2.02.72h0s1.83,3.9,1.83,3.9c.35.75.03,1.65-.72,2-.75.35-1.65.03-2-.72v-.03Z"/><path class="cls-9" d="M1507.93,824.98l-2.12-3.66-.02-.03c-.43-.74-.17-1.68.56-2.11.74-.43,1.68-.17,2.11.56h0s2.14,3.74,2.14,3.74c.42.73.17,1.67-.57,2.09-.73.42-1.67.17-2.09-.57l-.02-.03Z"/><path class="cls-9" d="M1500.55,812.98l-2.39-3.49-.02-.03c-.49-.71-.31-1.69.41-2.18.71-.49,1.69-.31,2.18.41h0s2.42,3.56,2.42,3.56c.49.71.3,1.68-.41,2.17-.71.49-1.68.3-2.17-.41l-.02-.02Z"/><path class="cls-9" d="M1492.27,801.57l-2.64-3.3-.02-.03c-.55-.69-.44-1.69.25-2.25.69-.55,1.69-.44,2.25.25h0s2.67,3.37,2.67,3.37c.55.69.43,1.69-.26,2.23-.69.55-1.69.43-2.23-.26l-.02-.02Z"/><path class="cls-9" d="M1483.18,790.79l-2.87-3.11-.02-.02c-.61-.66-.57-1.69.09-2.3.66-.61,1.69-.57,2.3.09h0s2.9,3.18,2.9,3.18c.6.66.56,1.68-.1,2.28-.66.6-1.68.56-2.28-.1l-.02-.02Z"/><path class="cls-9" d="M1473.38,780.64l-3.07-2.91-.02-.02c-.66-.63-.69-1.68-.06-2.34s1.68-.69,2.34-.06h0s3.11,2.98,3.11,2.98c.66.63.68,1.67.05,2.33-.63.66-1.67.68-2.33.05l-.02-.02Z"/><path class="cls-9" d="M1462.93,771.16l-3.25-2.71-.02-.02c-.71-.6-.81-1.66-.21-2.37.6-.71,1.66-.81,2.37-.21h0s3.29,2.77,3.29,2.77c.71.6.8,1.65.2,2.36-.6.71-1.65.8-2.36.2l-.02-.02Z"/><path class="cls-9" d="M1451.9,762.35l-3.41-2.51-.02-.02c-.76-.56-.92-1.63-.36-2.39.56-.76,1.63-.92,2.39-.36h0s3.45,2.57,3.45,2.57c.75.56.91,1.63.35,2.38-.56.75-1.63.91-2.38.35h-.02Z"/><path class="cls-9" d="M1440.36,754.22l-3.56-2.31-.03-.02c-.81-.52-1.03-1.6-.51-2.4.52-.81,1.6-1.03,2.4-.51h0s3.6,2.36,3.6,2.36c.8.52,1.02,1.6.5,2.39-.52.8-1.6,1.02-2.39.5h-.02Z"/><path class="cls-9" d="M1428.36,746.77l-3.68-2.1h-.03c-.85-.5-1.14-1.58-.66-2.42.48-.85,1.56-1.14,2.41-.66h0s3.72,2.15,3.72,2.15c.84.48,1.13,1.56.65,2.4-.48.84-1.56,1.13-2.4.65h-.02Z"/><path class="cls-9" d="M1415.96,740.02l-3.79-1.89h-.03c-.89-.45-1.25-1.53-.81-2.42.44-.89,1.52-1.25,2.41-.81h0s3.84,1.93,3.84,1.93c.88.44,1.24,1.52.79,2.4-.44.88-1.52,1.24-2.4.79h-.02Z"/><path class="cls-9" d="M1403.2,733.98l-3.89-1.67h-.03c-.92-.41-1.35-1.48-.96-2.41.4-.92,1.47-1.35,2.39-.96h0s3.94,1.71,3.94,1.71c.92.4,1.34,1.47.94,2.39-.4.92-1.47,1.34-2.39.94h-.02Z"/><path class="cls-9" d="M1390.12,728.67l-3.98-1.45h-.03c-.96-.36-1.46-1.42-1.11-2.38.35-.96,1.41-1.45,2.37-1.11h0s4.03,1.49,4.03,1.49c.95.35,1.44,1.41,1.09,2.37-.35.95-1.41,1.44-2.37,1.09h-.02Z"/><path class="cls-9" d="M1376.77,724.1l-4.05-1.22h-.03c-.99-.31-1.56-1.36-1.26-2.35.3-.99,1.35-1.56,2.34-1.26h0s4.11,1.26,4.11,1.26c.99.3,1.54,1.35,1.24,2.33s-1.35,1.54-2.33,1.24h-.02Z"/><path class="cls-9" d="M1363.18,720.31l-4.11-1h-.03c-1.02-.25-1.65-1.28-1.4-2.31.25-1.02,1.28-1.65,2.3-1.4h0s4.16,1.03,4.16,1.03c1.02.25,1.64,1.28,1.39,2.3-.25,1.02-1.28,1.64-2.3,1.39h-.02Z"/><path class="cls-9" d="M1349.4,717.21l-4.16-.8h-.03c-1.05-.21-1.74-1.22-1.53-2.27.2-1.05,1.22-1.74,2.27-1.53h0s4.21.83,4.21.83c1.04.21,1.72,1.22,1.52,2.26-.21,1.04-1.22,1.72-2.26,1.52h-.02Z"/><path class="cls-9" d="M1335.48,714.75l-4.19-.62h-.03c-1.07-.16-1.81-1.16-1.66-2.23.16-1.07,1.16-1.81,2.23-1.66h0s4.24.64,4.24.64c1.07.16,1.8,1.16,1.64,2.22-.16,1.07-1.16,1.8-2.22,1.64h-.02Z"/><path class="cls-9" d="M1321.47,712.9l-4.22-.44h-.02c-1.09-.12-1.89-1.1-1.77-2.19.11-1.09,1.09-1.89,2.19-1.77h0s4.27.46,4.27.46c1.09.12,1.88,1.1,1.76,2.18-.12,1.09-1.1,1.88-2.18,1.76h-.02Z"/><path class="cls-9" d="M1307.39,711.64l-4.23-.27h-.02c-1.11-.07-1.96-1.03-1.89-2.15.07-1.11,1.03-1.96,2.14-1.89h0s4.28.29,4.28.29c1.11.08,1.94,1.03,1.87,2.14-.08,1.11-1.03,1.94-2.14,1.87h-.02Z"/><path class="cls-9" d="M1293.27,710.92l-4.24-.11h-.02c-1.13-.03-2.02-.97-1.99-2.1.03-1.13.97-2.02,2.1-1.99h0s4.29.13,4.29.13c1.13.03,2.01.97,1.98,2.1-.03,1.13-.97,2.01-2.1,1.98h-.01Z"/><path class="cls-9" d="M1279.12,710.72l-4.24.04h-.02c-1.15,0-2.08-.91-2.09-2.06,0-1.15.91-2.08,2.06-2.09h0l4.29-.02c1.14,0,2.07.92,2.08,2.06,0,1.14-.92,2.07-2.06,2.08h-.01Z"/><path class="cls-9" d="M1264.97,711l-4.24.17h-.02c-1.16.05-2.14-.85-2.19-2.02-.05-1.16.86-2.14,2.02-2.19h0s4.28-.16,4.28-.16c1.16-.04,2.13.86,2.17,2.02.04,1.16-.86,2.13-2.02,2.17h-.01Z"/><path class="cls-9" d="M1250.84,711.72l-4.24.3h-.02c-1.17.08-2.19-.8-2.28-1.98-.08-1.17.8-2.19,1.98-2.28h0s4.27-.28,4.27-.28c1.17-.08,2.18.81,2.26,1.98.08,1.17-.81,2.18-1.98,2.26h-.01Z"/><path class="cls-9" d="M1236.72,712.84l-4.23.41h-.02c-1.18.12-2.22-.75-2.34-1.92-.11-1.18.75-2.22,1.93-2.34h0s4.26-.41,4.26-.41c1.18-.11,2.22.75,2.33,1.93s-.75,2.22-1.93,2.33h-.01Z"/><path class="cls-9" d="M1222.63,714.33l-4.22.51h-.02c-1.18.15-2.25-.69-2.4-1.87-.14-1.18.7-2.25,1.88-2.4h0s4.25-.51,4.25-.51c1.18-.14,2.25.7,2.39,1.88.14,1.18-.7,2.25-1.88,2.39h-.01Z"/><path class="cls-9" d="M1208.58,716.16l-4.21.61h-.01c-1.18.17-2.28-.65-2.45-1.83s.65-2.28,1.83-2.45h0s4.24-.61,4.24-.61c1.18-.17,2.27.65,2.44,1.83.17,1.18-.65,2.27-1.83,2.44h-.01Z"/><path class="cls-9" d="M1194.57,718.3l-4.2.7h-.01c-1.18.2-2.3-.6-2.5-1.78-.2-1.18.6-2.3,1.79-2.5h0s4.22-.69,4.22-.69c1.18-.19,2.3.61,2.49,1.79s-.61,2.3-1.79,2.49h0Z"/><path class="cls-9" d="M1180.6,720.71l-4.18.77h-.01c-1.18.22-2.32-.56-2.54-1.75-.22-1.18.56-2.32,1.75-2.54h0s4.21-.77,4.21-.77c1.18-.22,2.32.57,2.53,1.75.22,1.18-.57,2.32-1.75,2.53h0Z"/><path class="cls-9" d="M1166.66,723.36l-4.17.84h0c-1.19.24-2.34-.53-2.58-1.71-.24-1.19.53-2.34,1.71-2.58h0s4.19-.84,4.19-.84c1.18-.24,2.34.53,2.57,1.72.24,1.18-.53,2.34-1.72,2.57h0Z"/><path class="cls-9" d="M1152.77,726.23l-4.16.9h0c-1.19.26-2.36-.5-2.61-1.68s.5-2.36,1.69-2.61h0s4.18-.9,4.18-.9c1.19-.25,2.35.5,2.61,1.69.25,1.19-.5,2.35-1.69,2.61h0Z"/><path class="cls-9" d="M1138.91,729.29l-4.15.95h0c-1.19.27-2.37-.47-2.65-1.66-.27-1.19.47-2.37,1.66-2.65h0s4.17-.95,4.17-.95c1.19-.27,2.37.47,2.64,1.66.27,1.19-.47,2.37-1.66,2.64h0Z"/><path class="cls-9" d="M1125.08,732.51l-4.15.99c-1.19.29-2.39-.44-2.68-1.64s.44-2.39,1.64-2.68h0s4.16-.99,4.16-.99c1.19-.28,2.39.45,2.67,1.64.28,1.19-.46,2.39-1.65,2.67Z"/><path class="cls-9" d="M1111.27,735.85l-4.15,1.02c-1.19.3-2.4-.43-2.7-1.63-.3-1.19.43-2.4,1.63-2.7h0s4.15-1.02,4.15-1.02c1.19-.29,2.4.44,2.69,1.63.29,1.19-.44,2.4-1.63,2.69Z"/><path class="cls-9" d="M1097.47,739.27l-4.14,1.04c-1.2.3-2.42-.43-2.72-1.62-.3-1.2.43-2.42,1.62-2.72h0s4.14-1.03,4.14-1.03c1.2-.3,2.41.43,2.71,1.63.3,1.2-.43,2.41-1.63,2.71Z"/><path class="cls-9" d="M1083.69,742.74l-4.14,1.05c-1.2.3-2.43-.42-2.73-1.63-.3-1.2.42-2.43,1.63-2.73h0s4.14-1.04,4.14-1.04c1.2-.3,2.42.43,2.73,1.63.3,1.2-.43,2.42-1.63,2.72Z"/><path class="cls-9" d="M1069.9,746.23l-4.14,1.05c-1.21.31-2.44-.43-2.74-1.64-.31-1.21.43-2.44,1.64-2.74h0s4.14-1.04,4.14-1.04c1.21-.3,2.43.43,2.74,1.64.3,1.21-.43,2.43-1.63,2.74Z"/><path class="cls-9" d="M1056.11,749.7l-4.14,1.04c-1.21.3-2.45-.44-2.75-1.65-.3-1.21.44-2.45,1.65-2.75h0s4.14-1.03,4.14-1.03c1.21-.3,2.44.44,2.75,1.65.3,1.21-.43,2.44-1.65,2.75Z"/><path class="cls-9" d="M1042.3,753.13l-4.15,1.02c-1.22.3-2.45-.45-2.75-1.67-.3-1.22.45-2.45,1.67-2.75h0s4.14-1.01,4.14-1.01c1.22-.3,2.45.45,2.75,1.67.3,1.22-.45,2.45-1.67,2.75Z"/><path class="cls-9" d="M1028.46,756.48l-4.16.99c-1.23.29-2.46-.47-2.75-1.7-.29-1.23.47-2.46,1.7-2.75h0s4.15-.98,4.15-.98c1.23-.29,2.46.47,2.75,1.69.29,1.23-.47,2.46-1.69,2.75Z"/><path class="cls-9" d="M1014.59,759.73l-4.17.95c-1.24.28-2.47-.49-2.75-1.73-.28-1.24.49-2.47,1.73-2.75h0s0,0,0,0l4.15-.94h0c1.24-.28,2.46.49,2.74,1.73.28,1.24-.49,2.46-1.73,2.74Z"/><path class="cls-4" d="M1000.69,762.83l-4.18.9c-1.25.27-2.47-.53-2.74-1.77-.27-1.25.53-2.47,1.77-2.74h0s0,0,0,0l4.16-.89h0c1.24-.27,2.47.53,2.73,1.77.27,1.24-.52,2.47-1.77,2.73Z"/><path class="cls-9" d="M986.74,765.75l-4.2.84c-1.25.25-2.47-.56-2.73-1.82-.25-1.25.56-2.47,1.82-2.72h0s.01,0,.01,0l4.18-.83h.01c1.25-.25,2.47.56,2.72,1.82.25,1.25-.56,2.47-1.82,2.72Z"/><path class="cls-9" d="M972.74,768.47l-4.21.77c-1.26.23-2.47-.61-2.71-1.87-.23-1.26.61-2.47,1.87-2.71h0s.01,0,.01,0l4.19-.76h.01c1.26-.23,2.47.61,2.7,1.87.23,1.26-.61,2.47-1.87,2.7Z"/><path class="cls-9" d="M958.69,770.94l-4.22.69c-1.27.21-2.47-.66-2.68-1.93-.21-1.27.66-2.47,1.93-2.68h0s.01,0,.01,0l4.2-.68h.01c1.27-.21,2.47.66,2.67,1.93.21,1.27-.66,2.47-1.93,2.67Z"/><path class="cls-9" d="M944.59,773.13l-4.24.6c-1.28.18-2.47-.71-2.65-1.99s.71-2.47,1.99-2.65h0s.02,0,.02,0l4.21-.59h.02c1.28-.18,2.46.71,2.64,1.99.18,1.28-.71,2.46-1.99,2.64Z"/><path class="cls-9" d="M930.45,775.01l-4.25.5c-1.29.15-2.46-.77-2.61-2.07-.15-1.29.77-2.46,2.07-2.61h0s.02,0,.02,0l4.22-.49h.02c1.29-.15,2.46.77,2.61,2.06s-.77,2.46-2.06,2.61Z"/><path class="cls-9" d="M916.25,776.54l-4.26.39c-1.3.12-2.45-.84-2.57-2.14-.12-1.3.84-2.45,2.14-2.57h0s.02,0,.02,0l4.23-.38h.02c1.3-.12,2.45.84,2.56,2.14.12,1.3-.84,2.45-2.14,2.56Z"/><path class="cls-9" d="M902.02,777.69l-4.28.27c-1.31.08-2.44-.91-2.52-2.22-.08-1.31.91-2.44,2.22-2.52h0s.02,0,.02,0l4.24-.26h.02c1.31-.08,2.43.91,2.51,2.22.08,1.31-.91,2.43-2.22,2.51Z"/><path class="cls-9" d="M887.75,778.42l-4.29.12c-1.32.04-2.41-1-2.45-2.32-.04-1.32,1-2.41,2.32-2.45h0s.03,0,.03,0l4.24-.11h.03c1.31-.04,2.41,1,2.44,2.32.04,1.31-1,2.41-2.31,2.44Z"/><path class="cls-9" d="M873.44,778.63l-4.29-.05c-1.32-.01-2.38-1.1-2.37-2.42.01-1.32,1.1-2.38,2.42-2.37h.03s4.24.05,4.24.05h.03c1.32.02,2.38,1.1,2.36,2.42-.02,1.32-1.1,2.38-2.42,2.36Z"/><path class="cls-9" d="M859.12,778.28l-4.29-.22c-1.33-.07-2.34-1.2-2.27-2.52.07-1.33,1.2-2.34,2.52-2.27h0s.03,0,.03,0l4.23.23h.03c1.32.07,2.34,1.2,2.27,2.53-.07,1.32-1.2,2.34-2.52,2.27Z"/><path class="cls-9" d="M844.83,777.31l-4.28-.42c-1.33-.13-2.3-1.31-2.17-2.63.13-1.33,1.31-2.3,2.63-2.17h0s.03,0,.03,0l4.21.41h.03c1.32.13,2.29,1.31,2.16,2.64s-1.31,2.29-2.63,2.16Z"/><path class="cls-9" d="M830.59,775.69l-4.26-.62c-1.32-.19-2.24-1.42-2.05-2.75.19-1.32,1.42-2.24,2.75-2.05h0s.04,0,.04,0l4.18.62h.04c1.32.2,2.23,1.43,2.04,2.75s-1.42,2.24-2.74,2.04Z"/><path class="cls-9" d="M816.43,773.35l-4.22-.85c-1.32-.27-2.17-1.55-1.9-2.86.27-1.32,1.55-2.17,2.86-1.9h0s.04,0,.04,0l4.14.84h.04c1.31.27,2.16,1.56,1.9,2.87-.27,1.32-1.55,2.17-2.86,1.9Z"/><path class="cls-9" d="M802.42,770.24l-4.17-1.1c-1.3-.34-2.08-1.68-1.74-2.98.34-1.3,1.68-2.08,2.98-1.74h0s.04.01.04.01l4.08,1.08h.04c1.3.36,2.08,1.69,1.74,2.99s-1.68,2.08-2.98,1.74Z"/><path class="cls-9" d="M788.6,766.28l-4.1-1.36c-1.28-.43-1.98-1.81-1.55-3.1.43-1.28,1.81-1.98,3.1-1.55h0s.05.02.05.02l4,1.34.05.02c1.28.43,1.98,1.82,1.55,3.1-.43,1.28-1.81,1.98-3.09,1.55Z"/><path class="cls-9" d="M775.06,761.42l-4-1.65c-1.26-.52-1.86-1.96-1.34-3.21.52-1.26,1.96-1.86,3.21-1.34h0s.05.02.05.02l3.9,1.61.05.02c1.25.52,1.85,1.96,1.33,3.21-.52,1.25-1.95,1.85-3.21,1.33Z"/><path class="cls-9" d="M761.88,755.58l-3.86-1.95c-1.22-.61-1.71-2.1-1.09-3.32.61-1.22,2.1-1.71,3.32-1.09h0s.05.03.05.03l3.75,1.9.05.03c1.22.62,1.7,2.1,1.09,3.32-.62,1.22-2.1,1.7-3.31,1.09Z"/><path class="cls-9" d="M749.2,748.72l-3.69-2.26c-1.17-.72-1.53-2.24-.82-3.41.72-1.17,2.24-1.53,3.41-.82h0s.05.04.05.04l3.58,2.2.05.03c1.17.72,1.53,2.24.81,3.41-.72,1.17-2.24,1.53-3.4.81Z"/><path class="cls-9" d="M737.13,740.81l-3.48-2.58c-1.1-.82-1.34-2.38-.52-3.48.82-1.1,2.38-1.34,3.48-.52h0s.05.04.05.04l3.37,2.5.05.04c1.1.82,1.33,2.38.51,3.48-.82,1.1-2.37,1.33-3.48.51Z"/><path class="cls-9" d="M725.81,731.84l-3.23-2.89c-1.03-.92-1.12-2.5-.2-3.53.92-1.03,2.5-1.12,3.53-.19h0s.05.05.05.05l3.12,2.8.05.05c1.03.92,1.11,2.5.19,3.53-.92,1.03-2.5,1.11-3.52.19Z"/><path class="cls-9" d="M715.37,721.83l-2.93-3.2c-.94-1.02-.87-2.61.16-3.55,1.02-.94,2.61-.87,3.55.16h0s.05.06.05.06l2.83,3.09.05.06c.93,1.02.86,2.61-.16,3.54-1.02.93-2.61.86-3.54-.16Z"/><path class="cls-9" d="M705.98,710.83l-2.6-3.48c-.83-1.11-.61-2.69.51-3.53,1.11-.83,2.69-.61,3.53.51h0s.04.06.04.06l2.51,3.36.04.06c.83,1.11.6,2.69-.51,3.52-1.11.83-2.69.6-3.52-.51Z"/><path class="cls-9" d="M697.72,698.96l-2.25-3.71c-.72-1.19-.35-2.75.85-3.47,1.19-.73,2.75-.35,3.47.85h0s.04.06.04.06l2.17,3.59.04.06c.72,1.19.34,2.75-.85,3.47-1.19.72-2.74.34-3.47-.85Z"/><path class="cls-9" d="M690.62,686.38l-1.9-3.9c-.61-1.26-.09-2.78,1.17-3.39,1.26-.61,2.78-.09,3.39,1.17h0s.03.06.03.06l1.83,3.77.03.06c.61,1.26.09,2.78-1.17,3.39-1.26.61-2.78.09-3.39-1.17Z"/><path class="cls-9" d="M684.71,673.2l-1.55-4.05c-.5-1.31.16-2.79,1.47-3.29,1.31-.5,2.79.16,3.29,1.47h0s.02.06.02.06l1.49,3.92.02.06c.5,1.31-.16,2.78-1.47,3.28-1.31.5-2.78-.16-3.28-1.47Z"/><path class="cls-9" d="M679.96,659.57l-1.2-4.16c-.39-1.36.39-2.77,1.75-3.17,1.36-.39,2.77.39,3.17,1.75h0s.02.06.02.06l1.16,4.04.02.06c.39,1.36-.4,2.77-1.75,3.16-1.36.39-2.77-.39-3.16-1.75Z"/><path class="cls-9" d="M676.38,645.6l-.85-4.24c-.28-1.39.62-2.74,2.01-3.02,1.39-.28,2.74.62,3.02,2.01h0s.01.06.01.06l.82,4.12v.06c.29,1.39-.61,2.74-2,3.02-1.39.28-2.74-.62-3.02-2.01Z"/><path class="cls-9" d="M673.92,631.39l-.52-4.29c-.17-1.41.84-2.7,2.25-2.87,1.41-.17,2.7.84,2.87,2.25h0s0,.06,0,.06l.5,4.18v.06c.18,1.41-.83,2.69-2.24,2.86-1.41.17-2.69-.84-2.86-2.25Z"/><path class="cls-9" d="M672.58,617.04l-.19-4.32c-.06-1.43,1.04-2.64,2.47-2.7,1.43-.06,2.63,1.04,2.7,2.47h0s0,.06,0,.06l.18,4.2v.06c.06,1.43-1.04,2.63-2.47,2.69-1.43.06-2.63-1.04-2.69-2.47Z"/><path class="cls-9" d="M672.33,602.63l.14-4.32c.05-1.43,1.24-2.56,2.68-2.51s2.56,1.24,2.51,2.68h0s0,.06,0,.06l-.14,4.21v.06c-.05,1.43-1.25,2.55-2.68,2.51-1.43-.05-2.55-1.24-2.51-2.67Z"/><path class="cls-9" d="M673.15,588.24l.46-4.31c.15-1.43,1.44-2.47,2.87-2.32,1.43.15,2.47,1.44,2.32,2.87h0s0,.06,0,.06l-.45,4.19v.06c-.16,1.43-1.44,2.46-2.87,2.31s-2.46-1.43-2.31-2.86Z"/><path class="cls-9" d="M675.05,573.95l.78-4.25c.26-1.42,1.62-2.36,3.04-2.1,1.42.26,2.36,1.62,2.1,3.04h0s-.01.06-.01.06l-.76,4.14v.06c-.27,1.42-1.63,2.36-3.05,2.1-1.42-.26-2.36-1.62-2.1-3.04Z"/><path class="cls-9" d="M678.01,559.84l1.09-4.19c.37-1.4,1.8-2.24,3.2-1.88,1.4.37,2.24,1.8,1.88,3.2h0s-.02.06-.02.06l-1.07,4.07-.02.06c-.37,1.4-1.8,2.24-3.2,1.87-1.4-.37-2.24-1.8-1.87-3.2Z"/><path class="cls-9" d="M682.02,545.99l1.41-4.09c.47-1.38,1.98-2.11,3.35-1.63,1.38.48,2.11,1.98,1.63,3.35h0s-.02.06-.02.06l-1.38,3.97-.02.06c-.48,1.37-1.98,2.1-3.35,1.62-1.37-.48-2.1-1.97-1.63-3.35Z"/><path class="cls-9" d="M687.1,532.49l1.73-3.97c.58-1.34,2.14-1.95,3.48-1.37,1.34.58,1.95,2.14,1.37,3.48h0s-.03.06-.03.06l-1.69,3.85-.03.06c-.59,1.34-2.14,1.95-3.48,1.36-1.34-.59-1.95-2.14-1.36-3.48Z"/><path class="cls-9" d="M693.25,519.43l2.05-3.82c.69-1.29,2.3-1.78,3.59-1.08,1.29.69,1.78,2.3,1.08,3.59h0s-.03.06-.03.06l-1.99,3.7-.03.06c-.69,1.29-2.3,1.77-3.59,1.08-1.29-.69-1.77-2.3-1.08-3.59Z"/><path class="cls-9" d="M700.39,506.9l2.32-3.65c.79-1.24,2.43-1.61,3.68-.82,1.24.79,1.61,2.43.82,3.68h0s-.03.05-.03.05l-2.26,3.55-.03.05c-.79,1.24-2.43,1.61-3.67.82-1.24-.79-1.61-2.43-.82-3.67Z"/><path class="cls-9" d="M708.41,494.94l2.57-3.48c.88-1.19,2.55-1.44,3.74-.56,1.19.88,1.44,2.55.56,3.74h0s-.03.05-.03.05l-2.5,3.38-.03.04c-.88,1.19-2.55,1.44-3.74.56-1.19-.88-1.44-2.55-.56-3.73Z"/><path class="cls-9" d="M717.24,483.56l2.8-3.29c.96-1.13,2.65-1.27,3.78-.31,1.13.96,1.27,2.65.31,3.78h0s-.03.04-.03.04l-2.73,3.21-.03.04c-.96,1.13-2.65,1.26-3.78.3-1.13-.96-1.27-2.65-.31-3.78Z"/><path class="cls-9" d="M726.81,472.8l3.01-3.1c1.04-1.07,2.74-1.09,3.81-.06,1.07,1.04,1.09,2.74.06,3.81h0s-.04.04-.04.04l-2.94,3.02-.04.04c-1.04,1.07-2.74,1.09-3.8.05-1.07-1.04-1.09-2.74-.06-3.8Z"/><path class="cls-9" d="M737.05,462.7l3.19-2.9c1.11-1,2.81-.92,3.82.18,1,1.11.92,2.81-.18,3.82h0s-.04.04-.04.04l-3.12,2.83-.04.03c-1.11,1-2.81.92-3.81-.19-1-1.1-.92-2.81.19-3.81Z"/><path class="cls-9" d="M747.9,453.26l3.36-2.7c1.17-.94,2.88-.75,3.81.42.94,1.17.75,2.88-.42,3.81h0s-.04.03-.04.03l-3.29,2.64-.04.03c-1.17.94-2.87.75-3.81-.42s-.75-2.87.42-3.81Z"/><path class="cls-9" d="M759.3,444.49l3.52-2.5c1.23-.87,2.93-.58,3.8.64s.58,2.93-.64,3.8h0s-.04.03-.04.03l-3.44,2.44-.04.03c-1.23.87-2.92.58-3.79-.65-.87-1.23-.58-2.92.65-3.79Z"/><path class="cls-9" d="M771.19,436.41l3.65-2.29c1.28-.8,2.96-.42,3.77.86.8,1.28.42,2.96-.86,3.77h0s-.04.03-.04.03l-3.58,2.24-.04.02c-1.28.8-2.96.41-3.76-.87-.8-1.28-.41-2.96.86-3.76Z"/><path class="cls-9" d="M783.5,429.01l3.77-2.09c1.32-.73,2.99-.25,3.73,1.07.73,1.33.25,2.99-1.07,3.73h0s-.04.02-.04.02l-3.7,2.04-.04.02c-1.32.73-2.99.25-3.72-1.08-.73-1.32-.25-2.99,1.07-3.72Z"/><path class="cls-9" d="M796.2,422.29l3.88-1.88c1.37-.66,3.01-.09,3.68,1.27.66,1.37.09,3.01-1.27,3.68h0s-.04.02-.04.02l-3.8,1.84-.04.02c-1.37.66-3.01.09-3.67-1.28-.66-1.37-.09-3.01,1.27-3.67Z"/><path class="cls-9" d="M809.24,416.26l3.97-1.68c1.41-.59,3.02.07,3.62,1.47.59,1.41-.07,3.02-1.47,3.62h0s-.04.02-.04.02l-3.9,1.64-.04.02c-1.4.59-3.02-.07-3.61-1.47-.59-1.4.07-3.02,1.47-3.61Z"/><path class="cls-9" d="M822.58,410.92l4.05-1.47c1.44-.52,3.03.22,3.55,1.66.52,1.44-.22,3.03-1.66,3.55h0s-.04.02-.04.02l-3.97,1.43h-.04c-1.44.53-3.02-.21-3.54-1.65-.52-1.44.22-3.02,1.66-3.54Z"/><path class="cls-9" d="M836.16,406.26l4.12-1.26c1.47-.45,3.02.38,3.47,1.85.45,1.47-.38,3.02-1.85,3.47h0s-.04.01-.04.01l-4.04,1.23h-.04c-1.47.46-3.02-.37-3.47-1.84-.45-1.47.38-3.02,1.84-3.47Z"/><path class="cls-9" d="M849.97,402.31l4.18-1.05c1.49-.38,3.01.53,3.39,2.03.38,1.49-.53,3.01-2.03,3.39h0s-.04.01-.04.01l-4.1,1.02h-.04c-1.49.38-3.01-.52-3.38-2.02s.53-3.01,2.02-3.38Z"/><path class="cls-9" d="M863.95,399.05l4.23-.84c1.52-.3,2.99.68,3.29,2.2.3,1.52-.68,2.99-2.2,3.29h0s-.04,0-.04,0l-4.15.82h-.04c-1.52.31-2.99-.68-3.28-2.2-.3-1.52.68-2.99,2.2-3.28Z"/><path class="cls-9" d="M878.09,396.51l4.26-.62c1.54-.23,2.96.84,3.19,2.37.23,1.54-.84,2.96-2.37,3.19h0s-.04,0-.04,0l-4.18.61h-.04c-1.53.23-2.96-.83-3.18-2.37-.22-1.53.84-2.96,2.37-3.18Z"/><path class="cls-9" d="M892.32,394.65l4.28-.43c1.55-.16,2.93.97,3.09,2.52.16,1.55-.97,2.93-2.52,3.09h0s-.04,0-.04,0l-4.21.42h-.04c-1.55.16-2.93-.97-3.08-2.52s.97-2.93,2.52-3.08Z"/><path class="cls-9" d="M906.61,393.43l4.3-.24c1.56-.09,2.9,1.1,2.98,2.66.09,1.56-1.1,2.9-2.66,2.98h0s-.04,0-.04,0l-4.22.23h-.04c-1.56.09-2.89-1.11-2.98-2.66-.09-1.56,1.1-2.89,2.66-2.98Z"/><path class="cls-9" d="M920.93,392.84l4.3-.06c1.57-.02,2.86,1.23,2.88,2.8.02,1.57-1.23,2.86-2.8,2.88h0s-.04,0-.04,0l-4.23.06h-.04c-1.57.02-2.85-1.23-2.87-2.8-.02-1.57,1.23-2.85,2.79-2.87Z"/><path class="cls-9" d="M935.27,392.84l4.3.12c1.57.04,2.8,1.35,2.76,2.92-.04,1.57-1.35,2.8-2.92,2.76h-.03s-4.23-.11-4.23-.11h-.03c-1.57-.04-2.81-1.35-2.77-2.92.04-1.57,1.35-2.81,2.91-2.77h0Z"/><path class="cls-9" d="M949.59,393.43l4.29.28c1.56.1,2.74,1.45,2.63,3.01-.1,1.56-1.45,2.74-3.01,2.63h-.03s-4.22-.28-4.22-.28h-.03c-1.56-.1-2.74-1.45-2.64-3.01.1-1.56,1.45-2.74,3.01-2.64h0Z"/><path class="cls-9" d="M963.87,394.56l4.27.44c1.55.16,2.67,1.54,2.51,3.09-.16,1.55-1.54,2.67-3.09,2.51h-.03s-4.21-.43-4.21-.43h-.03c-1.55-.16-2.68-1.55-2.52-3.09.16-1.55,1.54-2.68,3.09-2.52h0Z"/><path class="cls-9" d="M978.09,396.22l4.25.59c1.53.21,2.6,1.63,2.39,3.17-.21,1.53-1.63,2.6-3.17,2.39h-.02s-4.2-.58-4.2-.58h-.03c-1.54-.22-2.61-1.63-2.4-3.17.21-1.54,1.63-2.61,3.17-2.4h0Z"/><path class="cls-9" d="M992.24,398.36l4.23.74c1.52.26,2.54,1.71,2.27,3.23-.26,1.52-1.71,2.54-3.23,2.27h-.02s-4.18-.72-4.18-.72h-.03c-1.52-.27-2.54-1.71-2.28-3.24.26-1.52,1.71-2.54,3.23-2.28h0Z"/><path class="cls-9" d="M1006.31,400.97l4.2.87c1.5.31,2.47,1.78,2.16,3.29-.31,1.5-1.78,2.47-3.29,2.16h-.02s-4.15-.86-4.15-.86h-.03c-1.51-.31-2.48-1.79-2.17-3.29.31-1.51,1.78-2.48,3.29-2.17h0Z"/><path class="cls-9" d="M1020.28,404.02l4.17,1c1.49.36,2.41,1.85,2.05,3.34-.36,1.49-1.85,2.41-3.34,2.05h-.02s-4.13-.98-4.13-.98h-.02c-1.49-.36-2.41-1.86-2.06-3.35.35-1.49,1.85-2.41,3.34-2.06h0Z"/><path class="cls-9" d="M1034.15,407.49l4.14,1.12c1.47.4,2.34,1.91,1.95,3.38-.4,1.47-1.91,2.34-3.38,1.95h-.02s-4.1-1.1-4.1-1.1h-.02c-1.47-.4-2.35-1.92-1.95-3.39.4-1.47,1.91-2.35,3.38-1.95h0Z"/><path class="cls-9" d="M1047.92,411.34l4.11,1.23c1.45.44,2.28,1.97,1.84,3.42-.44,1.45-1.97,2.28-3.42,1.84h-.02s-4.07-1.22-4.07-1.22h-.02c-1.46-.44-2.29-1.97-1.85-3.43.43-1.46,1.97-2.29,3.42-1.85h0Z"/><path class="cls-9" d="M1061.58,415.57l4.08,1.34c1.44.47,2.22,2.02,1.75,3.46-.47,1.44-2.02,2.22-3.45,1.75h-.02s-4.04-1.33-4.04-1.33h-.02c-1.44-.48-2.22-2.02-1.75-3.46.47-1.44,2.02-2.22,3.46-1.75h0Z"/><path class="cls-9" d="M1075.12,420.15l4.04,1.44c1.42.51,2.16,2.06,1.65,3.48-.51,1.42-2.06,2.16-3.48,1.65h-.01s-4.01-1.43-4.01-1.43h-.02c-1.42-.51-2.16-2.07-1.66-3.49.5-1.42,2.06-2.16,3.49-1.66h0Z"/><path class="cls-9" d="M1088.54,425.06l4,1.53c1.4.54,2.1,2.11,1.56,3.51-.54,1.4-2.11,2.1-3.51,1.56h-.01s-3.97-1.52-3.97-1.52h-.02c-1.4-.54-2.11-2.11-1.57-3.52.54-1.4,2.11-2.11,3.51-1.57h0Z"/><path class="cls-9" d="M1101.84,430.28l3.96,1.62c1.38.57,2.04,2.14,1.48,3.53-.57,1.38-2.14,2.04-3.53,1.48h-.01s-3.94-1.61-3.94-1.61h-.02c-1.38-.57-2.05-2.15-1.49-3.53.56-1.38,2.14-2.05,3.53-1.49h0Z"/><path class="cls-9" d="M1115.01,435.77l3.93,1.69c1.37.59,2,2.17,1.41,3.54-.59,1.37-2.17,2-3.54,1.41h0s-3.91-1.68-3.91-1.68h-.01c-1.37-.59-2-2.18-1.42-3.55.59-1.37,2.17-2,3.54-1.42h0Z"/><path class="cls-9" d="M1128.07,441.48l3.9,1.75c1.35.61,1.96,2.19,1.35,3.54-.61,1.35-2.19,1.96-3.54,1.35h0s-3.88-1.74-3.88-1.74h0c-1.35-.61-1.96-2.2-1.36-3.55.6-1.35,2.19-1.96,3.55-1.36h0Z"/><path class="cls-9" d="M1141.04,447.37l3.88,1.79c1.34.62,1.92,2.21,1.3,3.54-.62,1.34-2.21,1.92-3.54,1.3h0s-3.87-1.78-3.87-1.78h0c-1.34-.62-1.93-2.21-1.31-3.55.62-1.34,2.21-1.93,3.55-1.31h0Z"/><path class="cls-9" d="M1153.95,453.38l3.86,1.82c1.33.63,1.9,2.21,1.27,3.54-.63,1.33-2.21,1.9-3.54,1.27l-3.86-1.81c-1.33-.62-1.91-2.21-1.28-3.54.62-1.33,2.21-1.91,3.54-1.28h0Z"/><path class="cls-9" d="M1166.81,459.48l3.85,1.84c1.32.63,1.88,2.21,1.25,3.53-.63,1.32-2.21,1.88-3.53,1.25l-3.85-1.83c-1.32-.63-1.89-2.21-1.26-3.53.63-1.32,2.21-1.89,3.53-1.26h0Z"/><path class="cls-9" d="M1179.65,465.62l3.85,1.84c1.31.63,1.87,2.2,1.24,3.52-.63,1.31-2.2,1.87-3.51,1.24l-3.85-1.84c-1.32-.63-1.87-2.2-1.25-3.52s2.2-1.87,3.52-1.25h0Z"/><path class="cls-9" d="M1192.48,471.75l3.85,1.83c1.31.62,1.87,2.19,1.25,3.5-.62,1.31-2.19,1.87-3.5,1.25l-3.86-1.83c-1.31-.62-1.87-2.19-1.25-3.5.62-1.31,2.19-1.87,3.5-1.25h0Z"/><path class="cls-9" d="M1205.32,477.83l3.86,1.81c1.3.61,1.86,2.15,1.25,3.45-.61,1.3-2.15,1.86-3.45,1.26l-3.88-1.8c-1.31-.61-1.87-2.16-1.27-3.46.61-1.31,2.16-1.87,3.46-1.27h.02Z"/><path class="cls-9" d="M1218.19,483.83l3.87,1.77h0c1.29.59,1.85,2.12,1.26,3.4-.59,1.29-2.1,1.86-3.39,1.27l-3.89-1.76c-1.3-.59-1.87-2.11-1.28-3.41.59-1.3,2.11-1.87,3.41-1.28h.01s0,0,0,0Z"/><path class="cls-9" d="M1231.11,489.69l3.89,1.72h.01c1.28.57,1.86,2.07,1.29,3.34s-2.05,1.86-3.33,1.29l-3.92-1.71c-1.29-.56-1.87-2.06-1.31-3.35.56-1.29,2.06-1.87,3.35-1.31h.01s.01,0,.01,0Z"/><path class="cls-9" d="M1244.11,495.36l3.92,1.66h.01c1.27.54,1.86,2.01,1.33,3.28-.54,1.27-1.99,1.87-3.26,1.33l-3.95-1.65c-1.28-.53-1.88-2-1.35-3.28.53-1.28,2-1.88,3.28-1.35h.01s.01,0,.01,0Z"/><path class="cls-9" d="M1257.19,500.79l3.95,1.57h.02c1.26.51,1.88,1.94,1.37,3.21-.5,1.26-1.93,1.88-3.19,1.38l-3.99-1.57c-1.27-.5-1.9-1.94-1.4-3.21.5-1.27,1.94-1.9,3.21-1.4h.01s.02.01.02.01Z"/><path class="cls-9" d="M1270.39,505.93l3.98,1.48h.02c1.26.47,1.9,1.87,1.43,3.13-.47,1.26-1.85,1.9-3.11,1.43l-4.02-1.47c-1.26-.46-1.91-1.86-1.45-3.13.46-1.27,1.86-1.91,3.13-1.45h.01s.02.01.02.01Z"/><path class="cls-9" d="M1283.7,510.75l4.02,1.37h.02c1.25.43,1.92,1.8,1.49,3.05s-1.78,1.92-3.03,1.5l-4.06-1.37c-1.26-.42-1.94-1.79-1.51-3.05.42-1.26,1.79-1.94,3.05-1.51h.01s.02.01.02.01Z"/><path class="cls-9" d="M1297.14,515.18l4.05,1.25h.02c1.25.39,1.94,1.71,1.56,2.96-.38,1.25-1.69,1.95-2.94,1.56l-4.1-1.24c-1.25-.38-1.96-1.7-1.58-2.96.38-1.25,1.7-1.96,2.96-1.58h.01s.02,0,.02,0Z"/><path class="cls-9" d="M1310.7,519.19l4.09,1.11h.02c1.24.34,1.97,1.62,1.63,2.86-.34,1.24-1.61,1.97-2.85,1.64l-4.15-1.11c-1.25-.33-1.99-1.61-1.66-2.86s1.61-1.99,2.86-1.66h.01s.02,0,.02,0Z"/><path class="cls-9" d="M1324.39,522.73l4.13.96h.03c1.23.29,2,1.53,1.71,2.76-.29,1.23-1.51,2-2.74,1.72l-4.19-.95c-1.24-.28-2.02-1.52-1.73-2.76.28-1.24,1.52-2.02,2.76-1.73h.01s.03,0,.03,0Z"/><path class="cls-9" d="M1338.19,525.74l4.17.79h.03c1.23.24,2.03,1.42,1.8,2.65-.23,1.23-1.4,2.03-2.63,1.8l-4.23-.78c-1.23-.23-2.05-1.41-1.82-2.64.23-1.23,1.41-2.05,2.64-1.82h.01s.03,0,.03,0Z"/><path class="cls-9" d="M1352.11,528.16l4.19.61h.03c1.22.18,2.06,1.31,1.88,2.52-.18,1.22-1.29,2.06-2.51,1.89l-4.25-.59c-1.22-.17-2.08-1.3-1.9-2.52.17-1.22,1.3-2.08,2.52-1.9h.01s.03,0,.03,0Z"/><path class="cls-9" d="M1366.11,529.95l4.21.4h.03c1.2.12,2.09,1.19,1.97,2.39-.12,1.2-1.17,2.09-2.38,1.97l-4.28-.39c-1.21-.11-2.1-1.18-1.99-2.39.11-1.21,1.18-2.1,2.39-1.99h.01s.03,0,.03,0Z"/><path class="cls-9" d="M1380.17,531.04l4.22.18h.03c1.19.05,2.11,1.06,2.06,2.25-.05,1.19-1.05,2.11-2.24,2.06l-4.29-.17c-1.2-.05-2.13-1.05-2.08-2.25.05-1.2,1.05-2.13,2.25-2.08h.01s.03,0,.03,0Z"/><path class="cls-9" d="M1394.26,531.39l4.23-.04h.04c1.17-.01,2.12.93,2.14,2.09.01,1.16-.92,2.11-2.08,2.14l-4.3.08c-1.18.02-2.15-.92-2.17-2.09-.02-1.18.92-2.15,2.09-2.17h.02s.04,0,.04,0Z"/><path class="cls-9" d="M1408.34,530.95l4.22-.3h.04c1.13-.08,2.12.77,2.2,1.9.08,1.13-.76,2.11-1.89,2.2l-4.29.35c-1.14.09-2.14-.76-2.23-1.9-.09-1.14.76-2.14,1.9-2.23h.02s.04,0,.04,0Z"/><path class="cls-9" d="M1422.37,529.63l4.19-.57h.04c1.09-.15,2.1.61,2.25,1.7.15,1.09-.61,2.09-1.69,2.24l-4.26.62c-1.1.16-2.12-.6-2.28-1.7-.16-1.1.6-2.12,1.7-2.28h.02s.04,0,.04,0Z"/><path class="cls-9" d="M1436.28,527.4l4.14-.85h.04c1.05-.22,2.07.45,2.28,1.5.21,1.04-.45,2.06-1.49,2.28l-4.21.9c-1.05.22-2.09-.45-2.32-1.5-.22-1.05.45-2.09,1.5-2.32h.02s.04-.01.04-.01Z"/><path class="cls-9" d="M1450.01,524.26l4.08-1.12h.04c1-.28,2.03.3,2.3,1.3.27.99-.31,2.02-1.29,2.3l-4.14,1.18c-1.01.29-2.05-.3-2.34-1.3-.29-1.01.3-2.05,1.3-2.34h.02s.04-.01.04-.01Z"/><path class="cls-9" d="M1463.5,520.19l3.99-1.4h.04c.94-.35,1.98.15,2.31,1.1.33.94-.16,1.97-1.09,2.31l-4.05,1.46c-.95.34-2-.15-2.35-1.1-.34-.95.15-2,1.1-2.35h.01s.04-.02.04-.02Z"/><path class="cls-9" d="M1476.67,515.18l3.87-1.69.04-.02c.89-.39,1.92.02,2.31.91.38.88-.01,1.91-.89,2.3l-3.93,1.76c-.89.4-1.94,0-2.34-.9s0-1.94.9-2.34h.01s.04-.02.04-.02Z"/><path class="cls-9" d="M1489.42,509.2l3.73-1.98.04-.02c.83-.44,1.85-.13,2.29.7.44.82.13,1.84-.69,2.28l-3.79,2.05c-.83.45-1.87.14-2.32-.69-.45-.83-.14-1.87.69-2.32h.01s.04-.03.04-.03Z"/><path class="cls-9" d="M1501.67,502.25l3.56-2.28.03-.02c.76-.49,1.77-.27,2.25.49.48.75.27,1.76-.48,2.25l-3.61,2.36c-.76.5-1.79.28-2.28-.48-.5-.76-.28-1.79.48-2.28h.01s.03-.03.03-.03Z"/><path class="cls-9" d="M1513.29,494.3l3.35-2.58.03-.03c.69-.53,1.67-.4,2.2.29.53.68.4,1.66-.28,2.2l-3.39,2.66c-.69.54-1.69.42-2.23-.27-.54-.69-.42-1.69.27-2.23h.01s.03-.03.03-.03Z"/><path class="cls-9" d="M1524.16,485.36l3.1-2.87.03-.03c.61-.57,1.57-.53,2.14.08.56.61.53,1.56-.07,2.13l-3.13,2.96c-.61.58-1.58.55-2.16-.06-.58-.61-.55-1.58.06-2.16h0s.03-.04.03-.04Z"/><path class="cls-9" d="M1534.16,475.45l2.81-3.15.03-.03c.53-.6,1.45-.65,2.05-.12.6.53.65,1.44.13,2.04l-2.84,3.24c-.53.61-1.46.67-2.07.14-.61-.53-.67-1.46-.14-2.07h0s.03-.04.03-.04Z"/></svg>