<?xml version="1.0" encoding="UTF-8"?><svg id="Layer_2" xmlns="http://www.w3.org/2000/svg" viewBox="0 0 63.11 99.47"><defs><style>.cls-1{fill:#fff;}</style></defs><g id="Layer_1-2"><path class="cls-1" d="M25.99,16.43C11.66,16.43,0,28.09,0,42.42c0,3.34.21,6.28,1.24,10.58,1.86,7.58,6.43,17.97,7.97,21.37-.69.95-1.07,2.06-1.08,3.22-.02,1.47.56,2.85,1.55,3.91-.96,1.03-1.53,2.36-1.55,3.78-.02,1.66.71,3.18,1.91,4.28-.88,1-1.39,2.27-1.4,3.64-.03,3.25,2.81,5.92,6.32,5.97l23.45.31h.09c1.75,0,3.43-.67,4.63-1.84,1.1-1.08,1.72-2.49,1.73-3.98.02-1.66-.71-3.18-1.91-4.27.88-1,1.39-2.27,1.4-3.64.01-1.47-.56-2.84-1.55-3.91.96-1.03,1.53-2.36,1.55-3.78.01-1.46-.56-2.81-1.51-3.85,1.61-3.56,6.06-13.75,7.89-21.21,1.03-4.29,1.24-7.22,1.24-10.57,0-14.33-11.66-25.99-25.99-25.99ZM40.59,95.04c-.53.52-1.31.83-2.13.8l-23.45-.31c-1.53-.02-2.76-1.05-2.74-2.3,0-.97.77-1.82,1.9-2.12.83-.22,1.39-.99,1.35-1.84-.04-.85-.67-1.56-1.51-1.7-1.31-.22-2.25-1.17-2.24-2.26,0-.91.72-1.75,1.78-2.08.76-.24,1.27-.93,1.28-1.72,0-.79-.51-1.5-1.26-1.74-1.08-.35-1.8-1.21-1.79-2.15,0-.46.17-.82.37-1.1h27.93c.41.4.67.92.67,1.49,0,.92-.72,1.75-1.78,2.08-.76.23-1.27.93-1.28,1.72,0,.79.51,1.49,1.26,1.74,1.08.35,1.8,1.21,1.79,2.15,0,.97-.77,1.81-1.89,2.11-.82.22-1.38.99-1.34,1.84.04.85.67,1.56,1.51,1.7,1.29.21,2.25,1.18,2.23,2.26,0,.66-.35,1.14-.64,1.42ZM47.21,52.13c-1.77,7.21-6.28,17.49-7.76,20.77H12.53c-1.48-3.28-5.99-13.56-7.76-20.76-.95-3.94-1.14-6.64-1.14-9.72,0-12.33,10.03-22.36,22.36-22.36s22.36,10.03,22.36,22.36c0,3.08-.19,5.77-1.14,9.71Z"/><path class="cls-1" d="M61.71,14.39l-11.05,6.06c-.46.25-.62.83-.37,1.28.1.18.25.31.42.4.27.13.59.13.86-.02l11.05-6.06c.46-.25.62-.83.37-1.28-.25-.46-.83-.62-1.28-.37Z"/><path class="cls-1" d="M45.31,17.74c.56.13,1.13-.19,1.3-.74l4.91-15.56c.18-.58-.14-1.2-.72-1.39-.58-.19-1.2.14-1.39.72l-4.91,15.56c-.18.58.14,1.2.72,1.39.03,0,.05.02.08.02Z"/><path class="cls-1" d="M22.47,24.87c-4.07.09-11.93,2.61-12.53,11.54-.08,1.2.83,2.23,2.02,2.31h0c1.18.07,2.23-.83,2.31-2.02.04-.57.12-1.12.26-1.66.91-3.59,3.81-4.99,6.09-5.54,1.07-.26,1.85-.29,1.94-.29,1.19-.03,2.15-1.02,2.12-2.22-.03-1.17-1-2.13-2.22-2.13Z"/></g></svg>