<?xml version="1.0" encoding="UTF-8"?><svg id="Layer_2" xmlns="http://www.w3.org/2000/svg" viewBox="0 0 84.66 91.26"><defs><style>.cls-1{fill:#fff;}</style></defs><g id="Layer_1-2"><path class="cls-1" d="M54.92,30.86c-.31-.25-.72-.36-1.11-.28l-35.22,6.8c-.63.12-1.09.67-1.09,1.32v34.75c-2.52-.3-5.42.11-8.21,1.17-6.65,2.55-10.57,7.93-8.91,12.23.83,2.17,2.92,3.66,5.87,4.19.77.14,1.58.21,2.41.21,2.09,0,4.34-.43,6.53-1.28,5.54-2.13,9.33-6.33,9.28-10.26,0-.03,0-.06,0-.08v-22.77l23.96-4.62v13.54c-2.53-.3-5.43.11-8.21,1.18-6.65,2.55-10.56,7.93-8.91,12.24.83,2.17,2.92,3.66,5.87,4.19,2.71.49,5.88.11,8.94-1.07,5.42-2.08,9.2-6.2,9.28-10.06,0-.05.01-.11.01-.16V31.9c0-.39-.17-.75-.44-.99-.02-.01-.03-.03-.05-.04ZM52.73,71.94c0,.05,0,.11,0,.17.02,2.77-3.16,6.01-7.56,7.7-2.61,1-5.27,1.33-7.51.93-1.99-.36-3.35-1.25-3.84-2.51-1.08-2.8,2.3-6.82,7.37-8.77,2.91-1.12,5.92-1.4,8.24-.77.4.11.83.02,1.17-.23.33-.25.53-.65.53-1.07v-16.78c0-.4-.18-.78-.49-1.03-.31-.26-.72-.36-1.11-.28l-26.65,5.14c-.63.12-1.09.67-1.09,1.32v23.77c0,.05,0,.1,0,.16.09,2.75-3.16,6.1-7.56,7.79-2.61,1-5.27,1.33-7.51.93-1.99-.36-3.35-1.25-3.84-2.51-1.08-2.8,2.3-6.82,7.37-8.77,1.89-.73,3.82-1.1,5.57-1.1.95,0,1.85.11,2.67.33.4.11.83.03,1.17-.23.33-.25.53-.65.53-1.07v-35.26l32.54-6.28v38.42Z"/><path class="cls-1" d="M23.13,52.22c.08,0,.17,0,.25-.02l26.65-5.14c.63-.12,1.09-.67,1.09-1.32v-3.71c0-.4-.18-.78-.49-1.04-.31-.25-.72-.36-1.11-.28l-26.65,5.14c-.63.12-1.09.67-1.09,1.32v3.71c0,.4.18.78.49,1.04.24.2.55.31.86.31ZM24.48,48.27l23.96-4.62v.98l-23.96,4.62v-.98Z"/><path class="cls-1" d="M84.64,4.86s-.02-.06-.03-.09c-.08-.2-.26-.34-.47-.39L64.64.02c-.31-.07-.63.09-.76.39l-7.76,17.82c-1.22-.73-2.81-1.18-4.49-1.26-1.81-.08-3.54.28-4.87,1.01-1.44.79-2.26,1.92-2.32,3.18-.06,1.27.66,2.47,2.03,3.38,1.26.84,2.96,1.35,4.77,1.43,3.28.15,6.12-1.14,6.95-3.14,0-.01,0-.02.02-.03l5.09-11.69,13.42,3-3.08,7.08c-1.22-.73-2.81-1.19-4.5-1.26-3.92-.17-7.08,1.67-7.19,4.19-.06,1.27.66,2.46,2.03,3.38,1.26.84,2.96,1.35,4.76,1.43.17,0,.33.01.49.01,2.99,0,5.57-1.21,6.41-3.04.02-.03.03-.05.04-.08l8.94-20.52c.06-.14.07-.3.03-.45ZM74.47,25.21s-.03.05-.04.08c-.62,1.45-2.99,2.42-5.65,2.3-1.57-.07-3.02-.5-4.08-1.21-.96-.64-1.47-1.42-1.43-2.2.07-1.63,2.49-2.92,5.37-2.92.14,0,.28,0,.42,0,1.75.08,3.36.61,4.42,1.46.16.13.38.18.58.13.2-.05.37-.19.45-.38l3.73-8.57c.08-.18.07-.39-.02-.57-.09-.18-.26-.31-.45-.35l-14.75-3.3c-.31-.07-.63.09-.76.39l-5.29,12.15s-.02.04-.03.07c-.58,1.45-3.01,2.46-5.67,2.34-1.57-.07-3.02-.5-4.08-1.21-.96-.64-1.47-1.42-1.44-2.2.04-.78.61-1.51,1.62-2.07,1.12-.61,2.6-.91,4.17-.84,1.75.08,3.37.61,4.42,1.46.16.13.38.18.58.13.2-.05.37-.19.45-.38l7.87-18.06,18.17,4.06-8.58,19.7Z"/><path class="cls-1" d="M64.18,5.68l-.83,1.9c-.08.18-.07.39.02.57.09.18.26.31.45.35l14.75,3.3s.1.02.15.02c.26,0,.51-.15.61-.4l.83-1.9c.08-.18.07-.39-.02-.57-.09-.18-.26-.31-.45-.35l-14.75-3.3c-.31-.07-.63.09-.76.39ZM65.19,6.72l13.42,3-.28.64-13.42-3,.28-.64Z"/></g></svg>