<?xml version="1.0" encoding="UTF-8"?><svg id="Layer_2" xmlns="http://www.w3.org/2000/svg" viewBox="0 0 84.5 79.9"><defs><style>.cls-1{fill:#fff;}</style></defs><g id="Layer_1-2"><path class="cls-1" d="M84.46,74.97c-3.16-21.53-6.32-43.06-9.47-64.6-.46-3.11-.91-6.22-1.37-9.33-.12-.85-1.11-1.13-1.81-1.03-7.03,1.03-14.06,2.06-21.1,3.09-.85.12-1.13,1.1-1.03,1.81,1.37,9.37,2.75,18.75,4.12,28.12-6.62-6.38-13.25-12.76-19.87-19.14-2.26-2.18-4.53-4.36-6.79-6.54-.56-.54-1.52-.58-2.08,0-4.93,5.12-9.86,10.24-14.79,15.36-.54.56-.58,1.52,0,2.08,1.24,1.19,2.47,2.38,3.71,3.58-1.01-.46-2.03-.92-3.04-1.37-.66-.3-1.66-.25-2.01.53-2.93,6.48-5.85,12.95-8.78,19.43-.3.66-.25,1.66.53,2.01,3.56,1.61,7.11,3.21,10.67,4.82-2.26-.03-4.51-.05-6.77-.08-.8,0-1.46.68-1.47,1.47-.08,7.11-.17,14.21-.25,21.32,0,.8.68,1.46,1.47,1.47,18.72.22,37.44.44,56.16.66.01.08.02.15.03.23.12.85,1.11,1.13,1.81,1.03l5.12-.75c.44.2.89.4,1.33.6.66.3,1.66.25,2.01-.53.07-.15.14-.3.2-.46,2.68.03,5.37.06,8.05.09.8,0,1.46-.68,1.47-1.47,0-.05,0-.11,0-.16.97-.14,1.94-.28,2.91-.43.85-.13,1.14-.79,1.04-1.44,0-.12,0-.24-.01-.36ZM13.4,23.71c4.25-4.41,8.5-8.83,12.75-13.24,9.45,9.1,18.91,18.21,28.36,27.31,1.45,9.91,2.91,19.82,4.36,29.72-13.24-12.75-26.48-25.5-39.72-38.26-1.92-1.85-3.84-3.69-5.75-5.54ZM10.77,50.31c-2.47-1.11-4.93-2.23-7.4-3.34,2.53-5.59,5.05-11.18,7.58-16.77,3.11,1.4,6.21,2.81,9.32,4.21,12.35,11.89,24.7,23.79,37.04,35.68.75.73,1.51,1.45,2.26,2.18,0,.03,0,.07.01.1-16.27-7.35-32.54-14.7-48.81-22.05ZM13.77,75.13c-2.65-.03-5.3-.06-7.94-.09.07-6.13.14-12.26.22-18.38,4,.05,8,.09,11.99.14,13.93,6.29,27.86,12.59,41.78,18.88-15.35-.18-30.7-.36-46.05-.54ZM63.18,76.8c-3.1-21.11-6.19-42.22-9.29-63.33-.38-2.57-.75-5.14-1.13-7.71,6.07-.89,12.14-1.78,18.21-2.67,3.1,21.11,6.19,42.22,9.29,63.33.38,2.57.75,5.14,1.13,7.71-6.07.89-12.14,1.78-18.21,2.67Z"/><path class="cls-1" d="M71.21,62.87c-2.71,0-4.92,2.21-4.92,4.92s2.21,4.92,4.92,4.92,4.92-2.21,4.92-4.92-2.21-4.92-4.92-4.92ZM71.21,71.15c-1.85,0-3.35-1.5-3.35-3.35s1.5-3.35,3.35-3.35,3.35,1.5,3.35,3.35-1.5,3.35-3.35,3.35Z"/></g></svg>