<?xml version="1.0" encoding="UTF-8"?><svg id="Layer_2" xmlns="http://www.w3.org/2000/svg" viewBox="0 0 71.65 71.73"><defs><style>.cls-1{fill:#fff;}</style></defs><g id="Layer_1-2"><path class="cls-1" d="M71.65,60.31c0-.66-.44-1.25-1.09-1.43l-15.44-4.4c-.19-.05-.38-.06-.56-.04-.44.06-.84.33-1.03.74-.17.37-.17.8.02,1.16l6.88,14.52c.3.64,1.04.99,1.7.82.54-.14.91-.59.96-1.08l.67-3.74,3.34,2.83c.66.56,1.55.76,2.39.54.52-.14.99-.43,1.35-.85.94-1.12.8-2.79-.31-3.74l-3.37-2.85,3.55-1.25c.57-.16.95-.66.96-1.25ZM64.31,62.29l5.28,4.47c.51.44.58,1.21.14,1.72-.17.19-.38.33-.62.39-.39.1-.8,0-1.1-.25l-5.24-4.44-1.09,6.04-6.81-14.31,15.24,4.34-5.8,2.04Z"/><path class="cls-1" d="M0,43.43c0,3.95,3.21,7.16,7.16,7.16h3.88L.24,68.89c-.26.44-.26.99,0,1.44.25.45.73.72,1.24.72h47.64c.51,0,.99-.28,1.24-.72.25-.45.25-1,0-1.44l-10.8-18.3h3.88c3.95,0,7.16-3.21,7.16-7.16V7.16c0-3.95-3.21-7.16-7.16-7.16H7.16C3.21,0,0,3.21,0,7.16v36.27ZM46.61,68.18H3.98l21.31-36.12,21.31,36.12ZM2.86,7.16c0-2.37,1.93-4.29,4.29-4.29h36.27c2.37,0,4.29,1.93,4.29,4.29v36.27c0,2.37-1.93,4.29-4.29,4.29h-5.57l-11.33-19.2c-.26-.44-.73-.7-1.23-.7s-.97.27-1.23.7l-11.33,19.2h-5.57c-2.37,0-4.29-1.93-4.29-4.29V7.16Z"/></g></svg>