<?xml version="1.0" encoding="UTF-8"?><svg id="Layer_2" xmlns="http://www.w3.org/2000/svg" xmlns:xlink="http://www.w3.org/1999/xlink" viewBox="0 0 1833.59 1336.11"><defs><style>.cls-1{fill:#91b3fa;}.cls-2{fill:url(#linear-gradient-8);}.cls-3{fill:url(#linear-gradient-7);}.cls-4{fill:url(#linear-gradient-5);}.cls-5{fill:url(#linear-gradient-6);}.cls-6{fill:url(#linear-gradient-9);}.cls-7{fill:url(#linear-gradient-4);}.cls-8{fill:url(#linear-gradient-3);}.cls-9{fill:url(#linear-gradient-2);}.cls-10{fill:url(#linear-gradient);}.cls-11{opacity:.49;}.cls-11,.cls-12,.cls-13,.cls-14,.cls-15{fill:#fff;}.cls-12{opacity:.61;}.cls-13{opacity:.64;}.cls-14{opacity:.71;}.cls-16{fill:#310000;}.cls-17{fill:#7d97f4;}.cls-18{fill:url(#linear-gradient-10);}.cls-19{fill:url(#linear-gradient-11);}.cls-20{fill:url(#linear-gradient-12);}.cls-21{fill:url(#linear-gradient-13);}.cls-22{fill:url(#linear-gradient-19);}.cls-23{fill:url(#linear-gradient-14);}.cls-24{fill:url(#linear-gradient-21);}.cls-25{fill:url(#linear-gradient-20);}.cls-26{fill:url(#linear-gradient-22);}.cls-27{fill:url(#linear-gradient-23);}.cls-28{fill:url(#linear-gradient-25);}.cls-29{fill:url(#linear-gradient-15);}.cls-30{fill:url(#linear-gradient-16);}.cls-31{fill:url(#linear-gradient-17);}.cls-32{fill:url(#linear-gradient-18);}.cls-33{fill:url(#linear-gradient-24);}.cls-34{fill:url(#linear-gradient-26);}.cls-35{opacity:.18;}.cls-36{fill:#bca58e;}.cls-37{fill:#960000;}</style><linearGradient id="linear-gradient" x1="715.56" y1="1086.05" x2="1111.59" y2="146.95" gradientUnits="userSpaceOnUse"><stop offset="0" stop-color="#fe7062"/><stop offset="1" stop-color="#ff928e"/></linearGradient><linearGradient id="linear-gradient-2" x1="743.05" y1="494.92" x2="907.98" y2="494.92" gradientUnits="userSpaceOnUse"><stop offset="0" stop-color="#dae3fe"/><stop offset="1" stop-color="#e9effd"/></linearGradient><linearGradient id="linear-gradient-3" x1="1526.5" y1="200.62" x2="1560.42" y2="200.62" xlink:href="#linear-gradient-2"/><linearGradient id="linear-gradient-4" x1="1535.57" y1="180.68" x2="1589.75" y2="180.68" xlink:href="#linear-gradient-2"/><linearGradient id="linear-gradient-5" x1="1531.19" y1="165.68" x2="1615.83" y2="165.68" xlink:href="#linear-gradient-2"/><linearGradient id="linear-gradient-6" x1="1526.82" y1="150.69" x2="1641.78" y2="150.69" xlink:href="#linear-gradient-2"/><linearGradient id="linear-gradient-7" x1="1304.97" y1="225.66" x2="1376.1" y2="225.66" xlink:href="#linear-gradient-2"/><linearGradient id="linear-gradient-8" x1="768.66" y1="636.31" x2="780.86" y2="636.31" xlink:href="#linear-gradient-2"/><linearGradient id="linear-gradient-9" x1="152.57" y1="857.49" x2="1777.67" y2="857.49" xlink:href="#linear-gradient-2"/><linearGradient id="linear-gradient-10" x1="1774.54" y1="1121.4" x2="1779.58" y2="1121.4" xlink:href="#linear-gradient-2"/><linearGradient id="linear-gradient-11" x1="1064.16" y1="235.79" x2="1149.81" y2="235.79" xlink:href="#linear-gradient-2"/><linearGradient id="linear-gradient-12" x1="1187.04" y1="66.93" x2="1303.98" y2="66.93" xlink:href="#linear-gradient-2"/><linearGradient id="linear-gradient-13" x1="1231.5" y1="67.33" x2="1259.46" y2="67.33" xlink:href="#linear-gradient-2"/><linearGradient id="linear-gradient-14" x1="1230.2" y1="67.33" x2="1260.76" y2="67.33" xlink:href="#linear-gradient-2"/><linearGradient id="linear-gradient-15" x1="1206.1" y1="67.19" x2="1281.98" y2="67.19" xlink:href="#linear-gradient-2"/><linearGradient id="linear-gradient-16" x1="1204.8" y1="67.19" x2="1283.28" y2="67.19" xlink:href="#linear-gradient-2"/><linearGradient id="linear-gradient-17" x1="1199.78" y1="47.53" x2="1290.94" y2="47.53" xlink:href="#linear-gradient-2"/><linearGradient id="linear-gradient-18" x1="1198.48" y1="47.53" x2="1292.24" y2="47.53" xlink:href="#linear-gradient-2"/><linearGradient id="linear-gradient-19" x1="1212.99" y1="28.39" x2="1277.73" y2="28.39" xlink:href="#linear-gradient-2"/><linearGradient id="linear-gradient-20" x1="1211.69" y1="28.39" x2="1279.05" y2="28.39" xlink:href="#linear-gradient-2"/><linearGradient id="linear-gradient-21" x1="1195.82" y1="66.67" x2="1294.9" y2="66.67" xlink:href="#linear-gradient-2"/><linearGradient id="linear-gradient-22" x1="1194.52" y1="66.67" x2="1296.21" y2="66.67" xlink:href="#linear-gradient-2"/><linearGradient id="linear-gradient-23" x1="1199.78" y1="85.81" x2="1290.94" y2="85.81" xlink:href="#linear-gradient-2"/><linearGradient id="linear-gradient-24" x1="1198.48" y1="85.81" x2="1292.24" y2="85.81" xlink:href="#linear-gradient-2"/><linearGradient id="linear-gradient-25" x1="1214.49" y1="104.96" x2="1279.5" y2="104.96" xlink:href="#linear-gradient-2"/><linearGradient id="linear-gradient-26" x1="1213.19" y1="104.96" x2="1280.8" y2="104.96" xlink:href="#linear-gradient-2"/></defs><g id="Illustration"><path class="cls-36" d="M67.83,1017.72h558.76c17.82,0,32.26-14.44,32.26-32.26V148.57c0-17.78-14.39-32.21-32.18-32.26l-563.23-1.51c-17.92-.05-32.44,14.52-32.35,32.43l4.47,838.4c.09,17.75,14.51,32.09,32.26,32.09Z"/><path class="cls-16" d="M95.21,156.09l499.62,3.08c18.06.11,32.62,14.83,32.53,32.89l-3.49,751.14c-.08,17.79-14.35,32.25-32.14,32.58l-485.44,8.86c-18.13.33-33.08-14.14-33.33-32.27l-10.69-763.07c-.26-18.34,14.6-33.31,32.93-33.19Z"/><rect class="cls-15" x="115.53" y="188.38" width="404.54" height="23.03" rx="9.79" ry="9.79"/><path class="cls-15" d="M158.48,241.5h0c.28,5.13,4.47,9.17,9.6,9.26l336.66,6.14c5.48.1,9.97-4.31,9.97-9.79v-.8c0-5.35-4.29-9.71-9.64-9.79l-336.66-5.34c-5.68-.09-10.24,4.65-9.93,10.32Z"/><path class="cls-15" d="M124.11,958.97c-15.14,0-27.63-12.22-27.9-27.41l-10.92-614.34c-.27-15.36,12-28.09,27.35-28.39l454.56-8.85c7.44-.14,14.52,2.62,19.89,7.79,5.37,5.17,8.41,12.12,8.55,19.58l11.72,617.72c.14,7.49-2.65,14.57-7.86,19.95-5.21,5.38-12.21,8.39-19.7,8.48l-455.35,5.46c-.11,0-.22,0-.34,0ZM567.76,289.26c-.12,0-.25,0-.37,0l-454.56,8.85c-10.25.2-18.43,8.7-18.25,18.95h0l10.92,614.34c.18,10.2,8.64,18.38,18.84,18.28l455.35-5.46c5-.06,9.66-2.07,13.14-5.66s5.34-8.32,5.25-13.31l-11.72-617.72c-.1-4.97-2.12-9.61-5.71-13.06-3.49-3.36-8.06-5.2-12.9-5.2Z"/><path class="cls-12" d="M591.75,351.07H95.83c-2.56,0-4.64-2.08-4.64-4.64s2.08-4.64,4.64-4.64h495.91c2.56,0,4.64,2.08,4.64,4.64s-2.08,4.64-4.64,4.64Z"/><path class="cls-16" d="M1601.74,1207.9c0,14.82-12.14,26.95-26.98,26.95H115.76c-14.84,0-26.98-12.13-26.98-26.95l-12.14-838.45c0-14.82,17.47-43.77,49.48-41.59l1425.89-36.9c18.62-.48,36.62,6.68,49.81,19.83,13.18,13.14,20.4,31.11,19.96,49.71l-20.04,847.39Z"/><path class="cls-36" d="M1575.1,1182.04c0,14.04-11.49,25.53-25.53,25.53H150.95c-14.04,0-25.53-11.49-25.53-25.53l-11.46-761.15c1.35-45.8,41.51-62.27,65.85-61.29l1366.63-36.66c13.08-.35,25.73,4.69,34.99,13.93,9.26,9.24,14.32,21.89,13.99,34.97l-20.32,810.21Z"/><path class="cls-15" d="M140.54,819.02c-1.27,0-2.3-1.02-2.32-2.29l-.91-61.73c-.02-1.28,1.01-2.34,2.29-2.36,1.19.05,2.34,1,2.36,2.29l.91,61.73c.02,1.28-1.01,2.34-2.29,2.35h-.04Z"/><path class="cls-15" d="M138.31,667.75c-1.27,0-2.3-1.02-2.32-2.29l-3.47-236.42c.07-15.87,4.96-28.54,14.54-37.72,17.4-16.68,44.62-15.83,45.77-15.79l436.4-11.71c1.33-.04,2.35.98,2.38,2.26.04,1.28-.98,2.35-2.26,2.38l-436.53,11.71c-1.25-.04-26.55-.83-42.55,14.5-8.63,8.27-13.04,19.83-13.11,34.34l3.47,236.37c.02,1.28-1.01,2.34-2.29,2.36h-.04Z"/><g class="cls-35"><path class="cls-1" d="M187.04,1139.81c1.46-62.91.92-619.99-2.69-668.1-3.61-48.11,71.32-57.14,186.36-62.55,115.04-5.41,1085.7-26.85,1110.69-28.88,56.18-4.56,67.81,79.41,62.18,261.7-4.22,136.95-11.22,362.55-14.44,466.3-.96,30.89-26.21,55.4-57.11,55.49-233.58.64-1128.82,3.21-1188.42,4.98-68.58,2.04-97.16-4-96.57-28.94Z"/></g><path class="cls-16" d="M1720.1,1267.62c0,20.26-16.58,36.83-36.83,36.83H36.83c-20.26,0-36.83-16.58-36.83-36.83h0c0-20.26,16.58-36.83,36.83-36.83h1646.43c20.26,0,36.83,16.58,36.83,36.83h0Z"/><path d="M1665.84,1304.16s1.91,10.79,2.84,21.48c.37,4.18-2.85,7.8-7.04,7.98-14.23.59-44.67,1.74-55.59,1.26-1.64-.07-2.72-1.75-2.11-3.28h0c.51-1.28,1.49-2.31,2.74-2.89l50.28-23.11,8.88-1.44Z"/><path class="cls-36" d="M1667.4,1297.81l-1.53,12.91s-8.81,4.1-14.82-.52l3.65-14.39,12.71,1.99Z"/><path d="M1666.25,1055.07c.66,3.37,3.55,168.26-14.07,242.15-.29,1.21.32,2.45,1.47,2.92,2.7,1.1,8,2.7,14.35,2.92,1.97.07,3.73-1.21,4.29-3.1,5.04-17.14,29.18-103.04,32.33-185.1,3.52-91.69,0-3.12,0-3.12l-2.06-56.68h-36.3Z"/><path d="M1723.68,1309.79s3.03,5.45,5.97,19.93c.53,2.62-1.3,5.12-3.95,5.38-4.7.46-11.93,1.06-17.73,1.02-2.67-.02-4.76-2.34-4.43-5,.64-5.29,2.64-13.96,8.82-20.72l11.32-.61Z"/><path class="cls-36" d="M1726.34,1293.18l-3.58,19.53s-3.54,2.63-10.54.72l1.71-21.01,12.41.76Z"/><path d="M1736.01,1060.13c14.42,87-3.13,215.02-9.04,240.08-.36,1.53-1.6,2.71-3.15,2.97-2.64.44-6.99.79-11.28-.45-1.48-.43-2.51-1.76-2.57-3.3-.79-20.26.63-144.62-12.8-193.77-.68-2.49-2.2-4.66-4.31-6.16l-26.07-18.53-2-29.96,71.22,9.13Z"/><path class="cls-16" d="M1644.16,895.29c43.2-.71,90.87,11.34,90.87,11.34,12.88,75.14,2.25,161.8,2.25,161.8-33.44,8.77-71.17-5.36-71.17-5.36-5.56-31.41-31.49-119.79-31.49-119.79-21.11-2.62-38.5-8.71-52.81-16.76,10.92-12.66,16.07-28.77,18.31-38.29,15.27,4.75,30.73,7.28,44.05,7.06Z"/><path class="cls-36" d="M1516.56,831.65c4.24-5.13,9.61-2.7,9.61-2.7,6.36,26.85,39.69,48.63,73.94,59.27-2.24,9.52-7.39,25.63-18.31,38.29-56.83-31.95-65.24-94.86-65.24-94.86Z"/><path class="cls-36" d="M1517.59,832.96c-.44,1.41,4.7,3.56,7.73-2.21.11-2.77,1.79-14.62.14-16.88-8.81-12.01-25.88-27.06-25.88-27.06-2.89,2.85-.51,5.64-.51,5.64l8.28,8.63c-1.73,3.13-3.85,5.77-4.84,9.56-.75,2.87-.29,5.93,1.16,8.54,1.45,2.62,3.44,6.02,5.31,8.69,3.55,5.04,8.61,5.08,8.61,5.08Z"/><path class="cls-36" d="M1510.96,806.69l7.55,6.4,2.37,6.37-6.73,7.47s-2.26-12.64-3.94-15.38c-1.68-2.74-.81-4.06.76-4.86Z"/><path class="cls-16" d="M1718.46,948.46l16.57-41.83s40.35,27.42,46.99,62.18c-7.62.56-21.5,2.54-35.08,9.4-2.98-16.41-28.48-29.75-28.48-29.75Z"/><path class="cls-36" d="M1683.19,987.82s45.3,25.6,60.59,3.74c3.17-4.54,3.93-9.05,3.15-13.35,13.58-6.86,27.45-8.84,35.08-9.4,2,10.48.94,21.62-5.22,32.89-26.78,48.98-99.6-2.71-99.6-2.71l6-11.17Z"/><path class="cls-16" d="M1688.64,1020.21l-24.73-86.35c-.28-.98-1.12-1.69-2.13-1.81-4.48-.52-17.46-1.99-32.45-3.26-18.05-1.53-39.02-2.76-51.55-1.71-1.78.15-2.86,2.03-2.07,3.64,7.12,14.41,36.43,73.04,51.1,92.25.49.64,1.24,1.01,2.04,1l57.37-.53c1.67-.02,2.87-1.62,2.41-3.22Z"/><path class="cls-36" d="M1626.77,921.31l-17.93-2.99c-.95-.16-1.74.75-1.43,1.67l1.77,5.38c.15.47.56.81,1.05.87l17.25,2.3c.89.12,1.63-.69,1.42-1.57l-1.1-4.69c-.12-.51-.53-.89-1.04-.98Z"/><path class="cls-37" d="M1640.19,936.48l-1.48-7.69c-.15-.77-.79-1.35-1.57-1.43l-36.21-3.67c-1.22-.12-2.19.99-1.91,2.18l2.3,9.59c.18.77.85,1.32,1.64,1.36l35.38,1.78c1.15.06,2.05-.98,1.84-2.11Z"/><path class="cls-36" d="M1682.66,999.35s3.44-14.16,2.05-19.19c-1.39-5.02-4.08-11.48-13.05-10.05-8.97,1.44-19.56,5.22-19.56,5.22,0,0,.53,6.54,7.35,4.43l-4.23,3.27s.6,5.24,6.36,2.44l-3.93,4.34s2.47,4.3,6.71,1.54c4.24-2.76,6.27,9.7,18.29,7.99Z"/><path class="cls-36" d="M1687.92,860.21l13.75,39.75c.23.66-.04,1.39-.65,1.72-3.75,2.07-17.25,8.06-33.51-2.25-1.69-1.07-2.85-2.83-3.11-4.82l-4.45-34.4h27.98Z"/><path class="cls-36" d="M1658.01,823.4s-15.09,28.41-13.16,39.89c1.93,11.48,20.64,10.65,36.98,1.33l11.41-30.68-35.23-10.54Z"/><path d="M1681.11,849.56c-.66-.29-.91-1.11-.51-1.71,1.21-1.85,3.48-5.62,4.2-8.92,0,0,2.71-1.74-6.91-4.04-9.62-2.3-23.97-5.88-26.98-14.06-2.94-7.98,4.78-28.06,17.11-12.06.47.61,1.39.62,1.86.01,2.02-2.63,7.33-8.09,14.71-4.78,6.9,3.1,7.68,8.15,7.58,10.7-.03.75.64,1.33,1.38,1.19,3.49-.67,11.86-1.24,15.77,7.35,3.22,7.07,1.13,11.08-.78,13.04-.62.63-.35,1.68.5,1.94,2.29.7,5.25,2.65,4.96,8.02-.41,7.43-8.71,6.77-11.08,6.43-.39-.06-.78.08-1.04.37-2.03,2.24-11.16,11.77-21.04,12.92-.86.1-1.52-.75-1.24-1.56l4.28-12.43c.2-.58-.08-1.21-.64-1.46l-2.12-.94Z"/><path class="cls-36" d="M1679.39,851.32s10.75-7.37,11.53-1.16c.79,6.21-9.68,8.99-14.86,6.68l3.33-5.51Z"/><path class="cls-15" d="M1290.44,709.13c-1.06,0-2.01-.73-2.26-1.8-.68-2.96-1.43-5.96-2.24-8.91-.34-1.24.39-2.51,1.63-2.85,1.24-.34,2.51.39,2.85,1.63.82,3.01,1.59,6.07,2.28,9.09.29,1.25-.49,2.49-1.74,2.78-.17.04-.35.06-.52.06Z"/><path class="cls-15" d="M1065.83,992.36c-3.74,0-7.55-.09-11.31-.27-1.28-.06-2.27-1.15-2.21-2.43.06-1.28,1.18-2.23,2.43-2.21,5.96.29,11.96.34,17.86.17,1.28-.06,2.35.97,2.39,2.25.04,1.28-.97,2.35-2.25,2.39-2.3.07-4.6.1-6.91.1ZM1101.83,989.52c-1.12,0-2.11-.81-2.29-1.96-.2-1.27.66-2.45,1.93-2.66,5.86-.93,11.75-2.1,17.51-3.49,1.25-.3,2.5.47,2.8,1.71.3,1.25-.47,2.5-1.71,2.8-5.88,1.42-11.89,2.62-17.87,3.56-.12.02-.25.03-.37.03ZM1025.51,988.84c-.13,0-.27-.01-.4-.04-5.96-1.05-11.95-2.34-17.81-3.85-1.24-.32-1.99-1.58-1.67-2.83.32-1.24,1.58-1.99,2.83-1.67,5.74,1.48,11.61,2.75,17.46,3.77,1.26.22,2.11,1.42,1.88,2.69-.2,1.13-1.18,1.92-2.28,1.92ZM1147.5,977.32c-.93,0-1.82-.57-2.17-1.49-.46-1.2.14-2.54,1.34-3,5.53-2.11,11.05-4.47,16.41-7.01,1.16-.55,2.54-.06,3.09,1.1.55,1.16.06,2.54-1.1,3.09-5.47,2.59-11.1,5-16.75,7.15-.27.1-.55.15-.83.15ZM980.03,975.93c-.29,0-.58-.05-.86-.17-5.62-2.25-11.22-4.74-16.64-7.42-1.15-.57-1.62-1.96-1.05-3.11.57-1.15,1.95-1.62,3.11-1.05,5.32,2.63,10.8,5.07,16.31,7.27,1.19.48,1.77,1.83,1.29,3.02-.36.91-1.24,1.46-2.16,1.46ZM1189.69,956.03c-.76,0-1.51-.38-1.96-1.07-.69-1.08-.38-2.51.7-3.21,4.99-3.2,9.92-6.64,14.65-10.21,1.02-.78,2.48-.57,3.25.45.77,1.02.57,2.48-.45,3.25-4.82,3.65-9.85,7.15-14.94,10.42-.39.25-.82.37-1.25.37ZM1226.68,926.61c-.6,0-1.2-.23-1.66-.7-.9-.92-.88-2.39.04-3.28,4.24-4.15,8.38-8.51,12.28-12.97.84-.97,2.31-1.06,3.28-.22.96.84,1.06,2.31.22,3.28-3.98,4.55-8.2,9-12.53,13.23-.45.44-1.04.66-1.62.66ZM1256.95,890.28c-.45,0-.9-.13-1.29-.4-1.06-.72-1.35-2.16-.63-3.22,3.31-4.92,6.47-10.03,9.39-15.2.63-1.12,2.05-1.51,3.16-.88,1.12.63,1.51,2.05.88,3.16-2.97,5.27-6.2,10.48-9.58,15.51-.45.67-1.18,1.02-1.93,1.02ZM1279.2,848.55c-.29,0-.59-.06-.87-.17-1.19-.48-1.76-1.84-1.27-3.02,2.23-5.49,4.28-11.14,6.08-16.78.39-1.22,1.7-1.9,2.92-1.51,1.22.39,1.9,1.69,1.51,2.91-1.83,5.76-3.92,11.53-6.2,17.13-.37.9-1.24,1.45-2.15,1.45ZM1292.44,803.17c-.14,0-.28-.01-.42-.04-1.26-.23-2.1-1.44-1.86-2.7,1.07-5.81,1.92-11.76,2.54-17.67.13-1.27,1.27-2.2,2.55-2.07,1.27.13,2.2,1.28,2.07,2.55-.63,6.03-1.51,12.09-2.59,18.02-.21,1.12-1.18,1.9-2.28,1.9ZM1296.24,756.05c-1.26,0-2.29-1.01-2.32-2.27-.12-5.94-.48-11.94-1.06-17.83-.13-1.28.81-2.41,2.08-2.54,1.29-.12,2.41.81,2.54,2.08.59,6.01.95,12.13,1.08,18.19.03,1.28-.99,2.34-2.27,2.37h-.05Z"/><path class="cls-15" d="M938.06,953.86c-.44,0-.89-.13-1.28-.39-2.6-1.73-5.19-3.53-7.69-5.35-1.04-.75-1.27-2.2-.51-3.24.75-1.04,2.2-1.27,3.24-.51,2.45,1.78,4.99,3.55,7.54,5.24,1.07.71,1.36,2.15.65,3.22-.45.67-1.18,1.03-1.93,1.03Z"/><path class="cls-10" d="M838.61,802.92c-1.1,0-2.08-.78-2.28-1.9-.56-3.08-1.07-6.19-1.5-9.25-.18-1.27.7-2.44,1.97-2.62,1.26-.19,2.44.7,2.62,1.97.42,3,.92,6.05,1.47,9.07.23,1.26-.61,2.47-1.87,2.7-.14.02-.28.04-.42.04Z"/><path class="cls-15" d="M834.87,765.02c-1.26,0-2.3-1.02-2.32-2.28-.02-1.24-.03-2.48-.03-3.73,0-4.71.14-9.49.43-14.19.08-1.28,1.17-2.28,2.46-2.18,1.28.08,2.25,1.18,2.18,2.46-.28,4.61-.42,9.3-.42,13.91,0,1.22.01,2.44.03,3.65.02,1.28-1,2.34-2.28,2.36h-.04ZM838.75,718.67c-.14,0-.28-.01-.42-.04-1.26-.23-2.09-1.44-1.86-2.7,1.08-5.86,2.4-11.75,3.93-17.48.33-1.24,1.6-1.98,2.84-1.65,1.24.33,1.98,1.6,1.65,2.84-1.49,5.62-2.79,11.39-3.85,17.14-.21,1.12-1.18,1.9-2.28,1.9ZM851.75,674.02c-.29,0-.58-.06-.87-.17-1.19-.48-1.76-1.83-1.28-3.02,2.23-5.52,4.71-11.02,7.36-16.35.57-1.15,1.96-1.61,3.11-1.04,1.15.57,1.61,1.97,1.04,3.11-2.6,5.23-5.03,10.62-7.22,16.03-.36.9-1.23,1.45-2.15,1.45ZM873.49,632.87c-.44,0-.89-.13-1.28-.39-1.07-.71-1.36-2.15-.65-3.22,3.3-4.95,6.83-9.85,10.5-14.53.79-1.01,2.25-1.19,3.26-.4,1.01.79,1.19,2.25.4,3.26-3.6,4.6-7.06,9.39-10.29,14.25-.45.67-1.18,1.03-1.93,1.03ZM903.02,596.92c-.6,0-1.19-.23-1.65-.68-.9-.91-.9-2.38,0-3.28,4.22-4.2,8.66-8.29,13.19-12.14.97-.83,2.44-.72,3.27.26.83.97.71,2.44-.26,3.27-4.43,3.78-8.78,7.78-12.92,11.9-.45.45-1.05.68-1.64.68ZM939.13,567.6c-.75,0-1.5-.37-1.94-1.05-.7-1.07-.41-2.51.66-3.21,4.98-3.27,10.14-6.39,15.34-9.27,1.12-.62,2.54-.21,3.15.91.62,1.12.21,2.53-.91,3.15-5.1,2.82-10.15,5.87-15.03,9.08-.39.26-.84.38-1.27.38ZM1177.46,558.74c-.38,0-.77-.09-1.13-.29-5.1-2.84-10.37-5.51-15.67-7.94-1.17-.53-1.68-1.91-1.14-3.08.53-1.16,1.91-1.67,3.08-1.14,5.41,2.48,10.79,5.21,15.99,8.11,1.12.62,1.52,2.04.9,3.16-.42.76-1.21,1.19-2.03,1.19ZM980.35,546.09c-.92,0-1.79-.55-2.16-1.46-.47-1.19.1-2.54,1.3-3.02,5.53-2.21,11.21-4.22,16.88-5.99,1.22-.38,2.53.3,2.91,1.52.38,1.22-.3,2.53-1.52,2.91-5.56,1.74-11.12,3.71-16.54,5.87-.28.11-.57.17-.86.17ZM1134.72,540.37c-.23,0-.46-.04-.7-.11-5.56-1.75-11.26-3.3-16.95-4.61-1.25-.29-2.03-1.53-1.74-2.78.29-1.25,1.54-2.02,2.78-1.74,5.81,1.34,11.63,2.92,17.3,4.7,1.22.38,1.9,1.69,1.52,2.91-.31.99-1.23,1.63-2.21,1.63ZM1025.06,533.32c-1.1,0-2.08-.79-2.28-1.91-.23-1.26.62-2.47,1.88-2.69,5.84-1.04,11.82-1.87,17.75-2.46,1.29-.13,2.41.81,2.54,2.08.13,1.27-.8,2.41-2.08,2.54-5.82.58-11.67,1.39-17.4,2.41-.14.02-.27.04-.41.04ZM1089.15,530.99c-.08,0-.16,0-.24-.01-1.09-.11-2.19-.22-3.3-.31-4.72-.42-9.52-.69-14.25-.82-1.28-.03-2.29-1.1-2.26-2.38.03-1.28,1.06-2.32,2.38-2.26,4.82.13,9.71.41,14.53.84,1.12.1,2.24.21,3.36.32,1.27.13,2.2,1.27,2.07,2.55-.12,1.19-1.13,2.08-2.31,2.08Z"/><path class="cls-15" d="M1209.2,580.04c-.51,0-1.02-.17-1.45-.51-2.39-1.91-4.84-3.79-7.29-5.59-1.03-.76-1.25-2.21-.5-3.24.76-1.03,2.21-1.26,3.24-.5,2.5,1.84,5,3.76,7.44,5.7,1,.8,1.17,2.26.36,3.26-.46.57-1.13.87-1.81.87Z"/><path class="cls-16" d="M1185.74,628.23c-.78-.89-2.03-1.19-3.13-.75l-31.22,12.72c-12.79-9.2-27.13-16.42-42.61-21.18l-8.82-32.59c-.31-1.14-1.31-1.96-2.49-2.04l-40.33-2.72c-1.18-.08-2.28.6-2.74,1.69l-13.09,31.11c-15.98,2.63-31.16,7.86-45.06,15.26l-29.24-16.8c-1.02-.59-2.31-.46-3.2.32l-30.44,26.66c-.89.78-1.19,2.04-.74,3.14l12.69,31.3c-9.18,12.82-16.38,27.19-21.13,42.72l-32.51,8.84c-1.14.31-1.96,1.31-2.04,2.49l-2.72,40.43c-.08,1.18.6,2.28,1.69,2.74l31.03,13.13c2.63,16.02,7.84,31.24,15.22,45.17l-16.76,29.31c-.59,1.03-.46,2.32.32,3.21l26.6,30.52c.78.89,2.03,1.19,3.13.74l31.22-12.72c12.79,9.2,27.13,16.42,42.61,21.18l8.82,32.59c.31,1.14,1.31,1.96,2.49,2.04l40.33,2.72c1.18.08,2.28-.6,2.74-1.69l13.09-31.11c15.98-2.63,31.16-7.86,45.06-15.26l29.24,16.81c1.02.59,2.31.46,3.2-.32l30.44-26.66c.89-.78,1.19-2.04.74-3.14l-12.69-31.3c9.18-12.82,16.38-27.19,21.13-42.72l32.51-8.84c1.14-.31,1.96-1.31,2.04-2.49l2.72-40.43c.08-1.18-.6-2.28-1.69-2.74l-31.03-13.13c-2.63-16.02-7.84-31.24-15.22-45.17l16.76-29.31c.59-1.03.46-2.32-.32-3.21l-26.6-30.52Z"/><path class="cls-15" d="M1065.29,800.04c-7.93,0-15.67-2.41-22.33-7.03-8.65-6-14.45-15.02-16.33-25.39-3.89-21.41,10.33-42,31.69-45.89,10.35-1.89,20.81.38,29.46,6.38,8.65,6,14.45,15.02,16.33,25.39,3.89,21.41-10.33,42-31.69,45.89-2.38.43-4.77.65-7.14.65ZM1065.45,728.05c-1.95,0-3.91.18-5.87.53h0c-17.59,3.21-29.29,20.16-26.09,37.8,1.55,8.54,6.33,15.97,13.45,20.91,7.12,4.94,15.72,6.8,24.25,5.25,17.58-3.21,29.29-20.16,26.09-37.8-1.55-8.54-6.33-15.97-13.45-20.91-5.48-3.8-11.85-5.78-18.37-5.78ZM1058.95,725.16h.02-.02Z"/><path class="cls-15" d="M1064.92,862.45c-2.3,0-4.61-.08-6.94-.23-53.29-3.6-94.25-48.22-94.24-100.99,0-2.27.08-4.56.23-6.86,1.81-26.99,14-51.65,34.32-69.45,20.32-17.8,46.34-26.59,73.27-24.78,7.19.49,14.32,1.73,21.19,3.71l-1.93,6.69c-6.39-1.84-13.03-3-19.73-3.46h0c-25.07-1.7-49.29,6.5-68.21,23.07-18.92,16.57-30.27,39.54-31.96,64.68-.15,2.15-.22,4.3-.22,6.42.01,49.13,38.14,90.66,87.74,94.01,25.08,1.71,49.29-6.5,68.21-23.07,18.92-16.57,30.27-39.55,31.96-64.68.14-2.13.21-4.26.21-6.39,0-14.89-3.51-29.58-10.27-42.82l6.2-3.16c7.27,14.24,11.04,30.03,11.03,46.04,0,2.27-.08,4.54-.23,6.81-1.81,26.99-14,51.65-34.32,69.45-18.57,16.27-41.9,25.02-66.33,25.02Z"/><path class="cls-15" d="M702.52,727.36c-1.14,0-2.13-.84-2.3-2-.43-3.02-.93-6.06-1.51-9.03-.24-1.26.58-2.48,1.84-2.72,1.26-.24,2.48.58,2.72,1.84.59,3.06,1.11,6.17,1.55,9.27.18,1.27-.7,2.44-1.97,2.62-.11.02-.22.02-.33.02Z"/><path class="cls-15" d="M534.42,935.6c-1.21,0-2.23-.94-2.31-2.16-.09-1.28.88-2.39,2.16-2.47,6.24-.43,12.52-1.19,18.67-2.27,1.27-.23,2.46.62,2.69,1.88.22,1.26-.62,2.46-1.88,2.69-6.31,1.11-12.75,1.89-19.15,2.33-.05,0-.11,0-.16,0ZM503.49,935.07c-.08,0-.16,0-.24-.01-3.77-.39-7.59-.89-11.35-1.51-2.59-.43-5.19-.91-7.72-1.44-1.25-.26-2.06-1.49-1.8-2.75.26-1.25,1.49-2.06,2.75-1.8,2.47.51,5,.98,7.53,1.4,3.67.6,7.39,1.1,11.07,1.48,1.28.13,2.2,1.27,2.07,2.54-.12,1.2-1.13,2.09-2.31,2.09ZM583.23,925.36c-.95,0-1.84-.59-2.18-1.54-.43-1.21.19-2.54,1.4-2.97,5.88-2.11,11.71-4.56,17.34-7.27,1.15-.55,2.54-.07,3.1,1.08.56,1.15.07,2.54-1.08,3.1-5.77,2.78-11.76,5.29-17.79,7.46-.26.09-.52.14-.79.14ZM455,923.33c-.28,0-.57-.05-.85-.16-5.97-2.35-11.88-5.04-17.56-8-1.14-.59-1.58-1.99-.99-3.13.59-1.14,1.99-1.58,3.13-.99,5.54,2.88,11.3,5.51,17.12,7.8,1.19.47,1.78,1.82,1.31,3.01-.36.91-1.23,1.47-2.16,1.47ZM627.43,902.25c-.73,0-1.44-.34-1.89-.97-.74-1.05-.5-2.49.55-3.24,5.1-3.63,10.05-7.56,14.74-11.69.96-.85,2.43-.75,3.28.21.85.96.75,2.43-.21,3.28-4.81,4.23-9.89,8.27-15.12,11.99-.41.29-.88.43-1.34.43ZM663.76,868.08c-.51,0-1.03-.17-1.46-.52-1-.81-1.15-2.27-.35-3.26,3.93-4.86,7.65-9.99,11.04-15.23.7-1.08,2.13-1.38,3.21-.69,1.08.7,1.38,2.13.69,3.21-3.48,5.38-7.3,10.64-11.33,15.63-.46.57-1.13.86-1.81.86ZM689.49,825.34c-.3,0-.61-.06-.91-.19-1.18-.5-1.72-1.87-1.22-3.05,2.46-5.74,4.64-11.68,6.48-17.65.38-1.23,1.68-1.91,2.9-1.53,1.23.38,1.91,1.68,1.53,2.9-1.89,6.13-4.13,12.22-6.65,18.11-.38.88-1.23,1.41-2.14,1.41ZM702.69,777.25c-.1,0-.21,0-.31-.02-1.27-.17-2.16-1.34-1.99-2.61.83-6.22,1.34-12.53,1.53-18.75.04-1.28,1.11-2.3,2.39-2.25,1.28.04,2.29,1.11,2.25,2.39-.19,6.39-.71,12.86-1.57,19.23-.16,1.17-1.15,2.01-2.3,2.01Z"/><path class="cls-15" d="M411.45,898.77c-.49,0-.99-.16-1.41-.48-2.48-1.89-4.95-3.87-7.32-5.89-.98-.83-1.1-2.29-.27-3.27.83-.98,2.3-1.1,3.27-.27,2.32,1.96,4.72,3.89,7.14,5.74,1.02.78,1.21,2.23.44,3.25-.46.6-1.15.91-1.85.91Z"/><path class="cls-15" d="M340.37,772.66c-1.17,0-2.18-.88-2.31-2.07-.33-3.1-.59-6.26-.76-9.37-.07-1.28.91-2.38,2.19-2.45,1.27-.05,2.38.91,2.45,2.19.17,3.03.42,6.11.74,9.13.14,1.28-.79,2.42-2.06,2.55-.08,0-.17.01-.25.01Z"/><path class="cls-15" d="M340.47,732.98c-.09,0-.17,0-.26-.01-1.27-.14-2.19-1.29-2.05-2.56.36-3.21.8-6.45,1.32-9.64.5-3.03,1.07-6.09,1.72-9.09.27-1.25,1.51-2.06,2.76-1.78,1.25.27,2.05,1.5,1.78,2.76-.63,2.93-1.19,5.91-1.68,8.87-.51,3.11-.94,6.27-1.29,9.4-.13,1.19-1.14,2.07-2.3,2.07ZM352.3,685.35c-.28,0-.57-.05-.85-.16-1.19-.47-1.77-1.82-1.3-3.01,2.32-5.86,4.98-11.67,7.9-17.27.59-1.13,1.99-1.58,3.13-.98,1.14.59,1.58,1.99.98,3.13-2.84,5.45-5.43,11.12-7.7,16.83-.36.91-1.23,1.47-2.16,1.47ZM376.38,642.58c-.49,0-.98-.15-1.4-.47-1.02-.77-1.22-2.23-.45-3.25,3.8-5.02,7.92-9.91,12.22-14.53.88-.94,2.34-.99,3.28-.11.94.88.99,2.34.11,3.28-4.2,4.5-8.21,9.27-11.92,14.16-.46.6-1.15.92-1.85.92ZM410.99,607.79c-.7,0-1.39-.31-1.84-.91-.78-1.02-.59-2.48.43-3.25,5.01-3.84,10.27-7.46,15.64-10.76,1.09-.67,2.52-.33,3.19.76.67,1.09.33,2.52-.76,3.19-5.23,3.22-10.36,6.75-15.24,10.49-.42.32-.92.48-1.41.48ZM613.85,595.08c-.4,0-.8-.1-1.17-.32-5.31-3.11-10.84-5.97-16.43-8.51-1.17-.53-1.68-1.91-1.15-3.07.53-1.17,1.9-1.69,3.07-1.15,5.74,2.6,11.41,5.54,16.86,8.73,1.11.65,1.48,2.07.83,3.18-.43.74-1.21,1.15-2,1.15ZM453.58,583.42c-.92,0-1.79-.55-2.15-1.45-.48-1.19.09-2.54,1.28-3.02,5.85-2.37,11.88-4.46,17.93-6.21,1.23-.36,2.52.35,2.88,1.58.36,1.23-.35,2.52-1.58,2.88-5.89,1.71-11.77,3.74-17.48,6.06-.29.12-.58.17-.87.17ZM568.53,576.25c-.2,0-.4-.02-.59-.08-5.55-1.46-11.24-2.68-16.93-3.62l-1.19-.19c-1.27-.2-2.13-1.39-1.93-2.66.2-1.27,1.39-2.12,2.66-1.93l1.04.17c6.01.99,11.85,2.24,17.54,3.74,1.24.33,1.98,1.6,1.65,2.84-.27,1.04-1.21,1.73-2.24,1.73ZM501.12,571.31c-1.16,0-2.17-.87-2.3-2.06-.14-1.27.77-2.42,2.04-2.57,6.27-.71,12.64-1.11,18.94-1.17h.02c1.27,0,2.31,1.02,2.32,2.3.01,1.28-1.02,2.33-2.3,2.34-6.14.06-12.36.44-18.46,1.14-.09.01-.18.01-.27.01Z"/><path class="cls-15" d="M645.78,618.83c-.57,0-1.13-.21-1.58-.62-2.22-2.07-4.53-4.11-6.86-6.06-.98-.82-1.11-2.29-.29-3.27.83-.98,2.29-1.11,3.27-.29,2.39,2.01,4.76,4.1,7.04,6.22.94.87.99,2.34.12,3.28-.46.49-1.08.74-1.7.74Z"/><path class="cls-16" d="M629.25,660.49c-.52-.78-1.48-1.14-2.38-.9l-25.77,6.84c-9.11-8.5-19.64-15.61-31.31-20.91l-3.65-26.45c-.13-.93-.83-1.67-1.75-1.85l-31.37-6.2c-.92-.18-1.85.24-2.32,1.05l-13.39,23.08c-12.8.46-25.23,3.03-36.88,7.44l-21.25-16.13c-.74-.57-1.77-.59-2.54-.07l-26.55,17.85c-.78.52-1.14,1.48-.9,2.38l6.82,25.83c-8.48,9.13-15.58,19.68-20.85,31.38l-26.39,3.66c-.93.13-1.67.83-1.85,1.75l-6.18,31.45c-.18.92.24,1.85,1.05,2.32l23.03,13.42c.45,12.83,3.02,25.29,7.42,36.97l-16.09,21.31c-.56.75-.59,1.77-.07,2.55l17.81,26.62c.52.78,1.48,1.14,2.38.9l25.77-6.84c9.11,8.5,19.64,15.61,31.31,20.91l3.65,26.45c.13.93.83,1.67,1.75,1.85l31.37,6.2c.92.18,1.85-.24,2.32-1.05l13.39-23.08c12.8-.46,25.23-3.03,36.88-7.44l21.25,16.13c.74.57,1.77.59,2.54.07l26.55-17.85c.78-.52,1.14-1.48.9-2.39l-6.82-25.83c8.48-9.13,15.58-19.68,20.85-31.38l26.39-3.66c.92-.13,1.67-.83,1.85-1.75l6.18-31.44c.18-.92-.24-1.85-1.05-2.32l-23.03-13.42c-.46-12.83-3.02-25.29-7.42-36.97l16.09-21.3c.56-.75.59-1.77.07-2.55l-17.81-26.62Z"/><path class="cls-15" d="M521.53,784.13c-7.88,0-15.38-2.88-21.28-8.2-6.33-5.71-10.06-13.54-10.51-22.06-.93-17.59,12.6-32.65,30.15-33.58,8.5-.45,16.67,2.45,23,8.16,6.33,5.71,10.06,13.54,10.5,22.06.93,17.59-12.6,32.65-30.15,33.58-.57.03-1.15.05-1.72.05ZM521.6,727.21c-.45,0-.89.01-1.34.04-13.71.73-24.28,12.51-23.56,26.26.35,6.66,3.27,12.79,8.22,17.25,4.94,4.46,11.32,6.73,17.97,6.37,13.71-.72,24.28-12.5,23.56-26.26-.35-6.66-3.27-12.79-8.21-17.25-4.61-4.16-10.47-6.41-16.63-6.41Z"/><path class="cls-15" d="M521.21,833.45c-5.23,0-10.51-.51-15.76-1.55-38.38-7.58-65.05-41.46-65.05-79.27,0-5.16.5-10.4,1.53-15.65,4.16-21.18,16.31-39.47,34.19-51.49,17.89-12.03,39.37-16.35,60.51-12.18h0c1.3.26,2.6.55,3.89.87,3.43.85,6.8,1.93,10.07,3.22.06.02.11.04.16.06.02.01.05.02.07.03.05.02.09.04.14.05.05.02.11.04.16.06.08.03.16.06.24.1.56.23,1.11.46,1.66.7l-2.76,6.39c-4.79-2.07-9.83-3.63-14.98-4.65-.61-.12-1.22-.23-1.82-.34-3.4-.59-6.82-.93-10.21-1.04-15.28-.5-30.29,3.8-43.24,12.5-16.34,10.99-27.44,27.7-31.24,47.06-.94,4.8-1.4,9.58-1.4,14.3,0,34.56,24.36,65.51,59.43,72.44,19.3,3.81,38.93-.14,55.27-11.12,16.34-10.99,27.44-27.7,31.24-47.06.93-4.75,1.4-9.55,1.4-14.34,0-8.47-1.45-16.89-4.32-24.89l6.55-2.35c3.14,8.76,4.73,17.98,4.73,27.24,0,5.24-.51,10.5-1.53,15.69-4.16,21.18-16.3,39.46-34.19,51.49-13.44,9.04-28.92,13.73-44.75,13.73Z"/><path class="cls-15" d="M1486.34,640c-1.16,0-2.17-.87-2.3-2.06-.34-3-.8-6.03-1.38-8.99-.24-1.26.58-2.48,1.84-2.72,1.25-.24,2.48.58,2.72,1.84.6,3.08,1.08,6.23,1.43,9.35.14,1.27-.77,2.42-2.04,2.57-.09.01-.18.01-.27.01Z"/><path class="cls-15" d="M1373.75,772.2c-1.24,0-2.26-.97-2.32-2.22-.05-1.28.94-2.36,2.22-2.42,6.04-.26,12.1-1,18.02-2.21,1.26-.26,2.48.56,2.74,1.81.26,1.26-.56,2.48-1.81,2.74-6.16,1.25-12.47,2.03-18.75,2.3-.03,0-.07,0-.1,0ZM1343.8,769.67c-.16,0-.32-.02-.49-.05-6.17-1.31-12.26-3.12-18.11-5.37-1.2-.46-1.79-1.8-1.33-3,.46-1.2,1.81-1.8,3-1.34,5.63,2.16,11.49,3.9,17.42,5.16,1.25.27,2.05,1.5,1.79,2.75-.23,1.09-1.2,1.84-2.27,1.84ZM1420.58,760.24c-.86,0-1.68-.48-2.09-1.3-.56-1.15-.09-2.54,1.06-3.11,5.42-2.66,10.68-5.77,15.63-9.25,1.05-.74,2.5-.48,3.23.57.74,1.05.48,2.5-.57,3.23-5.15,3.61-10.62,6.85-16.26,9.62-.33.16-.68.24-1.02.24ZM1458.76,730.58c-.53,0-1.07-.18-1.5-.55-.98-.83-1.09-2.3-.26-3.27,3.93-4.61,7.51-9.56,10.67-14.71.67-1.09,2.1-1.44,3.19-.77,1.09.67,1.44,2.1.77,3.19-3.28,5.36-7.01,10.5-11.09,15.29-.46.54-1.11.82-1.77.82ZM1481.93,688.16c-.22,0-.45-.03-.67-.1-1.23-.37-1.92-1.67-1.55-2.89,1.49-4.93,2.67-10.02,3.51-15.13.14-.87.27-1.74.4-2.61.18-1.27,1.37-2.16,2.62-1.97,1.27.18,2.15,1.35,1.97,2.62-.13.9-.26,1.8-.41,2.71-.87,5.31-2.1,10.61-3.65,15.73-.3,1-1.22,1.65-2.22,1.65Z"/><path class="cls-15" d="M1299.48,750.05c-.47,0-.94-.14-1.35-.44-2.55-1.84-5.06-3.8-7.45-5.83-.98-.83-1.1-2.29-.27-3.27.83-.98,2.29-1.1,3.27-.27,2.3,1.95,4.72,3.83,7.17,5.6,1.04.75,1.28,2.2.53,3.24-.45.63-1.17.96-1.89.96Z"/><path class="cls-15" d="M1250.7,666.2c-1.17,0-2.18-.88-2.3-2.07-.33-3.12-.55-6.29-.64-9.44-.04-1.28.97-2.35,2.26-2.38,1.28-.08,2.35.97,2.38,2.26.09,3.03.29,6.08.61,9.08.14,1.28-.79,2.42-2.06,2.55-.08,0-.17.01-.25.01Z"/><path class="cls-15" d="M1252.93,627.5c-.17,0-.34-.02-.51-.06-1.25-.28-2.04-1.52-1.76-2.77,1.35-6.05,3.17-12.03,5.41-17.77.47-1.19,1.81-1.78,3.01-1.32,1.19.47,1.78,1.81,1.32,3.01-2.15,5.52-3.9,11.27-5.2,17.09-.24,1.08-1.2,1.82-2.26,1.82ZM1272.33,584.1c-.47,0-.94-.14-1.35-.44-1.04-.75-1.28-2.2-.53-3.24,3.61-5.02,7.63-9.8,11.97-14.21.9-.91,2.37-.93,3.28-.03.91.9.93,2.37.03,3.28-4.17,4.24-8.04,8.84-11.51,13.66-.45.63-1.16.97-1.89.97ZM1307.25,551.81c-.78,0-1.55-.4-1.99-1.12-.67-1.1-.32-2.52.78-3.19,5.29-3.21,10.86-6.03,16.57-8.39,1.19-.49,2.54.07,3.03,1.26.49,1.18-.07,2.54-1.26,3.03-5.49,2.27-10.85,4.98-15.94,8.07-.38.23-.79.34-1.2.34ZM1416.65,544.87c-.31,0-.63-.06-.94-.2-5.43-2.41-11.09-4.42-16.84-5.96-1.24-.33-1.97-1.61-1.64-2.84.33-1.24,1.6-1.97,2.84-1.64,5.98,1.61,11.87,3.7,17.51,6.2,1.17.52,1.7,1.89,1.18,3.06-.38.87-1.23,1.38-2.12,1.38ZM1352.01,535.81c-1.14,0-2.13-.84-2.29-2-.18-1.27.7-2.44,1.97-2.62,5.51-.78,11.14-1.17,16.71-1.17.62,0,1.22,0,1.83.01,1.28.02,2.31,1.07,2.29,2.36-.02,1.28-1.13,2.29-2.36,2.29-.59,0-1.19-.03-1.76-.01-5.36,0-10.76.38-16.06,1.13-.11.02-.22.02-.33.02Z"/><path class="cls-15" d="M1449.07,566.28c-.57,0-1.13-.21-1.58-.62-2.21-2.06-4.54-4.05-6.9-5.93-1-.8-1.17-2.26-.38-3.26.8-1,2.26-1.17,3.26-.38,2.46,1.95,4.87,4.02,7.18,6.16.94.87.99,2.34.12,3.28-.46.49-1.08.74-1.7.74Z"/><path class="cls-16" d="M1438.34,592.53c-.34-.5-.96-.74-1.55-.58l-16.74,4.44c-5.92-5.52-12.75-10.14-20.33-13.58l-2.37-17.18c-.08-.6-.54-1.09-1.13-1.2l-20.37-4.03c-.6-.12-1.2.16-1.5.68l-8.7,14.99c-8.31.3-16.39,1.97-23.95,4.83l-13.8-10.47c-.48-.37-1.15-.39-1.65-.05l-17.25,11.6c-.5.34-.74.96-.58,1.55l4.43,16.78c-5.51,5.93-10.12,12.78-13.54,20.38l-17.14,2.38c-.6.08-1.08.54-1.2,1.14l-4.01,20.42c-.12.6.16,1.2.68,1.51l14.96,8.72c.3,8.34,1.96,16.43,4.82,24.01l-10.45,13.84c-.37.48-.38,1.15-.05,1.65l11.57,17.29c.34.51.96.74,1.55.58l16.74-4.44c5.92,5.52,12.75,10.14,20.33,13.58l2.37,17.18c.08.6.54,1.09,1.13,1.2l20.37,4.03c.59.12,1.2-.16,1.5-.68l8.7-14.99c8.31-.3,16.39-1.97,23.95-4.83l13.8,10.47c.48.37,1.15.39,1.65.05l17.25-11.6c.5-.34.74-.96.58-1.55l-4.43-16.78c5.51-5.93,10.12-12.79,13.54-20.39l17.14-2.38c.6-.08,1.08-.54,1.2-1.14l4.02-20.42c.12-.6-.16-1.2-.68-1.51l-14.96-8.72c-.3-8.34-1.96-16.43-4.82-24.01l10.45-13.84c.37-.48.39-1.15.05-1.65l-11.57-17.29Z"/><path class="cls-15" d="M1368.37,674.05c-5.42,0-10.58-1.98-14.64-5.64-4.35-3.92-6.92-9.31-7.23-15.17-.64-12.09,8.66-22.45,20.73-23.09h0c5.85-.31,11.47,1.68,15.82,5.61,4.35,3.92,6.92,9.31,7.22,15.17.64,12.09-8.67,22.45-20.74,23.09-.4.02-.79.03-1.18.03ZM1367.61,637.11c-8.24.44-14.58,7.51-14.15,15.77.21,4,1.96,7.69,4.93,10.37,2.97,2.68,6.81,4.04,10.79,3.82,8.24-.44,14.58-7.51,14.15-15.77-.21-4-1.96-7.68-4.93-10.36-2.97-2.68-6.79-4.06-10.79-3.83h0Z"/><path class="cls-15" d="M1368.17,706.09c-3.48,0-6.98-.34-10.47-1.03-25.51-5.04-43.23-27.55-43.23-52.68,0-3.43.33-6.91,1.02-10.4,2.77-14.07,10.84-26.23,22.72-34.22,11.89-7.99,26.17-10.87,40.22-8.09,3.75.74,7.42,1.88,10.9,3.38l-2.76,6.39c-3.03-1.31-6.22-2.3-9.48-2.94h0c-.15-.03-.3-.06-.45-.09-7.12-1.33-14.3-1.01-21.09.9-4.61,1.29-9.04,3.31-13.15,6.03-.1.07-.2.13-.3.2-10.34,6.96-17.37,17.53-19.78,29.78-.6,3.04-.88,6.07-.89,9.05,0,21.87,15.42,41.47,37.62,45.86,12.22,2.41,24.64-.09,34.98-7.04,10.34-6.96,17.37-17.53,19.78-29.79.59-3,.88-6.05.88-9.08,0-5.36-.92-10.69-2.74-15.76l6.55-2.35c2.09,5.82,3.15,11.95,3.15,18.1,0,3.48-.34,6.98-1.02,10.43-2.77,14.08-10.84,26.23-22.72,34.22-8.93,6.01-19.22,9.12-29.74,9.12Z"/><path class="cls-15" d="M905.07,880.23c-1.17,0-2.17-.87-2.3-2.06-.34-3-.8-6.03-1.38-8.99-.24-1.26.58-2.48,1.84-2.72,1.26-.25,2.48.58,2.72,1.84.6,3.09,1.08,6.23,1.43,9.35.14,1.27-.77,2.42-2.05,2.57-.09.01-.18.01-.26.01Z"/><path class="cls-15" d="M792.48,1012.43c-1.24,0-2.26-.97-2.32-2.22-.05-1.28.94-2.36,2.22-2.42,6.04-.26,12.1-1,18.02-2.21,1.26-.26,2.48.56,2.74,1.81.26,1.26-.56,2.48-1.81,2.74-6.16,1.25-12.47,2.03-18.75,2.29-.03,0-.07,0-.1,0ZM762.54,1009.9c-.16,0-.32-.02-.49-.05-6.17-1.32-12.26-3.12-18.11-5.37-1.2-.46-1.79-1.8-1.34-3,.46-1.2,1.81-1.79,3-1.33,5.63,2.16,11.49,3.9,17.42,5.16,1.25.27,2.05,1.5,1.79,2.75-.23,1.09-1.2,1.84-2.27,1.84ZM839.31,1000.47c-.86,0-1.68-.48-2.09-1.3-.56-1.15-.09-2.54,1.06-3.11,5.42-2.66,10.68-5.77,15.63-9.25,1.05-.74,2.5-.48,3.23.57.74,1.05.48,2.5-.57,3.23-5.15,3.61-10.62,6.85-16.26,9.62-.33.16-.68.24-1.02.24ZM877.49,970.81c-.53,0-1.07-.18-1.5-.55-.98-.83-1.09-2.3-.26-3.27,3.93-4.61,7.51-9.56,10.67-14.71.67-1.09,2.09-1.44,3.19-.77,1.09.67,1.44,2.1.77,3.19-3.28,5.36-7.01,10.5-11.09,15.29-.46.54-1.11.82-1.77.82ZM900.66,928.39c-.22,0-.45-.03-.67-.1-1.23-.37-1.92-1.67-1.55-2.89,1.49-4.93,2.67-10.02,3.51-15.13.14-.87.27-1.74.4-2.61.18-1.27,1.36-2.16,2.62-1.97,1.27.18,2.15,1.36,1.97,2.62-.13.9-.27,1.8-.41,2.71-.87,5.31-2.1,10.61-3.65,15.73-.3,1-1.22,1.65-2.22,1.65Z"/><path class="cls-15" d="M718.21,990.28c-.47,0-.94-.14-1.35-.44-2.55-1.84-5.06-3.8-7.45-5.83-.98-.83-1.1-2.29-.27-3.27.83-.98,2.29-1.1,3.27-.27,2.3,1.95,4.72,3.83,7.17,5.6,1.04.75,1.28,2.2.53,3.24-.45.63-1.17.96-1.89.96Z"/><path class="cls-15" d="M669.43,906.43c-1.17,0-2.18-.88-2.3-2.07-.33-3.12-.55-6.3-.63-9.44-.04-1.28.97-2.35,2.26-2.38,1.34-.08,2.35.97,2.38,2.26.08,3.02.29,6.08.61,9.08.14,1.27-.79,2.42-2.06,2.55-.08,0-.17.01-.25.01Z"/><path class="cls-15" d="M671.66,867.73c-.17,0-.34-.02-.51-.06-1.25-.28-2.04-1.52-1.76-2.77,1.35-6.05,3.16-12.02,5.41-17.77.47-1.19,1.81-1.78,3.01-1.32,1.19.47,1.78,1.81,1.32,3.01-2.16,5.52-3.91,11.27-5.2,17.09-.24,1.08-1.2,1.82-2.26,1.82ZM691.06,824.33c-.47,0-.94-.14-1.35-.44-1.04-.75-1.28-2.2-.53-3.24,3.61-5.02,7.63-9.8,11.97-14.21.9-.92,2.37-.93,3.28-.03.91.9.93,2.37.03,3.28-4.17,4.24-8.04,8.84-11.51,13.66-.45.63-1.16.97-1.89.97ZM725.98,792.04c-.78,0-1.55-.4-1.99-1.12-.67-1.1-.32-2.52.78-3.19,5.29-3.21,10.86-6.03,16.57-8.39,1.19-.49,2.54.07,3.03,1.26.49,1.18-.07,2.54-1.26,3.03-5.49,2.27-10.85,4.98-15.94,8.07-.38.23-.79.34-1.2.34ZM835.38,785.09c-.32,0-.63-.06-.94-.2-5.42-2.41-11.09-4.42-16.84-5.96-1.24-.33-1.97-1.61-1.64-2.84.33-1.24,1.6-1.98,2.84-1.64,5.98,1.61,11.87,3.7,17.51,6.2,1.17.52,1.7,1.89,1.18,3.06-.38.87-1.23,1.38-2.12,1.38ZM770.74,776.04c-1.14,0-2.13-.84-2.3-2-.18-1.27.7-2.44,1.97-2.62,6.11-.86,12.33-1.25,18.54-1.16,1.28.02,2.31,1.07,2.29,2.36-.02,1.28-1.13,2.31-2.36,2.29-5.96-.09-11.95.29-17.82,1.12-.11.02-.22.02-.33.02Z"/><path class="cls-15" d="M867.8,806.51c-.57,0-1.13-.21-1.58-.62-2.21-2.06-4.54-4.05-6.9-5.93-1-.8-1.17-2.26-.38-3.26.8-1,2.26-1.17,3.26-.38,2.46,1.95,4.87,4.02,7.18,6.16.94.87.99,2.34.12,3.28-.46.49-1.08.74-1.7.74Z"/><path class="cls-16" d="M857.07,832.76c-.34-.51-.96-.74-1.55-.58l-16.74,4.44c-5.92-5.52-12.75-10.14-20.33-13.58l-2.37-17.18c-.08-.6-.54-1.09-1.13-1.2l-20.37-4.03c-.6-.12-1.2.16-1.5.68l-8.7,14.99c-8.31.3-16.39,1.97-23.95,4.83l-13.8-10.47c-.48-.37-1.15-.39-1.65-.05l-17.25,11.6c-.5.34-.74.96-.58,1.55l4.43,16.78c-5.51,5.93-10.12,12.78-13.54,20.38l-17.14,2.38c-.6.08-1.08.54-1.2,1.14l-4.01,20.42c-.12.6.16,1.2.68,1.51l14.96,8.72c.3,8.34,1.96,16.43,4.82,24.01l-10.45,13.84c-.37.48-.38,1.15-.05,1.65l11.57,17.29c.34.51.96.74,1.55.58l16.74-4.44c5.92,5.52,12.75,10.14,20.33,13.58l2.37,17.18c.08.6.54,1.09,1.13,1.2l20.37,4.03c.59.12,1.2-.16,1.5-.68l8.7-14.99c8.31-.3,16.39-1.97,23.95-4.83l13.8,10.47c.48.37,1.15.39,1.65.05l17.25-11.6c.5-.34.74-.96.58-1.55l-4.43-16.78c5.51-5.93,10.12-12.79,13.54-20.38l17.14-2.38c.6-.08,1.08-.54,1.2-1.14l4.02-20.42c.12-.6-.16-1.2-.68-1.51l-14.96-8.72c-.3-8.34-1.96-16.43-4.82-24.01l10.45-13.84c.37-.48.39-1.15.05-1.65l-11.57-17.29Z"/><path class="cls-15" d="M787.1,914.28c-5.42,0-10.58-1.98-14.64-5.64-4.35-3.92-6.92-9.31-7.23-15.17-.64-12.1,8.67-22.45,20.74-23.09,5.84-.31,11.47,1.68,15.82,5.61,4.35,3.92,6.92,9.31,7.22,15.17.64,12.09-8.67,22.45-20.74,23.09-.4.02-.79.03-1.18.03ZM787.15,877.31c-.27,0-.53,0-.8.02-8.24.44-14.58,7.51-14.15,15.77.21,4,1.96,7.68,4.93,10.36,2.97,2.68,6.78,4.04,10.79,3.83,8.24-.44,14.58-7.51,14.15-15.77-.21-4-1.96-7.68-4.93-10.36-2.77-2.5-6.29-3.85-9.98-3.85Z"/><path class="cls-15" d="M786.9,946.32c-3.48,0-6.98-.34-10.47-1.03-25.51-5.04-43.23-27.55-43.23-52.68,0-3.43.33-6.91,1.02-10.4,2.77-14.07,10.84-26.23,22.72-34.22,11.89-7.99,26.17-10.87,40.22-8.09,3.75.74,7.42,1.88,10.9,3.38l-2.76,6.39c-3.03-1.31-6.22-2.3-9.48-2.94h0c-.43-.09-.85-.16-1.28-.24-6.99-1.18-14.02-.77-20.67,1.16-4.46,1.3-8.75,3.28-12.74,5.91-.1.07-.2.13-.3.2-10.35,6.96-17.37,17.53-19.78,29.79-.6,3.04-.88,6.07-.89,9.05,0,21.87,15.42,41.47,37.62,45.86,12.21,2.41,24.64-.09,34.98-7.04,10.34-6.96,17.37-17.53,19.78-29.79.59-3,.88-6.05.88-9.08,0-5.36-.92-10.69-2.74-15.76l6.55-2.35c2.09,5.82,3.15,11.95,3.15,18.1,0,3.48-.34,6.97-1.01,10.43-2.77,14.08-10.84,26.23-22.72,34.22-8.94,6.01-19.22,9.12-29.75,9.12Z"/><path class="cls-15" d="M441.03,563.79c-1.18,0-2.18-.89-2.31-2.08-.31-3-.75-6.02-1.33-8.98-.24-1.26.58-2.48,1.84-2.72,1.26-.24,2.48.58,2.72,1.84.6,3.1,1.07,6.25,1.39,9.39.13,1.27-.8,2.42-2.07,2.55-.08,0-.16.01-.24.01Z"/><path class="cls-15" d="M325.28,678.37c-.09,0-.18,0-.27-.02-1.66-.19-3.32-.43-4.98-.7-4.96-.82-9.88-1.99-14.65-3.48-1.22-.38-1.9-1.69-1.52-2.91.38-1.22,1.69-1.9,2.91-1.52,4.56,1.43,9.28,2.55,14.02,3.33,1.59.26,3.18.49,4.77.67,1.27.15,2.18,1.3,2.03,2.58-.14,1.18-1.14,2.05-2.3,2.05ZM357.08,677.19c-1.09,0-2.06-.77-2.28-1.88-.24-1.26.58-2.48,1.84-2.72,6.27-1.21,12.46-3.04,18.41-5.42,1.19-.48,2.54.1,3.02,1.29.48,1.19-.1,2.54-1.29,3.02-6.22,2.49-12.69,4.4-19.25,5.67-.15.03-.3.04-.44.04ZM403.31,655.44c-.67,0-1.34-.29-1.8-.85-.81-.99-.67-2.45.32-3.27,4.95-4.06,9.55-8.6,13.65-13.51.82-.98,2.29-1.11,3.27-.29.98.82,1.11,2.29.29,3.27-4.29,5.13-9.09,9.88-14.27,14.12-.43.35-.95.53-1.47.53ZM433.71,614.37c-.29,0-.59-.06-.88-.17-1.19-.49-1.75-1.84-1.27-3.03,2.42-5.9,4.3-12.08,5.58-18.37.26-1.26,1.48-2.07,2.74-1.81,1.26.26,2.07,1.48,1.81,2.74-1.34,6.58-3.31,13.04-5.84,19.2-.37.9-1.23,1.44-2.15,1.44Z"/><path class="cls-15" d="M277.41,660.14c-.46,0-.93-.14-1.33-.42-2.58-1.82-5.1-3.77-7.5-5.8-.98-.83-1.1-2.29-.27-3.27.83-.98,2.29-1.1,3.27-.27,2.3,1.94,4.71,3.81,7.18,5.55,1.05.74,1.3,2.19.56,3.23-.45.64-1.17.98-1.9.98Z"/><path class="cls-15" d="M233.59,585.72c-1.17,0-2.18-.88-2.3-2.08-.33-3.13-.53-6.32-.59-9.47-.02-1.28,1-2.34,2.28-2.36,1.19-.02,2.34,1,2.36,2.28.05,3.01.24,6.06.56,9.06.14,1.27-.79,2.42-2.06,2.55-.08,0-.17.01-.25.01Z"/><path class="cls-15" d="M237.14,545.41c-.21,0-.43-.03-.64-.09-1.23-.35-1.94-1.64-1.59-2.87,1.82-6.33,4.25-12.51,7.2-18.38.58-1.14,1.97-1.6,3.12-1.03,1.15.58,1.61,1.97,1.03,3.12-2.82,5.61-5.14,11.53-6.88,17.58-.29,1.02-1.22,1.68-2.23,1.68ZM262.3,501.9c-.58,0-1.16-.22-1.61-.65-.92-.89-.95-2.36-.06-3.28,4.57-4.73,9.6-9.06,14.96-12.88,1.05-.74,2.49-.5,3.24.55.74,1.04.5,2.49-.55,3.24-5.13,3.65-9.94,7.79-14.31,12.32-.45.47-1.06.71-1.67.71ZM373.62,476.54c-.27,0-.54-.05-.81-.15-5.88-2.18-12.01-3.83-18.23-4.91-1.26-.22-2.11-1.42-1.89-2.68.22-1.26,1.41-2.12,2.68-1.89,6.51,1.12,12.92,2.85,19.06,5.13,1.2.45,1.81,1.78,1.37,2.98-.35.93-1.23,1.51-2.18,1.51ZM304.86,475.17c-.98,0-1.88-.62-2.2-1.6-.4-1.22.26-2.53,1.48-2.93,6.26-2.06,12.73-3.54,19.25-4.39,1.27-.16,2.44.73,2.6,2,.17,1.27-.73,2.44-2,2.6-6.23.82-12.42,2.23-18.4,4.2-.24.08-.49.12-.73.12Z"/><path class="cls-15" d="M408.12,497.81c-.57,0-1.13-.21-1.58-.62-2.21-2.06-4.54-4.03-6.91-5.88-1.01-.79-1.2-2.24-.41-3.26.79-1.01,2.24-1.2,3.26-.41,2.48,1.93,4.92,3.99,7.23,6.14.94.87.99,2.34.12,3.28-.46.49-1.08.74-1.7.74Z"/><path class="cls-16" d="M398.67,520.63c-.3-.44-.84-.65-1.36-.51l-14.72,3.91c-5.21-4.86-11.22-8.92-17.89-11.95l-2.09-15.12c-.07-.53-.47-.96-1-1.06l-17.93-3.54c-.52-.1-1.06.14-1.32.6l-7.65,13.19c-7.32.26-14.42,1.73-21.07,4.25l-12.14-9.22c-.43-.32-1.01-.34-1.45-.04l-15.17,10.2c-.44.3-.65.85-.51,1.36l3.9,14.76c-4.85,5.22-8.9,11.25-11.92,17.93l-15.08,2.09c-.53.07-.95.47-1.06,1l-3.53,17.97c-.1.53.14,1.06.6,1.33l13.16,7.67c.26,7.33,1.73,14.45,4.24,21.13l-9.19,12.17c-.32.43-.34,1.01-.04,1.46l10.18,15.21c.3.44.84.65,1.36.51l14.72-3.91c5.2,4.86,11.22,8.92,17.89,11.95l2.09,15.12c.07.53.47.96,1,1.06l17.93,3.54c.52.1,1.06-.14,1.32-.6l7.65-13.19c7.32-.26,14.42-1.73,21.07-4.25l12.14,9.21c.43.32,1.01.34,1.45.04l15.17-10.2c.44-.3.65-.85.51-1.36l-3.9-14.76c4.85-5.22,8.9-11.25,11.92-17.94l15.08-2.09c.53-.07.95-.47,1.06-1l3.53-17.97c.1-.52-.14-1.06-.6-1.33l-13.16-7.67c-.26-7.33-1.73-14.45-4.24-21.13l9.19-12.18c.32-.43.34-1.01.04-1.46l-10.18-15.21Z"/><path class="cls-15" d="M337.12,592.77c-4.87,0-9.51-1.78-13.16-5.07-3.91-3.53-6.22-8.37-6.49-13.64-.57-10.87,7.79-20.18,18.64-20.76,5.23-.27,10.31,1.51,14.22,5.04,3.91,3.53,6.22,8.37,6.49,13.64.57,10.87-7.79,20.18-18.64,20.76-.36.02-.71.03-1.06.03ZM337.16,560.25c-.23,0-.46,0-.69.02h0c-7.02.37-12.42,6.4-12.05,13.44.18,3.41,1.67,6.55,4.2,8.83,2.53,2.28,5.8,3.44,9.19,3.26,7.02-.37,12.42-6.4,12.05-13.44-.18-3.41-1.67-6.55-4.2-8.83-2.36-2.13-5.35-3.28-8.5-3.28ZM336.29,556.79h.02-.02Z"/><path class="cls-15" d="M336.94,620.96c-3.09,0-6.2-.3-9.3-.91-22.64-4.47-38.37-24.46-38.37-46.76,0-3.05.29-6.13.9-9.23,2.46-12.49,9.62-23.28,20.17-30.38,10.55-7.1,23.23-9.65,35.7-7.18,3.12.62,6.18,1.54,9.1,2.76,0,0,.02,0,.03.01.18.08.36.15.54.23l-2.76,6.39c-2.64-1.14-5.42-2-8.26-2.56h0s-.06-.01-.09-.02c-10.61-2.07-21.39.11-30.37,6.15-9.01,6.06-15.13,15.27-17.22,25.94-.52,2.65-.77,5.28-.77,7.88,0,19.05,13.43,36.12,32.76,39.93,10.64,2.1,21.46-.07,30.46-6.13,9.01-6.06,15.13-15.27,17.22-25.94.51-2.62.77-5.26.77-7.9,0-4.67-.8-9.31-2.38-13.72l6.55-2.35c1.86,5.17,2.79,10.61,2.79,16.07,0,3.09-.3,6.19-.9,9.25-2.46,12.49-9.62,23.28-20.17,30.38-7.93,5.33-17.06,8.1-26.4,8.1Z"/><path class="cls-9" d="M788.46,621.46l1.18-4.48c.03-.13.11-.37.22-.73.38-1.27,1.19-3.92,2.06-7.64.24-1.01,1.29-1.71,2.35-1.58,1.06.13,1.73,1.06,1.49,2.06-.38,1.59-.74,2.98-1.06,4.17.64-.06,1.28.17,1.66.68.6.79.36,1.95-.55,2.58-2.08,1.46-3.23,2.22-3.23,2.22l-4.13,2.73ZM804.08,608.85c-.14-.09-.27-.2-.39-.34-.64-.76-.46-1.92.42-2.59,3.39-2.6,6.82-5.32,10.19-8.09.85-.7,2.09-.68,2.77.07.67.73.53,1.9-.32,2.6-3.41,2.8-6.87,5.55-10.3,8.18-.72.55-1.69.6-2.37.17ZM794.88,598.39c-.54-.34-.84-.94-.75-1.62.55-4.04.89-8.03.99-11.84.03-1.01.93-1.89,2.02-1.95,1.08-.06,1.95.71,1.92,1.72-.11,3.94-.45,8.05-1.02,12.22-.14,1.01-1.13,1.81-2.2,1.77-.36-.01-.68-.12-.95-.29ZM795.44,574.42c-.41-.26-.7-.69-.76-1.2-.43-3.98-1.16-7.79-2.17-11.33-.27-.95.36-2.01,1.41-2.35,1.05-.34,2.13.16,2.4,1.11,1.06,3.71,1.83,7.71,2.28,11.88.11,1-.68,1.96-1.76,2.15-.52.09-1.01-.01-1.4-.26ZM824.27,592.27c-.11-.07-.2-.15-.3-.24-.71-.71-.61-1.87.22-2.6,3.25-2.85,6.47-5.78,9.59-8.7.8-.75,2.05-.8,2.78-.12.74.68.68,1.85-.12,2.6-3.15,2.96-6.41,5.92-9.7,8.8-.72.63-1.76.72-2.48.27ZM788.84,551.94c-.24-.15-.44-.36-.57-.61-1.29-2.4-2.77-4.68-4.41-6.78-.73-.93-1.42-1.85-2.07-2.76-.58-.81-.31-1.96.61-2.58.92-.62,2.13-.47,2.72.34.63.87,1.29,1.76,2,2.65,1.76,2.24,3.34,4.68,4.71,7.24.47.87.05,2-.93,2.52-.69.36-1.48.33-2.05-.03ZM751.99,524.89l-3.06-2.02c1.57-2.33,2.04-4.8,1.56-8.25-.14-.99.62-1.97,1.7-2.19,1.08-.22,2.06.41,2.2,1.4.38,2.73.25,5.07-.43,7.2.38.65.27,1.52-.34,2.15l-1.64,1.71ZM776.23,532.16c-.26-.17-.47-.4-.61-.69-1.86-3.96-3.09-7.88-3.65-11.63-.14-.99.61-1.97,1.69-2.2,1.08-.23,2.07.39,2.22,1.38.51,3.44,1.64,7.05,3.37,10.73.42.9-.05,2.01-1.05,2.49-.68.32-1.42.27-1.97-.07ZM843.23,574.46c-.07-.04-.13-.09-.2-.14-.77-.65-.76-1.81,0-2.59,3.05-3.07,6.04-6.2,8.89-9.31.74-.8,1.98-.94,2.78-.33.8.62.85,1.77.11,2.58-2.89,3.15-5.92,6.32-9,9.43-.71.71-1.82.86-2.59.37ZM760.08,514.25c-.07-.04-.13-.09-.19-.14-.77-.65-.77-1.81,0-2.59,3.55-3.6,6.67-6.69,9.27-9.2.79-.76,2.03-.82,2.78-.16.75.67.71,1.83-.07,2.59-2.58,2.49-5.67,5.56-9.19,9.13-.71.72-1.82.86-2.59.37ZM748.34,504.36c-.33-.21-.59-.53-.7-.93-.97-3.4-1.98-7.16-2.83-11.59-.19-.98.53-1.99,1.6-2.25,1.07-.26,2.09.32,2.28,1.3.82,4.31,1.81,7.98,2.76,11.31.27.96-.36,2.01-1.41,2.35-.61.2-1.23.11-1.7-.18ZM773.39,509.05c-.61-.39-.91-1.11-.7-1.86,1.22-4.41,3.25-7.7,4.46-9.67.38-.62.69-1.11.87-1.5.34-.99,1.5-1.71,2.53-1.48,1.03.23,1.64,1.11,1.3,2.1-.06.18-.15.38-.26.62-.23.48-.61,1.1-1.08,1.87-1.17,1.91-2.95,4.79-4.02,8.68-.28,1-1.35,1.67-2.4,1.5-.26-.04-.5-.13-.7-.26ZM860.72,555.4s-.05-.03-.07-.04c-.83-.58-.93-1.73-.23-2.56,2.46-2.92,4.86-5.88,7.12-8.79l.89-1.15c.66-.86,1.89-1.12,2.76-.57,0,0,0,0,0,0,.86.54,1.02,1.67.37,2.53l-.9,1.16c-2.3,2.96-4.73,5.96-7.23,8.92-.68.81-1.88,1.02-2.7.5ZM744.04,481.15c-.43-.28-.73-.73-.76-1.27-.26-3.92-.3-8-.12-12.14.05-1.01.96-1.87,2.05-1.92,1.08-.05,1.93.73,1.88,1.75-.18,4.01-.14,7.97.11,11.77.07,1-.76,1.94-1.84,2.09-.5.07-.96-.04-1.32-.27ZM745.04,457.18c-.54-.34-.84-.95-.75-1.63.12-.86.25-1.73.39-2.62.5-3.23,1.2-6.45,2.08-9.58.28-1,1.36-1.67,2.41-1.5,1.05.18,1.67,1.13,1.4,2.12-.84,2.99-1.5,6.07-1.99,9.16-.14.86-.26,1.72-.38,2.56-.14,1.01-1.13,1.8-2.21,1.76-.36-.01-.68-.12-.95-.28ZM876.3,535.04c-.82-.52-1.01-1.58-.43-2.44,2.42-3.52,4.72-7.09,6.83-10.59.55-.91,1.76-1.3,2.69-.87.97.42,1.25,1.53.69,2.45-2.15,3.57-4.49,7.2-6.96,10.79-.61.89-1.83,1.21-2.73.72-.03-.02-.07-.04-.1-.06ZM751.69,433.57c-.7-.44-.97-1.31-.6-2.13,1.74-3.87,3.82-7.68,6.17-11.33.58-.9,1.79-1.26,2.71-.8.91.5,1.19,1.57.61,2.47-2.24,3.49-4.22,7.13-5.89,10.82-.43.96-1.59,1.48-2.59,1.16-.15-.05-.29-.11-.42-.19ZM889.35,513.32c-.73-.46-.98-1.39-.56-2.22,1.92-3.73,3.69-7.51,5.25-11.22.41-.97,1.56-1.52,2.57-1.22,1,.3,1.49,1.32,1.08,2.3-1.6,3.8-3.41,7.67-5.38,11.49-.49.94-1.67,1.41-2.64,1.04-.12-.04-.22-.1-.32-.16ZM765.37,412.23s-.05-.03-.08-.05c-.83-.59-.92-1.74-.22-2.56,2.82-3.3,5.93-6.49,9.23-9.47.82-.74,2.07-.77,2.78-.07.72.7.64,1.86-.17,2.6-3.17,2.86-6.14,5.92-8.85,9.08-.68.8-1.87,1.01-2.7.48ZM899.01,490.34c-.63-.4-.93-1.16-.68-1.93,1.26-3.9,2.33-7.83,3.17-11.68.22-1.01,1.26-1.73,2.33-1.61,1.06.12,1.75,1.03,1.53,2.04-.87,3.97-1.97,8.01-3.26,12.03-.32.99-1.42,1.63-2.46,1.41-.23-.05-.44-.13-.62-.25ZM784.61,394.81c-.17-.11-.32-.24-.44-.4-.6-.79-.35-1.95.55-2.58,2.43-1.7,9.31-6.19,12.13-6.84v-.03s5.49-1.29,5.49-1.29c1.07-.25,2.09.34,2.26,1.32.18.98-.55,1.98-1.62,2.24l-5.67,1.33c-.94.35-4.96,2.33-10.41,6.14-.72.5-1.64.53-2.29.11ZM904.19,466.49c-.52-.33-.83-.92-.76-1.58.43-3.95.63-7.92.61-11.8,0-1.01.87-1.91,1.95-2,1.09-.09,1.98.64,1.98,1.65.03,4.01-.18,8.11-.63,12.2-.11,1.01-1.08,1.83-2.16,1.81-.38,0-.72-.11-1-.29ZM904.03,442.61c-.41-.26-.69-.67-.75-1.17-.48-3.82-1.21-7.66-2.16-11.41-.24-.96.42-2,1.48-2.32,1.06-.31,2.12.22,2.36,1.18.98,3.88,1.73,7.85,2.23,11.79.12.99-.65,1.97-1.73,2.18-.53.1-1.04,0-1.43-.25ZM814.17,384c-.38-.24-.66-.62-.74-1.09-.18-.98.55-1.98,1.63-2.24l12.71-2.99c1.07-.25,2.09.34,2.26,1.32.18.98-.55,1.98-1.62,2.24l-12.71,2.99c-.56.13-1.1.03-1.52-.23ZM898.3,419.8c-.3-.19-.53-.46-.66-.8-1.34-3.52-2.91-7.08-4.68-10.56-.45-.88-.01-2,.98-2.5.99-.5,2.16-.19,2.61.69,1.82,3.59,3.44,7.24,4.82,10.87.35.93-.2,2.01-1.23,2.43-.65.26-1.34.19-1.84-.13ZM839.59,378.02c-.38-.24-.66-.62-.74-1.09-.18-.98.55-1.98,1.62-2.24l12.71-2.99c1.07-.25,2.09.34,2.26,1.32.17.98-.55,1.98-1.62,2.24l-12.71,2.99c-.56.13-1.1.03-1.52-.23ZM887.7,398.92c-.2-.13-.38-.3-.51-.51-2.03-3.17-4.28-6.37-6.69-9.49-.61-.79-.37-1.94.53-2.58.9-.64,2.13-.53,2.73.27,2.47,3.2,4.77,6.47,6.85,9.72.54.84.2,1.98-.74,2.56-.71.43-1.56.42-2.17.04ZM873.36,380.27c-.13-.08-.25-.18-.35-.3-2.33-2.57-4.82-5.16-7.42-7.7-.67-.15-1.2-.65-1.32-1.33-.17-.98.55-1.99,1.63-2.24l1.39-.33.72.7c2.84,2.75,5.57,5.57,8.11,8.38.67.74.52,1.9-.34,2.6-.72.59-1.72.65-2.41.21Z"/><path class="cls-16" d="M825.72,382.98s-50.15,29.51-34.13,64.42c16.02,34.91,41.86,65.63,34.31,83.32,0,0,86.18-73.14,19.92-150.39l-20.11,2.64Z"/><path class="cls-16" d="M762.72,293.04s-55.49,11.88-62.08,29c-6.27,16.28,7.34,132.45,8.68,143.75.06.51.53.84,1.09.77h0c4.59-.51,8.82-3.02,11.42-6.76,12.52-18.06,49.45-72.25,55.29-91.52,7.05-23.27-14.39-75.25-14.39-75.25Z"/><path class="cls-11" d="M712.04,423.26c-.27-.17-.46-.46-.5-.8-.06-.64-6.32-64.49-7.85-92.16-.27-4.93,2.62-9.81,7.36-12.43,9.15-5.05,23.15-12.08,37.94-16.86.69-.22,1.39.1,1.57.73.18.63-.24,1.31-.93,1.54-15.34,4.95-30.03,12.55-37.42,16.63-3.84,2.12-6.17,6.07-5.95,10.05,1.53,27.63,7.78,91.43,7.85,92.07.07.65-.46,1.28-1.17,1.4-.34.06-.65-.01-.9-.17Z"/><path class="cls-16" d="M892.83,278.48s55.86-.58,63.54,14.94c7.3,14.76,1.46,133.11.87,144.63-.03.52-.47.95-1.03,1.01h0c-4.59.51-8.96-1.03-11.78-4.16-13.62-15.13-53.85-60.68-60.92-78.51-8.53-21.53,9.32-77.91,9.32-77.91Z"/><path class="cls-11" d="M950.1,396.62c-.32-.2-.51-.54-.5-.94.02-.65,2.02-65.37,1.71-93.14-.04-4.01-2.62-7.4-6.57-8.65-7.61-2.41-22.69-6.67-38.24-8.17-.7-.06-1.15-.66-1.02-1.32.13-.66.81-1.14,1.51-1.07,15.79,1.52,31.07,5.84,38.77,8.27,4.88,1.55,8.07,5.75,8.13,10.7.3,27.81-1.7,92.58-1.71,93.23-.02.66-.61,1.23-1.32,1.27-.28.02-.54-.05-.75-.19Z"/><path class="cls-36" d="M757.66,118.49c-7.65,24.96-12.57,53.35-11.64,84.31,2.88,96.12,22.92,164.8,29.19,184.15,1.13,3.5,4.32,5.92,8.25,6.39,31,3.7,61.81.46,92.41-9.68,5.76-1.91,10.16-6.61,11.44-12.13,5.54-23.95,19.46-94.44,16.13-186.34-1.11-30.7-7.77-57.62-16.9-80.57-51.78-7.56-101.19,5.18-128.88,13.88Z"/><path class="cls-36" d="M886.54,104.61c-20.17-50.7-52.44-82.03-63.81-91.98-2.22-1.94-5.91-1.53-7.99.89-10.59,12.36-40.38,50.44-57.09,104.96,27.68-8.69,77.09-21.44,128.88-13.88Z"/><path class="cls-17" d="M876.58,181.85c.82,24.89-21.85,47.68-50.65,50.9-28.8,3.22-52.81-14.34-53.64-39.23-.82-24.89,21.85-47.68,50.65-50.9,28.8-3.22,52.81,14.34,53.64,39.23Z"/><path class="cls-16" d="M867.4,181.61c.66,19.83-17.41,37.99-40.36,40.56-22.95,2.57-42.08-11.43-42.74-31.26-.66-19.83,17.41-37.99,40.36-40.56,22.95-2.57,42.08,11.43,42.74,31.26Z"/><path class="cls-1" d="M796.53,182.84c-.4-.25-.6-.73-.46-1.23,3.62-12.65,16.16-22.6,30.5-24.21,3.62-.4,7.18-.28,10.6.37.68.13,1.07.76.87,1.42-.2.65-.92,1.07-1.6.94-3.16-.6-6.45-.72-9.79-.34-13.21,1.48-24.76,10.62-28.09,22.24-.19.65-.9,1.09-1.58.97-.17-.03-.32-.09-.45-.17Z"/><path class="cls-17" d="M861.88,274.39c.55,16.44-14.44,31.5-33.46,33.63-19.03,2.13-34.89-9.47-35.44-25.91-.54-16.44,14.44-31.5,33.46-33.63,19.03-2.13,34.89,9.47,35.43,25.91Z"/><path class="cls-16" d="M855.82,274.23c.43,13.1-11.5,25.1-26.66,26.79-15.16,1.7-27.8-7.55-28.23-20.65-.43-13.1,11.5-25.1,26.66-26.79,15.16-1.7,27.8,7.55,28.24,20.65Z"/><path class="cls-1" d="M808.73,275.39c-.4-.25-.6-.73-.46-1.23,2.44-8.53,10.89-15.24,20.56-16.33,2.43-.27,4.83-.19,7.14.25.68.12,1.07.76.87,1.41-.2.65-.92,1.07-1.6.94-2.04-.39-4.17-.46-6.33-.22-8.54.95-16,6.86-18.15,14.36-.19.65-.9,1.09-1.58.97-.17-.03-.32-.09-.45-.17Z"/><path class="cls-16" d="M1738.74,676.97c-.2-2.5-2.76-4.67-7.08-6.4,4.7-2.59,7.3-5.37,7.08-8.1-.67-8.25-26.79-12.87-58.35-10.33-31.56,2.54-56.61,11.29-55.94,19.54.2,2.5,2.76,4.67,7.09,6.4-4.7,2.59-7.3,5.37-7.09,8.1.2,2.5,2.76,4.67,7.09,6.4-4.7,2.59-7.3,5.37-7.09,8.1.2,2.5,2.76,4.67,7.09,6.4-4.7,2.59-7.3,5.37-7.09,8.1.29,3.65,5.57,6.59,14.1,8.51-.11,2.7-.05,5.65.22,8.91,1.23,15.2,18.33,27.12,40.95,27.12s42.19-16.25,42.41-31.5c.05-3.74-.1-7.03-.44-9.95,10.82-3.61,17.41-8.03,17.06-12.31-.2-2.5-2.76-4.67-7.08-6.4,4.7-2.59,7.3-5.37,7.08-8.1-.2-2.5-2.76-4.67-7.08-6.4,4.7-2.59,7.3-5.37,7.08-8.1Z"/><path class="cls-36" d="M1665.79,726.98c-9.37,0-17.95-.69-25.04-2.05-.41-.08-.68-.48-.6-.89.08-.41.47-.68.89-.6,11.09,2.12,25.9,2.59,41.7,1.32,12.93-1.04,25.03-3.13,34.97-6.03.4-.12.82.11.94.52.12.4-.11.82-.51.94-10.05,2.93-22.24,5.04-35.28,6.09-5.87.47-11.61.71-17.07.71Z"/><path class="cls-36" d="M1665.95,712.47c-12.18,0-23.06-1.15-30.74-3.33-.4-.12-.64-.53-.52-.94.12-.4.53-.64.94-.52,10.94,3.11,28.55,4.08,47.12,2.58,18.36-1.48,35.49-5.21,45.81-9.97.38-.17.83,0,1.01.37.18.38,0,.83-.37,1.01-10.48,4.83-27.79,8.61-46.32,10.1-5.78.47-11.48.69-16.92.69Z"/><path class="cls-36" d="M1665.79,697.98c-13.15,0-24.66-1.35-32.4-3.9-.4-.13-.61-.56-.48-.96.13-.4.56-.61.96-.48,10.78,3.55,29.05,4.72,48.87,3.12,18.36-1.48,35.49-5.21,45.81-9.97.38-.17.83,0,1.01.37.18.38,0,.83-.37,1.01-10.48,4.83-27.8,8.61-46.32,10.1-5.87.47-11.61.71-17.07.71Z"/><path class="cls-36" d="M1665.89,683.47c-10.43,0-19.92-.84-27.29-2.48-.41-.09-.67-.5-.58-.9.09-.41.5-.67.9-.58,11.09,2.46,27.06,3.1,43.81,1.75,18.2-1.47,35.24-5.15,45.58-9.86.38-.17.83,0,1,.38.17.38,0,.83-.38,1-10.49,4.78-27.72,8.51-46.08,9.99-5.8.47-11.52.7-16.97.7Z"/><path class="cls-36" d="M1603.27,603.76c-3.83-13.58-10.34-26.26-19.11-37.32-18.79-23.68-49.44-71.84-53.21-137.56-5.49-95.6,79.3-143.46,156.67-136.96,77.37,6.5,153.71,64.1,145.35,153.04-5.14,54.72-35.77,96.23-58.58,120.07-14.48,15.14-24.81,33.68-30.4,53.87-6.84,24.71-23.13,55.5-61.84,57.38-50.09,2.43-70.9-44.26-78.87-72.52Z"/><path class="cls-16" d="M1694.94,657.21l27.07-176.07c.56-3.64,2.35-6.08,4-5.46,1.65.62,2.53,4.08,1.97,7.72-.01.1-.03.22-.05.31l-30.84,174.44c-.23,1.31-.9,2.14-1.49,1.85-.57-.28-.86-1.52-.67-2.79Z"/><path class="cls-16" d="M1666.84,658.61l-27.07-176.07c-.56-3.64-2.35-6.08-4-5.46-1.65.62-2.53,4.08-1.97,7.72.02.1.03.22.05.31l30.84,174.44c.23,1.31.9,2.14,1.49,1.85.57-.28.86-1.52.67-2.79Z"/><path class="cls-14" d="M1721.82,466.02c-.69-1.11-2.28-1.52-3.55-.92l-15.07,7.04-5.23-14.91c-.28-.78-.92-1.47-1.83-1.84-1.73-.71-3.81-.08-4.63,1.43l-.03.05-12.4,22.6-11.5-32.18-.02-.05c-.28-.79-.88-1.49-1.74-1.96-1.93-1.05-4.48-.55-5.69,1.12l-17.33,23.86c-.7.98-.46,2.29.61,3.01,1.15.77,2.8.59,3.69-.4l15.26-17.02,13.74,30.61v.02c.23.49.64.92,1.22,1.19,1.29.6,2.9.19,3.6-.93l13.26-21.27,4.99,10.76.04.1c.04.08.08.15.12.23.69,1.1,2.28,1.52,3.55.92l17.89-8.36c1.28-.6,1.75-1.98,1.06-3.08Z"/><path class="cls-13" d="M1774.98,542.38c-.72,0-1.45-.22-2.07-.69-1.54-1.15-1.87-3.33-.72-4.87,4.61-6.2,8.83-12.62,12.56-19.07.96-1.66,3.09-2.23,4.76-1.27,1.66.96,2.23,3.09,1.27,4.76-3.86,6.68-8.23,13.32-12.99,19.74-.68.92-1.73,1.41-2.8,1.41Z"/><path class="cls-13" d="M1797.25,504.16c-.46,0-.93-.09-1.38-.29-1.76-.77-2.57-2.82-1.81-4.58,28.54-65.72,3.93-121.14,3.68-121.69-.8-1.75-.03-3.81,1.72-4.61,1.75-.8,3.81-.03,4.61,1.71,1.08,2.36,26.2,58.68-3.63,127.36-.57,1.31-1.85,2.1-3.2,2.1Z"/><path class="cls-16" d="M1642.01,242.14l-114.41,12.05c-14.15,1.49-26.48-9.6-26.48-23.83V98.3c0-11.92,8.76-22.02,20.55-23.72l114.41-16.47c14.45-2.08,27.38,9.13,27.38,23.72v136.48c0,12.26-9.26,22.55-21.46,23.83Z"/><path class="cls-8" d="M1543.46,217.58c-9.35,0-16.96-7.61-16.96-16.96s7.61-16.96,16.96-16.96,16.96,7.61,16.96,16.96-7.61,16.96-16.96,16.96ZM1543.46,190.39c-5.64,0-10.23,4.59-10.23,10.23s4.59,10.23,10.23,10.23,10.23-4.59,10.23-10.23-4.59-10.23-10.23-10.23Z"/><path class="cls-7" d="M1543.46,164.43c19.95,0,36.19,16.23,36.19,36.19,0,1.24-.07,2.46-.19,3.66-.17,1.62,1.19,2.98,2.8,2.74l5.27-.79c1.15-.17,2.01-1.12,2.1-2.28.08-1.1.13-2.21.13-3.33,0-25.52-20.76-46.29-46.29-46.29-1.93,0-3.84.13-5.71.36-1.4.18-2.38,1.48-2.14,2.87l.87,5.12c.22,1.29,1.42,2.18,2.72,2.02,1.4-.17,2.82-.27,4.26-.27Z"/><path class="cls-4" d="M1543.46,138.34c34.34,0,62.28,27.94,62.28,62.28v.03c0,1.5,1.31,2.67,2.8,2.44l5.17-.77c.81-.93,1.33-1.53,2.13-2.47-.41-39.56-32.72-71.61-72.37-71.61-3.46,0-6.86.26-10.19.74-1.36.19-2.27,1.49-2.04,2.84l.87,5.11c.22,1.3,1.43,2.21,2.73,2.03,2.82-.4,5.7-.61,8.63-.61Z"/><path class="cls-5" d="M1543.46,112.25c47.46,0,86.28,37.61,88.27,84.59.06,1.48,1.36,2.58,2.82,2.37l5.13-.77c1.24-.19,2.17-1.28,2.11-2.54-2.47-52.11-45.61-93.75-98.32-93.75-4.95,0-9.81.39-14.57,1.1-1.36.2-2.27,1.5-2.04,2.85l.87,5.1c.23,1.33,1.48,2.21,2.81,2.01,4.22-.63,8.53-.97,12.93-.97Z"/><path class="cls-16" d="M1375.35,272.37h-67.06c-5.59,0-16.12-4.53-16.12-10.12v-73.26c0-5.27,4.05-9.66,9.3-10.08l77.84-6.3c6.13-.5,11.28,4.55,10.92,10.69l-4.78,79.56c-.32,5.34-4.75,9.51-10.1,9.51Z"/><path class="cls-3" d="M1312.71,258.11c-1.96,0-3.87-.75-5.31-2.1-1.55-1.46-2.43-3.51-2.43-5.63v-46.97c0-1.32,1.07-2.4,2.4-2.4s2.4,1.07,2.4,2.4v46.97c0,.82.33,1.58.92,2.14.59.56,1.37.84,2.19.8l55.66-3.31c1.55-.09,2.77-1.38,2.77-2.94v-46.11c0-.84-.34-1.61-.97-2.18-.62-.57-1.43-.84-2.26-.75l-46.3,4.59c-1.53.15-2.18,1.25-2.39,1.72-.21.47-.6,1.69.3,2.93l17.66,24.37c.55.76,1.41,1.21,2.36,1.22h.03c.93,0,1.79-.43,2.35-1.18l19.45-25.91c.79-1.06,2.3-1.28,3.36-.48,1.06.8,1.27,2.3.48,3.36l-19.45,25.92c-1.49,1.99-3.72,3.15-6.25,3.09-2.48-.02-4.74-1.19-6.2-3.2l-17.66-24.37c-1.65-2.27-1.94-5.15-.79-7.71,1.15-2.56,3.5-4.25,6.29-4.53l46.3-4.59c2.17-.21,4.34.5,5.96,1.97,1.62,1.46,2.54,3.55,2.54,5.73v46.11c0,4.09-3.2,7.48-7.28,7.72l-55.66,3.31c-.15,0-.31.01-.46.01Z"/><path class="cls-2" d="M770.99,641.33c-.74,0-1.47-.36-1.92-1.02-.72-1.06-.44-2.5.62-3.22,2.49-1.69,5-3.49,7.45-5.34,1.02-.77,2.48-.57,3.25.45.77,1.02.57,2.48-.45,3.25-2.51,1.9-5.09,3.74-7.65,5.48-.4.27-.85.4-1.3.4Z"/><path class="cls-6" d="M1775.34,1095.97c-1.09,0-2.07-.78-2.28-1.89-1.15-6.1-2.86-11.93-5.07-17.32-.49-1.19.08-2.54,1.27-3.03,1.19-.49,2.54.08,3.03,1.26,2.33,5.68,4.13,11.81,5.34,18.22.24,1.26-.59,2.47-1.85,2.71-.15.03-.29.04-.43.04ZM752.47,1081.04c-1.28,0-2.32-1.04-2.32-2.32,0-1.28,1.04-2.32,2.32-2.32,6.16,0,12.34-.05,18.52-.11h.03c1.27,0,2.31,1.02,2.32,2.3.01,1.28-1.01,2.33-2.3,2.35-6.19.07-12.38.11-18.56.11h0ZM729.26,1080.93h-.03c-6.21-.07-12.41-.17-18.6-.3-1.28-.03-2.3-1.09-2.27-2.37.03-1.28,1.03-2.32,2.37-2.27,6.17.13,12.36.23,18.55.3,1.28.01,2.31,1.06,2.3,2.35-.01,1.27-1.05,2.3-2.32,2.3ZM794.2,1080.55c-1.26,0-2.29-1.01-2.32-2.27-.03-1.28.99-2.34,2.27-2.37,6.17-.13,12.35-.3,18.53-.49,1.25-.08,2.35.97,2.39,2.25.04,1.28-.97,2.35-2.25,2.39-6.19.19-12.38.35-18.57.49h-.05ZM687.47,1079.97s-.06,0-.08,0c-6.21-.22-12.41-.48-18.59-.77-1.28-.06-2.27-1.15-2.21-2.43.06-1.28,1.15-2.23,2.43-2.21,6.17.29,12.35.55,18.54.77,1.28.05,2.28,1.12,2.24,2.4-.05,1.25-1.07,2.24-2.32,2.24ZM835.93,1079.23c-1.24,0-2.27-.98-2.32-2.23-.05-1.28.94-2.36,2.22-2.41,6.18-.25,12.35-.52,18.53-.82,1.25-.07,2.37.93,2.43,2.21.06,1.28-.93,2.37-2.21,2.43-6.19.3-12.38.57-18.57.82-.03,0-.06,0-.1,0ZM645.72,1077.92s-.1,0-.15,0c-6.21-.39-12.4-.82-18.57-1.29-1.28-.1-2.23-1.21-2.14-2.49.1-1.28,1.21-2.24,2.49-2.14,6.15.47,12.32.9,18.51,1.29,1.28.08,2.25,1.18,2.17,2.46-.08,1.23-1.1,2.17-2.31,2.17ZM877.68,1077.2c-1.22,0-2.25-.95-2.32-2.19-.07-1.28.91-2.38,2.19-2.45,6.18-.35,12.36-.72,18.54-1.12,1.24-.09,2.38.89,2.46,2.17.08,1.28-.89,2.38-2.17,2.46-6.19.39-12.38.77-18.57,1.12-.04,0-.09,0-.13,0ZM604.05,1074.66c-.07,0-.15,0-.22-.01-6.19-.58-12.37-1.21-18.52-1.88-1.28-.14-2.2-1.28-2.06-2.56.14-1.28,1.28-2.19,2.56-2.06,6.13.67,12.28,1.29,18.45,1.87,1.28.12,2.21,1.25,2.09,2.53-.11,1.2-1.12,2.1-2.31,2.1ZM919.41,1074.51c-1.21,0-2.23-.93-2.31-2.16-.09-1.28.87-2.39,2.15-2.48,6.18-.44,12.36-.9,18.54-1.38,1.29-.1,2.39.86,2.49,2.14.1,1.28-.86,2.39-2.14,2.49-6.19.48-12.37.94-18.57,1.38-.06,0-.11,0-.17,0ZM961.15,1071.26c-1.19,0-2.21-.92-2.31-2.13-.11-1.28.84-2.4,2.12-2.51,6.18-.52,12.36-1.06,18.54-1.61,1.27-.11,2.4.83,2.52,2.11.11,1.28-.83,2.4-2.11,2.52-6.18.55-12.37,1.09-18.56,1.61-.07,0-.13,0-.2,0ZM562.51,1070.06c-.1,0-.2,0-.3-.02-6.17-.79-12.32-1.63-18.45-2.52-1.27-.18-2.15-1.36-1.96-2.63s1.35-2.15,2.63-1.96c6.1.89,12.22,1.72,18.37,2.51,1.27.16,2.17,1.33,2.01,2.6-.15,1.17-1.15,2.03-2.3,2.03ZM1002.88,1067.51c-1.18,0-2.19-.9-2.31-2.1-.12-1.28.81-2.41,2.09-2.53,6.19-.59,12.37-1.19,18.54-1.81,1.29-.13,2.41.8,2.54,2.08.13,1.27-.8,2.41-2.08,2.54-6.18.62-12.36,1.22-18.56,1.81-.07,0-.15.01-.22.01ZM521.16,1063.96c-.13,0-.26-.01-.39-.03-6.13-1.03-12.3-2.12-18.34-3.24-1.26-.23-2.09-1.45-1.86-2.71.23-1.26,1.44-2.09,2.71-1.86,6.01,1.12,12.15,2.2,18.25,3.23,1.26.21,2.12,1.41,1.91,2.67-.19,1.13-1.17,1.94-2.29,1.94ZM1044.61,1063.33c-1.17,0-2.18-.89-2.31-2.08-.13-1.27.79-2.42,2.07-2.55,6.17-.65,12.33-1.3,18.47-1.97,1.28-.15,2.42.78,2.56,2.06.14,1.27-.78,2.42-2.06,2.56-6.15.67-12.32,1.33-18.49,1.97-.08,0-.16.01-.25.01ZM1086.18,1058.8c-1.17,0-2.17-.88-2.3-2.06-.14-1.27.77-2.42,2.05-2.57,6.17-.69,12.32-1.4,18.46-2.11,1.28-.17,2.43.77,2.57,2.04.15,1.27-.77,2.43-2.04,2.57-6.14.71-12.3,1.42-18.47,2.11-.09.01-.18.01-.26.01ZM1758.43,1058.28c-.68,0-1.36-.3-1.81-.87-3.66-4.58-7.94-8.88-12.72-12.78-.99-.81-1.14-2.27-.33-3.27.81-.99,2.27-1.14,3.27-.33,5.04,4.11,9.55,8.65,13.42,13.48.8,1,.64,2.46-.36,3.26-.43.34-.94.51-1.45.51ZM480.09,1056.19c-.16,0-.32-.02-.48-.05-6.09-1.29-12.21-2.65-18.18-4.04-1.25-.29-2.02-1.54-1.73-2.79.29-1.25,1.54-2.02,2.79-1.73,5.94,1.38,12.03,2.74,18.09,4.02,1.25.27,2.06,1.5,1.79,2.75-.23,1.09-1.2,1.84-2.27,1.84ZM1127.72,1053.99c-1.16,0-2.16-.87-2.3-2.05-.15-1.27.76-2.43,2.03-2.58,6.17-.73,12.32-1.47,18.45-2.21,1.28-.15,2.43.75,2.58,2.03.15,1.27-.75,2.43-2.03,2.58-6.14.74-12.29,1.48-18.46,2.22-.09.01-.19.02-.28.02ZM1169.24,1048.95c-1.16,0-2.16-.86-2.3-2.04-.16-1.27.75-2.43,2.02-2.59,6.17-.76,12.32-1.52,18.44-2.29,1.26-.17,2.43.74,2.59,2.02.16,1.27-.74,2.43-2.02,2.59-6.13.76-12.28,1.53-18.45,2.29-.1.01-.19.02-.29.02ZM439.38,1046.69c-.19,0-.38-.02-.57-.07-5.97-1.51-11.98-3.07-18.02-4.7-1.24-.33-1.97-1.61-1.64-2.84.33-1.24,1.61-1.97,2.84-1.64,6.02,1.62,12,3.18,17.95,4.68,1.24.31,2,1.58,1.68,2.82-.27,1.05-1.21,1.75-2.25,1.75ZM1210.74,1043.77c-1.15,0-2.15-.86-2.3-2.03-.16-1.27.74-2.43,2.01-2.59l18.44-2.33c1.27-.16,2.43.74,2.6,2.01.16,1.27-.74,2.43-2.01,2.6l-18.44,2.33c-.1.01-.2.02-.29.02ZM1252.23,1038.51c-1.15,0-2.15-.86-2.3-2.03-.16-1.27.74-2.43,2.01-2.6l18.44-2.34c1.28-.16,2.43.74,2.59,2.01.16,1.27-.74,2.43-2.01,2.59l-18.44,2.34c-.1.01-.2.02-.3.02ZM399.04,1035.68c-.22,0-.44-.03-.66-.1-6.05-1.79-12.05-3.64-17.81-5.49-1.22-.39-1.89-1.7-1.5-2.92.39-1.22,1.7-1.89,2.92-1.5,5.73,1.84,11.69,3.68,17.71,5.46,1.23.36,1.93,1.66,1.57,2.89-.3,1.01-1.22,1.66-2.22,1.66ZM1293.72,1033.26c-1.15,0-2.15-.86-2.3-2.03-.16-1.27.74-2.43,2.01-2.59l18.45-2.31c1.27-.16,2.43.74,2.59,2.02.16,1.27-.74,2.43-2.02,2.59l-18.44,2.31c-.1.01-.19.02-.29.02ZM1725.92,1032.56c-.36,0-.72-.08-1.06-.26-5.14-2.65-10.78-5.11-16.75-7.3-1.2-.44-1.82-1.78-1.38-2.98.44-1.2,1.78-1.82,2.98-1.38,6.15,2.26,11.96,4.8,17.27,7.53,1.14.59,1.59,1.99,1,3.13-.41.8-1.22,1.26-2.07,1.26ZM1335.23,1028.12c-1.16,0-2.16-.86-2.3-2.04-.16-1.27.75-2.43,2.02-2.58,6.19-.75,12.35-1.49,18.46-2.22,1.27-.14,2.43.76,2.58,2.03.15,1.27-.76,2.43-2.03,2.58-6.11.73-12.26,1.47-18.45,2.22-.1.01-.19.02-.28.02ZM1376.76,1023.19c-1.16,0-2.17-.87-2.3-2.06-.15-1.27.77-2.42,2.04-2.57,6.21-.71,12.37-1.41,18.48-2.09,1.28-.14,2.42.78,2.56,2.05.14,1.27-.78,2.42-2.05,2.56-6.11.68-12.26,1.37-18.46,2.08-.09.01-.18.01-.27.01ZM359.26,1022.76c-.26,0-.52-.04-.78-.14-5.93-2.12-11.81-4.31-17.48-6.51-1.19-.46-1.79-1.81-1.32-3,.47-1.2,1.82-1.78,3-1.32,5.62,2.19,11.46,4.36,17.35,6.47,1.21.43,1.84,1.76,1.41,2.97-.34.95-1.23,1.54-2.19,1.54ZM1418.33,1018.62c-1.17,0-2.18-.89-2.31-2.08-.13-1.27.79-2.42,2.07-2.55,6.23-.65,12.39-1.28,18.51-1.88,1.25-.12,2.41.81,2.54,2.08.13,1.27-.81,2.41-2.08,2.54-6.1.6-12.26,1.23-18.48,1.88-.08,0-.16.01-.24.01ZM1686.69,1018.44c-.18,0-.37-.02-.55-.07-5.69-1.39-11.76-2.65-18.04-3.75-1.26-.22-2.11-1.42-1.89-2.69.22-1.26,1.42-2.11,2.69-1.89,6.37,1.12,12.54,2.4,18.34,3.82,1.25.3,2.01,1.56,1.7,2.8-.26,1.06-1.21,1.77-2.25,1.77ZM1459.96,1014.57c-1.19,0-2.2-.91-2.31-2.11-.11-1.28.83-2.4,2.11-2.52,6.25-.56,12.43-1.09,18.54-1.58,1.26-.12,2.4.85,2.5,2.13.1,1.28-.85,2.4-2.13,2.5-6.1.49-12.27,1.02-18.5,1.58-.07,0-.14,0-.21,0ZM1645.51,1011.42c-.08,0-.17,0-.26-.01-5.88-.65-12.07-1.2-18.41-1.65-1.28-.09-2.24-1.2-2.15-2.48.09-1.28,1.2-2.25,2.48-2.15,6.4.45,12.66,1.01,18.6,1.66,1.27.14,2.19,1.29,2.05,2.56-.13,1.19-1.14,2.07-2.3,2.07ZM1501.66,1011.26c-1.21,0-2.23-.94-2.31-2.16-.09-1.28.88-2.39,2.16-2.47,6.27-.43,12.47-.81,18.58-1.15,1.29-.05,2.38.91,2.45,2.19.07,1.28-.91,2.38-2.19,2.45-6.09.34-12.27.73-18.52,1.15-.05,0-.11,0-.16,0ZM1543.42,1009.01c-1.24,0-2.27-.98-2.32-2.23-.05-1.28.95-2.36,2.23-2.41,6.32-.24,12.58-.42,18.62-.55,1.34.04,2.34.99,2.37,2.27.03,1.28-.99,2.34-2.27,2.37-6.01.12-12.25.31-18.54.55-.03,0-.06,0-.09,0ZM1603.81,1008.61s-.05,0-.07,0c-5.94-.18-12.18-.29-18.52-.33-1.28,0-2.32-1.05-2.31-2.33,0-1.28,1.04-2.31,2.32-2.31h.01c6.39.03,12.66.15,18.64.33,1.28.04,2.29,1.11,2.25,2.39-.04,1.26-1.07,2.25-2.32,2.25ZM320.37,1007.41c-.31,0-.63-.06-.93-.19-5.78-2.53-11.49-5.15-16.96-7.79-1.15-.56-1.64-1.94-1.08-3.1.56-1.16,1.94-1.64,3.1-1.08,5.43,2.62,11.08,5.22,16.81,7.72,1.17.51,1.71,1.88,1.2,3.06-.38.87-1.23,1.39-2.13,1.39ZM282.83,989.03c-.38,0-.76-.09-1.11-.29-5.52-3.03-10.97-6.18-16.17-9.37-1.09-.67-1.44-2.1-.77-3.19.67-1.09,2.1-1.44,3.19-.77,5.15,3.15,10.53,6.26,15.99,9.26,1.12.62,1.54,2.03.92,3.15-.42.77-1.22,1.2-2.04,1.2ZM247.35,966.98c-.46,0-.93-.14-1.34-.43-5.16-3.64-10.19-7.42-14.97-11.23-1-.8-1.17-2.26-.37-3.26.8-1,2.26-1.16,3.26-.37,4.7,3.76,9.67,7.48,14.75,11.07,1.05.74,1.3,2.19.56,3.23-.45.64-1.17.98-1.9.98ZM214.95,940.64c-.57,0-1.14-.21-1.59-.63-4.59-4.32-9.02-8.8-13.18-13.32-.87-.94-.81-2.41.14-3.28.94-.87,2.41-.81,3.28.14,4.08,4.44,8.44,8.84,12.95,13.08.93.88.98,2.35.1,3.28-.46.49-1.07.73-1.69.73ZM187.9,908.93c-.78,0-1.53-.39-1.97-1.1-3.12-5.03-6.17-10.58-9.07-16.49-.56-1.15-.09-2.54,1.06-3.1,1.14-.56,2.54-.09,3.11,1.06,2.83,5.77,5.8,11.18,8.84,16.08.68,1.09.34,2.52-.75,3.2-.38.24-.8.35-1.22.35ZM169.78,871.3c-.94,0-1.82-.57-2.17-1.5-2.19-5.81-4.2-11.79-6-17.76-.37-1.23.33-2.52,1.56-2.89,1.23-.36,2.52.33,2.89,1.56,1.76,5.88,3.75,11.75,5.89,17.47.45,1.2-.16,2.54-1.36,2.99-.27.1-.55.15-.82.15ZM158.14,831.16c-1.08,0-2.05-.76-2.27-1.86-1.31-6.47-2.29-12.73-2.91-18.58-.13-1.27.79-2.42,2.07-2.55,1.25-.12,2.42.79,2.55,2.06.6,5.71,1.56,11.81,2.84,18.14.25,1.26-.56,2.48-1.81,2.74-.16.03-.31.05-.46.05ZM154.89,789.6c-.06,0-.13,0-.19,0-1.28-.1-2.23-1.22-2.13-2.5.49-6.09,1.45-12.37,2.84-18.67.28-1.25,1.52-2.04,2.77-1.76,1.25.28,2.04,1.52,1.76,2.77-1.35,6.1-2.27,12.17-2.75,18.04-.1,1.21-1.11,2.13-2.31,2.13ZM164.38,749.02c-.27,0-.55-.05-.82-.15-1.2-.46-1.8-1.8-1.34-2.99,2.2-5.78,4.76-11.57,7.61-17.21.58-1.14,1.97-1.6,3.12-1.03,1.14.58,1.6,1.97,1.03,3.12-2.78,5.5-5.27,11.14-7.41,16.77-.35.93-1.23,1.5-2.17,1.5ZM183.63,712c-.45,0-.9-.13-1.3-.4-1.06-.72-1.34-2.16-.63-3.22,3.54-5.25,7.35-10.3,11.31-15.04.82-.98,2.28-1.11,3.27-.29.98.82,1.11,2.29.29,3.27-3.87,4.61-7.57,9.54-11.02,14.65-.45.67-1.18,1.02-1.93,1.02ZM210.96,680.48c-.64,0-1.28-.26-1.74-.78-.85-.96-.76-2.43.2-3.28,1.85-1.64,3.75-3.23,5.63-4.72,2.99-2.37,6.07-4.7,9.15-6.91,1.04-.75,2.49-.51,3.24.53s.51,2.49-.53,3.24c-3.02,2.17-6.04,4.45-8.97,6.78-1.81,1.44-3.64,2.98-5.44,4.56-.44.39-.99.58-1.54.58ZM653.2,674.14h-1.27c-1.28,0-2.32-1.05-2.32-2.33,0-1.28,1.04-2.31,2.32-2.31h1.27c5.82,0,11.59-.17,17.16-.51,1.26-.07,2.38.89,2.46,2.17s-.89,2.38-2.17,2.46c-5.66.35-11.53.53-17.44.53ZM628.73,673.2c-.06,0-.12,0-.17,0-6.03-.45-12.29-1.07-18.6-1.84-1.27-.16-2.18-1.31-2.02-2.59s1.32-2.17,2.59-2.02c6.24.76,12.42,1.37,18.38,1.82,1.28.09,2.24,1.21,2.14,2.49-.09,1.22-1.11,2.15-2.31,2.15ZM693.57,671.12c-1.12,0-2.11-.81-2.29-1.96-.2-1.27.66-2.45,1.93-2.65,6.13-.97,12.19-2.19,18.01-3.63,1.24-.31,2.5.45,2.81,1.69.31,1.24-.45,2.5-1.69,2.81-5.95,1.48-12.14,2.73-18.41,3.71-.12.02-.24.03-.36.03ZM587.26,667.97c-.13,0-.26-.01-.4-.03-5.94-1.02-12.11-2.2-18.34-3.48-1.26-.26-2.06-1.49-1.8-2.74.26-1.25,1.49-2.05,2.74-1.8,6.18,1.28,12.3,2.44,18.19,3.46,1.26.22,2.11,1.42,1.89,2.68-.19,1.13-1.18,1.93-2.28,1.93ZM733.95,660.54c-.94,0-1.82-.57-2.17-1.5-.45-1.2.15-2.54,1.35-2.99,5.74-2.18,11.39-4.66,16.79-7.37,1.14-.57,2.54-.11,3.12,1.03.57,1.15.11,2.54-1.03,3.12-5.54,2.78-11.34,5.32-17.22,7.56-.27.1-.55.15-.82.15ZM546.34,659.41c-.18,0-.36-.02-.55-.06-5.77-1.39-11.85-2.93-18.08-4.56-1.24-.33-1.98-1.6-1.65-2.84.33-1.24,1.59-1.98,2.84-1.65,6.19,1.63,12.25,3.16,17.98,4.54,1.25.3,2.01,1.55,1.71,2.8-.26,1.06-1.21,1.78-2.25,1.78ZM245.06,656.41c-.8,0-1.58-.42-2.01-1.16-.64-1.11-.26-2.53.85-3.17,5.39-3.1,10.97-6.03,16.61-8.71,1.15-.55,2.54-.06,3.09,1.1s.06,2.54-1.1,3.09c-5.52,2.62-11,5.5-16.28,8.54-.37.21-.76.31-1.16.31ZM505.9,648.73c-.21,0-.42-.03-.63-.09-6.04-1.71-12-3.43-17.88-5.15-1.23-.36-1.94-1.65-1.58-2.88.36-1.23,1.65-1.94,2.88-1.58,5.86,1.71,11.81,3.43,17.84,5.14,1.23.35,1.95,1.63,1.6,2.87-.29,1.02-1.22,1.69-2.23,1.69ZM282.93,638.87c-.95,0-1.84-.59-2.18-1.54-.43-1.21.19-2.54,1.4-2.97,5.83-2.1,11.84-4.01,17.87-5.68,1.23-.33,2.51.38,2.86,1.62.34,1.24-.38,2.51-1.62,2.86-5.91,1.64-11.81,3.51-17.53,5.57-.26.09-.53.14-.79.14ZM465.75,637.05c-.21,0-.43-.03-.64-.09-5.92-1.7-11.94-3.26-17.87-4.63-1.25-.29-2.03-1.54-1.74-2.78.29-1.25,1.54-2.02,2.78-1.74,6.01,1.39,12.1,2.97,18.1,4.69,1.23.35,1.94,1.64,1.59,2.87-.29,1.02-1.22,1.68-2.23,1.68ZM323.26,628.08c-1.1,0-2.08-.79-2.28-1.91-.23-1.26.61-2.47,1.87-2.7,6.06-1.1,12.3-2.01,18.54-2.71,1.26-.14,2.42.78,2.56,2.05.14,1.27-.78,2.42-2.05,2.56-6.13.68-12.26,1.58-18.23,2.66-.14.02-.28.04-.42.04ZM424.98,627.9c-.12,0-.25,0-.38-.03-6.09-.99-12.25-1.82-18.29-2.46-1.27-.14-2.2-1.28-2.06-2.55.14-1.27,1.29-2.17,2.55-2.06,6.13.65,12.37,1.49,18.54,2.49,1.26.21,2.12,1.4,1.92,2.66-.18,1.14-1.17,1.95-2.29,1.95ZM383.39,623.81s-.05,0-.08,0c-6.2-.2-12.34-.21-18.44-.03-1.24.1-2.35-.97-2.39-2.25-.04-1.28.97-2.35,2.25-2.39,6.19-.18,12.43-.17,18.72.03,1.28.04,2.29,1.11,2.25,2.39-.04,1.26-1.07,2.25-2.32,2.25Z"/><path class="cls-18" d="M1776.87,1128.35c-.06,0-.11,0-.17,0-1.28-.09-2.24-1.2-2.15-2.48.22-3.09.35-6.16.39-9.13.01-1.27,1.05-2.3,2.32-2.3h.02c1.28.01,2.31,1.06,2.3,2.35-.03,3.07-.17,6.23-.4,9.41-.09,1.22-1.11,2.15-2.31,2.15Z"/><path class="cls-16" d="M1049.26,202.65v67.28c0,7.99,6.28,14.58,14.27,14.95l84.13,3.95c8.53.4,15.67-6.41,15.67-14.95v-71.23c0-8.27-6.7-14.97-14.97-14.97h-84.13c-8.27,0-14.97,6.7-14.97,14.97Z"/><path class="cls-19" d="M1079.74,272.33c-1.09,0-2.01-.01-2.73-.03-1.24-.02-2.26-.94-2.42-2.17-.16-1.24.6-2.39,1.81-2.73h0c6.46-1.81,13.5-4.89,18.69-7.38-24.74-2.02-29.68-14.72-30.63-20.54-2.41-14.66,10.31-31.24,28.36-36.97,18.41-5.84,37.07-3.74,47.53,5.36,5.56,4.84,11.59,14.1,8.74,30.77-5.32,31.19-53.95,33.69-69.34,33.69ZM1077.61,271.72h0,0ZM1077.1,267.82h0,0ZM1112.84,255.62l-7.84,4.37c-.41.23-7.31,4.06-15.7,7.56,19.1-1.15,51.41-6.55,55.35-29.66,2-11.73-.44-20.69-7.26-26.63-10.58-9.21-29.33-8.88-43.22-4.47-15.73,5-27.31,19.63-25.29,31.96,1.84,11.19,14.59,17.46,34.99,17.03l8.97-.16Z"/><path class="cls-16" d="M1169.14,12.64l-1.83,113.38c-.12,7.18,5.67,13.06,12.85,13.06h130.54c7.1,0,12.85-5.75,12.85-12.85V12.85c0-7.1-5.75-12.85-12.85-12.85h-128.71c-7.02,0-12.74,5.63-12.85,12.64Z"/><path class="cls-20" d="M1245.93,121.59c-.94,0-1.87-.02-2.82-.06-32.21-1.42-57.35-27.07-56.03-57.17.64-14.64,7.35-28.12,18.9-37.95,11.47-9.77,26.36-14.76,41.9-14.08,32.21,1.42,57.35,27.07,56.03,57.17h0c-.64,14.64-7.35,28.12-18.91,37.95-10.78,9.17-24.56,14.14-39.09,14.14ZM1245.08,19.97c-12.7,0-24.72,4.32-34.1,12.3-9.9,8.43-15.66,19.94-16.2,32.42-1.13,25.86,20.7,47.91,48.67,49.14,13.59.59,26.59-3.75,36.57-12.25,9.9-8.43,15.66-19.94,16.2-32.42,1.13-25.86-20.7-47.91-48.67-49.14-.83-.04-1.65-.05-2.48-.05Z"/><path class="cls-21" d="M1259.46,67.17c-.01,8.96-.63,17.94-2.2,26.77-.4,2.21-.86,4.4-1.41,6.58-.55,2.17-1.19,4.33-1.97,6.44-.79,2.1-1.7,4.17-2.94,6.07-.62.94-1.33,1.84-2.2,2.58-.44.37-.92.69-1.44.93-.53.24-1.1.39-1.68.4-.58.02-1.17-.1-1.7-.31-.54-.21-1.03-.53-1.48-.88-.89-.72-1.62-1.61-2.25-2.54-1.26-1.88-2.18-3.95-2.98-6.05-.79-2.1-1.43-4.26-1.99-6.43-.56-2.17-1.02-4.37-1.42-6.57-.8-4.41-1.35-8.87-1.72-13.33-.37-4.47-.55-8.95-.57-13.43-.01-2.24.05-4.48.13-6.72.08-2.24.21-4.48.37-6.71.33-4.47.82-8.93,1.56-13.35.37-2.21.8-4.41,1.31-6.59.52-2.18,1.12-4.35,1.86-6.46.37-1.06.78-2.1,1.25-3.12.47-1.02.99-2.02,1.6-2.97.62-.94,1.32-1.84,2.2-2.56.44-.36.92-.67,1.46-.88.53-.21,1.1-.32,1.67-.3.57.02,1.13.16,1.65.39.52.23,1,.55,1.44.9.88.72,1.61,1.59,2.25,2.51,1.28,1.85,2.25,3.9,3.09,5.98.83,2.08,1.52,4.22,2.12,6.38.6,2.16,1.1,4.35,1.54,6.55,1.73,8.8,2.43,17.78,2.45,26.74ZM1258.8,67.17c0-4.46-.16-8.93-.53-13.38-.36-4.45-.92-8.88-1.74-13.27-.41-2.19-.89-4.37-1.46-6.53-.57-2.16-1.23-4.29-2.03-6.37-.81-2.07-1.75-4.11-2.99-5.95-.63-.91-1.33-1.78-2.18-2.49-.42-.35-.88-.66-1.38-.89-.5-.22-1.03-.37-1.58-.39-.54-.02-1.09.09-1.59.3-.5.21-.97.51-1.39.86-.85.7-1.53,1.59-2.12,2.52-.59.94-1.1,1.93-1.55,2.94-.45,1.02-.85,2.06-1.21,3.11-.72,2.11-1.29,4.27-1.78,6.44-.49,2.18-.89,4.37-1.24,6.58-.68,4.41-1.13,8.86-1.41,13.32-.28,4.46-.38,8.92-.37,13.39-.01,4.46.14,8.93.47,13.38.33,4.45.84,8.89,1.61,13.29.38,2.2.83,4.38,1.36,6.55.54,2.16,1.16,4.31,1.93,6.4.77,2.08,1.67,4.13,2.89,5.98.61.92,1.31,1.78,2.15,2.47.42.34.88.64,1.38.84.5.2,1.03.32,1.56.3.53-.01,1.06-.15,1.54-.38.49-.23.94-.54,1.35-.89.83-.71,1.51-1.59,2.11-2.51,1.2-1.86,2.08-3.92,2.85-6,.76-2.09,1.37-4.24,1.9-6.4.53-2.17.97-4.35,1.35-6.55.76-4.4,1.26-8.84,1.6-13.29.34-4.45.5-8.92.49-13.38Z"/><path class="cls-23" d="M1245.49,118.25c-.68,0-1.39-.14-2.06-.41-.61-.24-1.2-.6-1.8-1.07-.89-.72-1.69-1.61-2.52-2.83-1.15-1.71-2.14-3.71-3.12-6.32-.74-1.98-1.41-4.13-2.03-6.57-.54-2.1-1.01-4.28-1.44-6.66-.77-4.23-1.33-8.63-1.73-13.46-.36-4.39-.55-8.94-.58-13.53-.01-2.4.06-4.77.13-6.77.09-2.28.21-4.55.37-6.76.36-4.85.87-9.26,1.57-13.47.4-2.4.83-4.58,1.33-6.68.58-2.45,1.2-4.61,1.9-6.59.42-1.2.85-2.26,1.3-3.23.54-1.19,1.1-2.22,1.69-3.13.81-1.23,1.59-2.14,2.47-2.86.59-.48,1.19-.84,1.8-1.08.7-.28,1.46-.41,2.2-.39.71.02,1.43.19,2.13.5.59.26,1.16.61,1.73,1.08.88.72,1.67,1.6,2.5,2.78,1.17,1.69,2.19,3.67,3.23,6.24.79,1.98,1.5,4.11,2.16,6.52.58,2.1,1.09,4.27,1.56,6.64,1.64,8.36,2.45,17.19,2.48,26.99h0c-.01,9.87-.74,18.7-2.22,27-.43,2.39-.9,4.57-1.43,6.67-.62,2.44-1.27,4.58-2.01,6.57-.98,2.61-1.95,4.62-3.07,6.33-.81,1.22-1.59,2.13-2.45,2.86-.58.49-1.15.85-1.75,1.13-.73.33-1.47.5-2.2.51-.05,0-.1,0-.15,0ZM1244.81,19.22c-.33,0-.66.07-.99.2-.35.14-.7.36-1.06.66-.64.53-1.23,1.24-1.86,2.22-.51.8-.99,1.71-1.46,2.77-.4.9-.78,1.89-1.17,3.01-.64,1.89-1.21,3.95-1.74,6.31-.46,2.04-.86,4.16-1.22,6.49-.64,4.13-1.09,8.45-1.39,13.2-.26,4.06-.38,8.41-.37,13.3-.01,4.52.14,8.98.46,13.29.35,4.72.87,9.03,1.59,13.16.4,2.31.84,4.42,1.35,6.46.58,2.34,1.2,4.38,1.88,6.26.88,2.39,1.76,4.2,2.75,5.71.64.96,1.24,1.65,1.89,2.18.36.29.71.51,1.05.64.36.15.69.2,1.03.2.34,0,.69-.1,1.04-.26.34-.16.69-.39,1.05-.7.64-.55,1.23-1.26,1.87-2.24.98-1.52,1.84-3.34,2.71-5.74.68-1.88,1.29-3.93,1.86-6.27.5-2.02.93-4.14,1.33-6.46.71-4.09,1.22-8.4,1.58-13.16.33-4.29.49-8.76.49-13.29h0c0-4.51-.17-8.97-.53-13.27-.39-4.73-.95-9.03-1.72-13.14-.43-2.29-.9-4.39-1.44-6.44-.61-2.32-1.26-4.35-1.99-6.23-.92-2.36-1.83-4.17-2.85-5.69-.66-.96-1.27-1.67-1.93-2.21-.37-.3-.73-.54-1.09-.7-.37-.17-.73-.26-1.07-.27-.02,0-.05,0-.07,0Z"/><path class="cls-29" d="M1281.98,67.17c-.03,5.77-.77,11.54-2.31,17.11-1.57,5.55-3.93,10.89-7.13,15.69-1.6,2.39-3.42,4.65-5.45,6.69-2.03,2.04-4.27,3.88-6.7,5.42-2.44,1.53-5.07,2.76-7.82,3.59-2.75.83-5.63,1.27-8.5,1.27-2.88,0-5.75-.43-8.5-1.26-2.76-.83-5.39-2.05-7.83-3.58-2.44-1.54-4.68-3.37-6.71-5.41-2.03-2.04-3.85-4.3-5.46-6.69-3.21-4.8-5.58-10.14-7.15-15.69-.77-2.78-1.35-5.62-1.73-8.48-.38-2.86-.57-5.75-.58-8.64.01-2.89.21-5.78.59-8.64.38-2.86.96-5.7,1.74-8.48,1.58-5.55,3.95-10.89,7.16-15.68,1.61-2.39,3.43-4.64,5.46-6.69,2.03-2.04,4.27-3.87,6.71-5.4,2.44-1.53,5.07-2.74,7.82-3.57,2.75-.83,5.62-1.27,8.49-1.27,2.87,0,5.74.44,8.49,1.28,2.75.83,5.38,2.05,7.82,3.58,2.43,1.53,4.67,3.37,6.7,5.41,2.03,2.04,3.84,4.29,5.45,6.69,3.21,4.79,5.57,10.13,7.14,15.68,1.54,5.56,2.28,11.33,2.32,17.1ZM1281.22,67.17c0-5.7-.72-11.42-2.22-16.92-1.51-5.5-3.78-10.81-6.9-15.58-1.56-2.38-3.34-4.63-5.32-6.67-1.99-2.04-4.18-3.89-6.58-5.42-2.4-1.53-5-2.75-7.72-3.58-2.72-.83-5.56-1.27-8.41-1.28-2.85.01-5.68.45-8.4,1.28-2.72.83-5.31,2.06-7.72,3.59-2.4,1.54-4.59,3.38-6.57,5.42-1.98,2.04-3.75,4.29-5.31,6.68-3.12,4.77-5.38,10.08-6.88,15.57-.75,2.75-1.29,5.56-1.66,8.38-.37,2.83-.55,5.68-.56,8.53,0,2.85.19,5.7.56,8.53.37,2.83.91,5.63,1.66,8.38,1.5,5.49,3.77,10.8,6.89,15.56,1.56,2.38,3.33,4.63,5.31,6.67,1.98,2.04,4.17,3.88,6.57,5.41,2.4,1.52,4.99,2.74,7.71,3.58,2.71.83,5.55,1.28,8.39,1.29,2.84-.01,5.68-.45,8.39-1.28,2.72-.83,5.31-2.05,7.72-3.57,2.4-1.53,4.59-3.37,6.58-5.41,1.99-2.04,3.76-4.29,5.32-6.67,3.13-4.77,5.4-10.07,6.91-15.57,1.5-5.5,2.21-11.21,2.23-16.92Z"/><path class="cls-30" d="M1244.07,118.25c-2.99,0-5.98-.44-8.88-1.32-2.81-.84-5.55-2.1-8.14-3.73-2.45-1.55-4.79-3.43-6.94-5.6-2.03-2.04-3.92-4.36-5.61-6.89-3.19-4.76-5.65-10.17-7.32-16.06-.78-2.81-1.38-5.73-1.77-8.67-.38-2.88-.58-5.84-.59-8.8.02-2.98.22-5.95.6-8.82.39-2.94.99-5.85,1.77-8.66,1.68-5.9,4.14-11.3,7.33-16.06,1.69-2.52,3.58-4.83,5.62-6.88,2.16-2.17,4.49-4.05,6.94-5.59,2.58-1.62,5.32-2.86,8.14-3.71,2.89-.88,5.88-1.32,8.86-1.32,2.99,0,5.98.45,8.87,1.33,2.82.85,5.55,2.1,8.13,3.72,2.45,1.54,4.78,3.42,6.93,5.59,2.03,2.05,3.92,4.36,5.6,6.88,3.19,4.76,5.65,10.16,7.31,16.05,1.54,5.54,2.33,11.41,2.37,17.45v.02c-.03,6.04-.82,11.91-2.36,17.45-1.66,5.9-4.12,11.3-7.3,16.07-1.69,2.52-3.57,4.84-5.6,6.89-2.15,2.17-4.48,4.05-6.93,5.6-2.59,1.63-5.33,2.89-8.14,3.73-2.9.88-5.88,1.32-8.88,1.33ZM1244.06,19.02c-2.7.01-5.4.42-8.02,1.23-2.54.78-5.02,1.94-7.4,3.44-2.2,1.41-4.33,3.17-6.34,5.23-1.87,1.93-3.6,4.11-5.16,6.48-2.93,4.48-5.18,9.59-6.72,15.2-.7,2.59-1.25,5.36-1.62,8.21-.35,2.73-.54,5.54-.54,8.36,0,2.82.19,5.63.55,8.35.37,2.84.92,5.61,1.63,8.2,1.54,5.61,3.8,10.72,6.73,15.19,1.55,2.37,3.29,4.55,5.16,6.47,2.01,2.06,4.14,3.82,6.34,5.22,2.36,1.49,4.84,2.65,7.39,3.43,2.62.8,5.32,1.22,8.02,1.23,2.69-.01,5.39-.42,8.01-1.23,2.55-.78,5.04-1.93,7.4-3.43,2.2-1.4,4.33-3.16,6.35-5.22,1.87-1.92,3.61-4.1,5.17-6.47,2.93-4.47,5.2-9.59,6.74-15.2,1.43-5.25,2.17-10.83,2.18-16.57,0-5.74-.74-11.32-2.17-16.58-1.54-5.61-3.81-10.73-6.74-15.21-1.55-2.37-3.29-4.55-5.17-6.48-2.01-2.06-4.14-3.82-6.35-5.23-2.37-1.5-4.86-2.66-7.4-3.44-2.62-.8-5.33-1.21-8.03-1.22Z"/><path class="cls-31" d="M1199.83,47.48l11.39-.09,11.38-.05,22.77-.04,22.77.05,11.38.06,11.38.1s.03.02.03.03c0,0-.02.03-.03.03l-11.38.1-11.38.06-22.77.05-22.77-.04-11.38-.05-11.39-.09s-.05-.02-.05-.02c0-.05.02-.08.05-.08Z"/><polygon class="cls-32" points="1245.37 49.07 1211.21 48.98 1199.28 48.88 1198.48 48.08 1198.48 47.5 1198.51 46.22 1199.82 46.17 1222.59 46.03 1245.37 45.99 1279.53 46.09 1292.21 46.2 1292.24 48.83 1290.91 48.87 1268.14 49.02 1245.37 49.07"/><path class="cls-22" d="M1213.04,28.34c2.69-.04,5.39-.06,8.08-.09l8.08-.05c2.69-.02,5.39-.02,8.08-.03l8.08-.02,16.17.05,8.08.06c2.69.03,5.39.05,8.08.1.02,0,.03.02.03.02,0,.04-.01.05-.03.05-2.69.05-5.39.07-8.08.1l-8.08.06-16.17.05-8.08-.02c-2.69,0-5.39,0-8.08-.03l-8.08-.05c-2.69-.03-5.39-.05-8.08-.09-.03,0-.05-.02-.05-.05,0-.03.02-.05.05-.05Z"/><path class="cls-25" d="M1245.37,29.93l-10.18-.02c-2,0-4,0-6-.02l-10.78-.08c-1.8-.02-3.6-.03-5.4-.06l-1.28-.02-.05-2.64,1.33-.05c1.74-.03,3.48-.04,5.22-.06l10.95-.08c1.9-.02,3.8-.02,5.69-.02l10.48-.02,27.2.14c1.72.02,3.44.04,5.15.07l1.32.02-.06,2.62-1.29.03c-1.78.03-3.58.05-5.38.07l-10.78.09-16.17.05Z"/><path class="cls-24" d="M1195.87,66.62l12.37-.09,12.37-.05,24.75-.04,24.75.05,12.37.06,12.37.1s.03.02.03.03c0,0-.01.03-.03.03l-12.37.1-12.37.06-24.75.05-24.75-.04-12.37-.05-12.37-.09s-.05-.02-.05-.05c0-.03.02-.05.05-.05Z"/><polygon class="cls-26" points="1245.37 68.21 1208.24 68.12 1194.57 68.02 1194.52 65.37 1195.86 65.32 1220.61 65.17 1245.37 65.13 1282.5 65.23 1295.42 65.34 1296.21 66.14 1296.15 67.98 1294.86 68.01 1270.12 68.17 1245.37 68.21"/><path class="cls-27" d="M1199.83,85.76l11.39-.09,11.38-.05,22.77-.04,22.77.05,11.38.06,11.38.1s.03.02.03.02c0,.04-.02.05-.03.05l-11.38.1-11.38.06-22.77.05-22.77-.04-11.38-.05-11.39-.09s-.05-.02-.05-.05c0-.03.02-.05.05-.05Z"/><polygon class="cls-33" points="1245.37 87.36 1211.21 87.26 1199.28 87.17 1198.48 86.37 1198.48 85.78 1198.51 84.51 1199.82 84.46 1222.59 84.31 1245.37 84.27 1279.53 84.38 1292.21 84.49 1292.24 87.12 1290.91 87.15 1268.14 87.31 1245.37 87.36"/><path class="cls-28" d="M1279.33,105.13h-64.66c-.1,0-.17-.08-.17-.18s.08-.18.17-.18h64.66c.1,0,.17.08.17.18s-.08.18-.17.18Z"/><path class="cls-34" d="M1279.33,106.44h-64.66c-.81,0-1.48-.66-1.48-1.48s.66-1.48,1.48-1.48h64.66c.81,0,1.48.66,1.48,1.48s-.66,1.48-1.48,1.48Z"/></g></svg>