<?xml version="1.0" encoding="UTF-8"?><svg id="Layer_2" xmlns="http://www.w3.org/2000/svg" viewBox="0 0 109.88 100.84"><defs><style>.cls-1{fill:#fff;}</style></defs><g id="Layer_1-2"><path class="cls-1" d="M82.52,6.01c-.21-.09-.39-.26-.48-.47-.04-.1-.07-.22-.07-.33,0,.11.02.22.07.33.09.21.26.38.48.47l10.54,4.26c.11.04.22.06.33.06-.11,0-.22-.02-.33-.06l-10.54-4.26Z"/><path class="cls-1" d="M15.04,30.65h-7.53c-.54,0-.97.43-.97.97s.43.97.97.97h7.53c.53,0,.97-.43.97-.97s-.43-.97-.97-.97Z"/><path class="cls-1" d="M95.9,32.58h7.54c.53,0,.97-.43.97-.97s-.43-.97-.97-.97h-7.54c-.53,0-.97.43-.97.97s.43.97.97.97Z"/><path class="cls-1" d="M102.97,22.87h-14.06l5.29-13.07h0s.64-1.59.64-1.59c1.15-2.86-.63-6.29-3.98-7.64-1.6-.65-3.31-.73-4.84-.25-1.58.5-2.77,1.56-3.34,2.97l-.64,1.59h0s-7.27,17.99-7.27,17.99l-.35.87H6.98C3.16,23.74.06,27.37.06,31.18l-.06,62.42c0,3.81,3.42,7.23,7.23,7.23h95.73c3.81,0,6.91-3.1,6.91-6.91v-53.37h0v-10.77c0-3.81-3.1-6.92-6.91-6.92ZM84.3,3.94c.37-.92,1.17-1.62,2.25-1.96,1.14-.36,2.43-.29,3.65.2,2.46.99,3.81,3.4,3.01,5.37l-.31.78-8.92-3.61.32-.78ZM83.33,6.34l8.91,3.61-22.2,54.87c-.03.06-.07.12-.1.18l-8.88-3.59c.02-.06.04-.13.06-.19L83.33,6.34ZM68.91,66.47l-6.88,7.97c-.7-.31-1.38-.61-1.99-.89l.6-10.43,8.27,3.35ZM3.56,38.8v-8.14c0-1.88,1.53-3.42,3.42-3.42h66.01l-4.67,11.56H3.56ZM106.38,93.92c0,1.88-1.53,3.41-3.41,3.41H7.23c-1.88,0-3.41-1.53-3.41-3.41v-51.63h63.08l-7.39,18.27c-.03.06-.04.13-.06.19l-.41-.17-.8,14.06.54.25c.12.05.25.11.37.17l-.54,4.55c-.03.28.33.42.49.19l2.55-3.63c.1.04.19.08.29.13l.59.26,9.31-10.8-.26-.1c.03-.06.07-.12.09-.18l9.38-23.18h25.33v51.63ZM106.38,38.8h-23.92l5.03-12.43h15.48c1.88,0,3.41,1.53,3.41,3.42v9.01Z"/></g></svg>